<svg width="464" height="535" viewBox="0 0 464 535" fill="none" xmlns="http://www.w3.org/2000/svg">
<mask id="mask0_68_1801" style="mask-type:alpha" maskUnits="userSpaceOnUse" x="0" y="0" width="464" height="535">
<rect width="464" height="535" fill="#D9D9D9"/>
</mask>
<g mask="url(#mask0_68_1801)">
<path d="M385.912 127.116H232.614C229.986 127.116 227.855 129.247 227.855 131.875V241.452C227.855 244.08 229.986 246.211 232.614 246.211H385.912C388.54 246.211 390.671 244.08 390.671 241.452V131.875C390.671 129.247 388.54 127.116 385.912 127.116Z" fill="#E4EBF7"/>
<path fill-rule="evenodd" clip-rule="evenodd" d="M274.848 232.736V150.95C274.848 150.051 275.577 149.322 276.476 149.322H375.549C376.449 149.322 377.178 150.051 377.178 150.95V233.056C377.178 233.778 376.577 234.364 375.836 234.364H276.476C275.577 234.364 274.848 233.635 274.848 232.736Z" fill="white"/>
<path fill-rule="evenodd" clip-rule="evenodd" d="M284.941 213.721C284.2 213.721 283.6 213.135 283.6 212.412V159.273C283.6 158.55 284.2 157.964 284.941 157.964H367.553C368.294 157.964 368.895 158.55 368.895 159.273V212.412C368.895 213.135 368.294 213.721 367.553 213.721H284.941Z" fill="#A3B5D6"/>
<path fill-rule="evenodd" clip-rule="evenodd" d="M295.266 165.651H289.409C288.956 165.651 288.588 165.293 288.588 164.851C288.588 164.41 288.956 164.051 289.409 164.051H295.266C295.719 164.051 296.086 164.41 296.086 164.851C296.086 165.293 295.719 165.651 295.266 165.651Z" fill="white"/>
<path fill-rule="evenodd" clip-rule="evenodd" d="M295.36 169.49H289.504C289.05 169.49 288.683 169.132 288.683 168.69C288.683 168.249 289.05 167.891 289.504 167.891H295.36C295.814 167.891 296.181 168.249 296.181 168.69C296.181 169.132 295.814 169.49 295.36 169.49Z" fill="white"/>
<path fill-rule="evenodd" clip-rule="evenodd" d="M283.6 198.996C292.477 198.996 290.12 188.029 303.564 188.029C317.009 188.029 316.308 197.833 326.794 197.833C337.443 197.833 336.738 169.674 346.94 169.674C357.709 169.674 355.278 195.19 368.692 195.19V212.483C368.692 213.206 368.091 213.792 367.349 213.791L284.941 213.722C284.2 213.721 283.6 213.136 283.6 212.414V198.996Z" fill="#253368"/>
<path d="M303.454 172.734C305.04 172.734 306.32 173.676 307.422 175.464C308.269 176.836 308.994 178.624 309.907 181.419L310.031 181.8C310.245 182.48 311.527 186.56 312.006 187.985L312.036 188.075C313.578 192.622 315.087 195.806 317.062 198.226C319.473 201.18 322.45 202.725 326.269 202.725C328.613 202.725 330.695 202.097 332.699 200.888L332.875 200.78C334.367 199.855 335.703 198.706 337.55 196.87L338.345 196.071L338.891 195.521C339.353 195.056 339.706 194.706 340.048 194.378L340.112 194.317C342.841 191.704 344.923 190.499 347.459 190.499C350.118 190.499 352.442 191.818 355.624 194.669L355.845 194.868C356.02 195.026 356.201 195.192 356.397 195.373L358.088 196.951C360.187 198.903 361.473 199.972 362.942 200.892C364.833 202.078 366.658 202.7 368.575 202.724L368.692 202.725V203.742C366.524 203.742 364.482 203.059 362.401 201.754L362.245 201.656C360.747 200.699 359.422 199.585 357.288 197.596L356.054 196.443C355.66 196.076 355.33 195.773 355.017 195.492L354.945 195.427C351.935 192.73 349.797 191.517 347.459 191.517C345.278 191.517 343.418 192.578 340.909 194.963L340.815 195.052C340.524 195.331 340.226 195.624 339.859 195.991L338.378 197.481L338.155 197.703C336.24 199.599 334.843 200.783 333.224 201.759C331.068 203.06 328.806 203.742 326.269 203.742C322.13 203.742 318.87 202.051 316.273 198.869C314.232 196.368 312.691 193.14 311.135 188.585L310.992 188.16C310.434 186.485 309.071 182.137 309.033 182.02L308.919 181.67C307.063 176.023 305.619 173.752 303.454 173.752C302.039 173.752 300.855 174.696 299.758 176.632L299.707 176.722C298.807 178.339 298.053 180.387 297.004 183.849L295.794 187.912C295.737 188.102 295.688 188.264 295.651 188.386L295.496 188.894C294.087 193.456 292.891 196.424 291.316 198.826C289.234 202.002 286.665 203.708 283.398 203.742L283.297 203.742V202.725C286.232 202.725 288.535 201.212 290.465 198.269L290.575 198.099C292.049 195.795 293.205 192.887 294.576 188.424L294.727 187.926L295.899 183.991C297.038 180.194 297.834 177.996 298.818 176.227C300.091 173.941 301.577 172.734 303.454 172.734Z" fill="white"/>
<path d="M367.24 220.889C367.577 220.889 367.851 221.162 367.851 221.499C367.851 221.825 367.595 222.091 367.274 222.109L367.24 222.11H284.497C284.16 222.11 283.887 221.836 283.887 221.499C283.887 221.173 284.142 220.907 284.464 220.89L284.497 220.889H367.24Z" fill="#E4EBF7"/>
<path d="M354.016 226.414C354.354 226.414 354.627 226.688 354.627 227.025C354.627 227.351 354.371 227.617 354.05 227.635L354.016 227.635H284.497C284.16 227.635 283.887 227.362 283.887 227.025C283.887 226.699 284.142 226.433 284.464 226.415L284.497 226.414H354.016Z" fill="#E4EBF7"/>
<path d="M232.217 121.624H386.228C388.637 121.624 390.589 123.528 390.589 125.876V138.548H227.855V125.876C227.855 123.528 229.808 121.624 232.217 121.624Z" fill="#253368"/>
<path d="M237.177 133.121C238.896 133.121 240.29 131.762 240.29 130.086C240.29 128.41 238.896 127.051 237.177 127.051C235.458 127.051 234.064 128.41 234.064 130.086C234.064 131.762 235.458 133.121 237.177 133.121Z" fill="#A3B5D6"/>
<path d="M248.803 133.121C250.522 133.121 251.916 131.762 251.916 130.086C251.916 128.41 250.522 127.051 248.803 127.051C247.084 127.051 245.69 128.41 245.69 130.086C245.69 131.762 247.084 133.121 248.803 133.121Z" fill="#E4EBF7"/>
<path d="M260.431 133.121C262.15 133.121 263.544 131.762 263.544 130.086C263.544 128.41 262.15 127.051 260.431 127.051C258.712 127.051 257.318 128.41 257.318 130.086C257.318 131.762 258.712 133.121 260.431 133.121Z" fill="#E4EBF7"/>
<path d="M281.913 190.012L279.911 188.543L281.913 187.078L283.916 188.543L281.913 190.012Z" fill="white"/>
<path d="M261.452 182.404H240.725C240.016 182.404 239.441 182.979 239.441 183.689V186.855C239.441 187.564 240.016 188.139 240.725 188.139H261.452C262.162 188.139 262.737 187.564 262.737 186.855V183.689C262.737 182.979 262.162 182.404 261.452 182.404Z" fill="#A3B5D6"/>
<path d="M261.472 193.446H240.706C240.007 193.446 239.441 194.012 239.441 194.711V197.742C239.441 198.441 240.007 199.007 240.706 199.007H261.472C262.17 199.007 262.737 198.441 262.737 197.742V194.711C262.737 194.012 262.17 193.446 261.472 193.446Z" fill="#A3B5D6"/>
<path d="M261.472 204.262H240.706C240.007 204.262 239.441 204.828 239.441 205.527V208.558C239.441 209.257 240.007 209.823 240.706 209.823H261.472C262.17 209.823 262.737 209.257 262.737 208.558V205.527C262.737 204.828 262.17 204.262 261.472 204.262Z" fill="#4E5C93"/>
<path d="M251.089 173.039C257.512 173.039 262.718 167.962 262.718 161.7C262.718 155.438 257.512 150.361 251.089 150.361C244.666 150.361 239.459 155.438 239.459 161.7C239.459 167.962 244.666 173.039 251.089 173.039Z" fill="white"/>
<path d="M251.089 173.039C254.441 173.041 257.622 171.597 259.778 169.095C258.079 165.95 254.733 163.981 251.087 163.981C247.441 163.981 244.095 165.95 242.396 169.095C244.553 171.598 247.736 173.041 251.089 173.039Z" fill="#253368"/>
<path d="M251.151 164.432C253.566 164.432 255.525 162.523 255.525 160.168C255.525 157.812 253.566 155.903 251.151 155.903C248.735 155.903 246.777 157.812 246.777 160.168C246.777 162.523 248.735 164.432 251.151 164.432Z" fill="#253368"/>
<path fill-rule="evenodd" clip-rule="evenodd" d="M337.967 121.625C337.967 150.484 361.362 173.88 390.222 173.88C419.081 173.88 442.476 150.484 442.476 121.625C442.476 92.7651 419.081 69.3699 390.222 69.3699C361.362 69.3699 337.967 92.7651 337.967 121.625Z" fill="#9254DC"/>
<path fill-rule="evenodd" clip-rule="evenodd" d="M379.085 106.392C379.085 100.244 384.067 95.2591 390.213 95.2591C396.359 95.2591 401.341 100.244 401.341 106.392V111.971H406.906V106.396C406.906 97.1774 399.436 89.7046 390.222 89.7046H390.222C381.008 89.7046 373.538 97.1774 373.538 106.396V111.971H379.085V106.392Z" fill="white"/>
<path fill-rule="evenodd" clip-rule="evenodd" d="M414.265 145.72H366.324C365.177 145.72 364.239 144.783 364.239 143.639V113.11C364.239 111.965 365.177 111.029 366.324 111.029H414.265C415.411 111.029 416.349 111.965 416.349 113.11V143.639C416.349 144.783 415.411 145.72 414.265 145.72Z" fill="white"/>
<path fill-rule="evenodd" clip-rule="evenodd" d="M390.367 120.609C391.478 120.609 392.379 121.485 392.379 122.566L392.379 129.002C393.522 129.687 394.286 130.937 394.286 132.366C394.286 134.53 392.531 136.285 390.367 136.285C388.202 136.285 386.448 134.53 386.448 132.366C386.448 130.937 387.212 129.687 388.354 129.002L388.354 122.566C388.354 121.498 389.234 120.629 390.328 120.609L390.367 120.609Z" fill="#9254DC"/>
<path fill-rule="evenodd" clip-rule="evenodd" d="M210.334 250.025C199.076 255.215 170.961 271.884 182.073 302.119C190.958 326.298 214.523 327.824 231.462 324.445C260.73 318.607 301.722 296.619 331.81 280.322C331.81 280.322 366.589 262.943 350.382 230.929C336.666 203.839 306.82 216.007 306.82 216.007C306.82 216.007 223.205 244.091 210.334 250.025Z" fill="#FFC2BD"/>
<path fill-rule="evenodd" clip-rule="evenodd" d="M260.487 231.483C248.254 235.545 214.503 248.456 210.447 250.324C199.184 255.511 171.127 272.297 182.834 303.791C192.194 328.974 206.743 341.386 223.761 338.171C235.494 335.954 278.13 311.172 290.614 305.919L260.487 231.483Z" fill="#597EF7"/>
<path d="M260.284 231.502C260.585 231.378 260.924 231.494 261.09 231.761L261.138 231.856L291.265 304.59C291.403 304.923 291.245 305.305 290.911 305.444C290.611 305.568 290.272 305.452 290.106 305.185L290.058 305.09L259.931 232.356C259.793 232.023 259.951 231.64 260.284 231.502Z" fill="#253368"/>
<path fill-rule="evenodd" clip-rule="evenodd" d="M219.274 152.706C244.969 167.276 307.537 192.002 338.88 217.672C338.88 217.672 368.815 242.562 344.512 270.711C320.814 298.155 287.356 268.545 287.356 268.545C251.596 236.034 214.978 199.233 194.411 181.789C194.411 181.789 183.844 171.9 192.973 156.334C203.805 137.863 219.274 152.706 219.274 152.706Z" fill="#FFC2BD"/>
<path fill-rule="evenodd" clip-rule="evenodd" d="M219.899 152.743C219.899 152.743 184.54 107.74 148.109 124.349C120.954 136.729 138.772 171.456 152.013 174.958C165.253 178.458 192.575 181.674 200.613 184.352C208.886 187.109 225.256 154.35 219.899 152.743Z" fill="#FFC2BD"/>
<path d="M170.979 134.448C177.711 132.611 189.123 140.993 192.53 151.109L192.651 151.48C193.81 155.149 195.77 158.096 198.309 160.406C199.797 161.76 201.393 162.812 202.987 163.596C203.543 163.87 204.058 164.09 204.518 164.261L205.005 164.431C205.031 164.439 205.054 164.445 205.072 164.451C205.412 164.547 205.609 164.9 205.513 165.24C205.417 165.579 205.064 165.776 204.724 165.68L204.397 165.576C204.302 165.543 204.194 165.504 204.072 165.459C203.572 165.273 203.018 165.036 202.423 164.743C200.726 163.908 199.031 162.791 197.449 161.351C194.871 159.006 192.853 156.041 191.605 152.391L191.432 151.864C188.371 142.176 177.381 134.025 171.315 135.681C170.975 135.774 170.623 135.573 170.531 135.233C170.438 134.893 170.638 134.541 170.979 134.448Z" fill="#D18888"/>
<path fill-rule="evenodd" clip-rule="evenodd" d="M216.679 734.39C233.779 731.987 244.298 716.827 242.737 699.63L227.37 530.442C225.266 507.268 207.577 490.093 184.532 493.332C161.488 496.57 145.84 518.427 150.203 541.285L178.678 708.63C181.916 725.592 199.58 736.793 216.679 734.39Z" fill="#4E5C93"/>
<path fill-rule="evenodd" clip-rule="evenodd" d="M115.273 734.586C98.0045 734.586 85.4783 721.035 84.6331 703.789L76.3108 534.109C75.1708 510.866 90.299 491.4 113.569 491.4C136.839 491.4 155.377 510.866 154.237 534.109L149.321 703.789C148.476 721.035 132.541 734.586 115.273 734.586Z" fill="#4E5C93"/>
<path fill-rule="evenodd" clip-rule="evenodd" d="M121.824 180.69C121.824 180.69 115.899 162.123 107.561 170.183C99.2233 178.243 107.633 197.24 117.69 198.248C127.748 199.257 121.824 180.69 121.824 180.69Z" fill="#FFC2BD"/>
<path d="M108.344 176.048C108.877 174.339 110.309 173.673 112.389 174.822C115.58 176.583 115.585 179.1 113.813 183.507C112.839 185.931 113.51 187.465 115.775 188.253C116.15 188.383 116.348 188.793 116.218 189.168C116.087 189.543 115.677 189.742 115.302 189.611C112.337 188.579 111.262 186.28 112.378 183.234L112.719 182.356C113.998 178.972 113.874 177.284 111.694 176.081C110.445 175.391 109.989 175.603 109.716 176.477C109.622 176.778 109.578 177.096 109.566 177.355L109.557 177.644C109.514 177.991 109.222 178.265 108.861 178.273C108.5 178.282 108.195 178.023 108.135 177.678L108.124 177.555C108.119 177.136 108.172 176.596 108.344 176.048Z" fill="#D18888"/>
<path fill-rule="evenodd" clip-rule="evenodd" d="M180.867 183.489C180.867 183.489 188.522 165.566 196.06 174.378C203.597 183.191 193.429 201.306 183.321 201.359C173.213 201.412 180.867 183.489 180.867 183.489Z" fill="#FFC2BD"/>
<path d="M190.813 178.54C192.949 177.612 194.311 178.36 194.707 180.062C194.8 180.459 194.832 180.863 194.825 181.243L194.813 181.523C194.808 181.592 194.804 181.641 194.799 181.679C194.752 182.073 194.394 182.355 194 182.308C193.642 182.265 193.376 181.966 193.366 181.615L193.378 181.425C193.4 181.097 193.385 180.724 193.307 180.388C193.108 179.537 192.675 179.299 191.386 179.859C189.099 180.853 188.818 182.528 189.777 186.025L189.954 186.643C190.926 189.925 189.652 192.219 186.515 192.987C186.129 193.081 185.74 192.845 185.645 192.459C185.551 192.073 185.787 191.684 186.173 191.59C188.425 191.039 189.26 189.651 188.644 187.298L188.397 186.43C187.256 182.27 187.626 179.925 190.813 178.54Z" fill="#D18888"/>
<path fill-rule="evenodd" clip-rule="evenodd" d="M118.652 238.19L120.356 203.694C121.177 187.025 135.341 174.168 152.013 174.959C168.293 175.729 181.037 189.256 180.839 205.553L180.422 240.107C180.214 257.223 165.863 270.762 148.763 269.971L147.478 269.911C130.747 269.138 117.827 254.918 118.652 238.19Z" fill="#FFC2BD"/>
<path fill-rule="evenodd" clip-rule="evenodd" d="M185.554 181.219C185.15 188.174 184.608 198.051 182.753 204.862C181.589 209.128 173.73 217.884 165.539 223.498C161.301 226.404 156.645 226.44 150.523 226.15C145.784 225.925 140.193 225.167 135.552 222.798C128.275 219.085 118.854 205.196 118.271 202.285C117.019 196.028 116.099 186.985 116.586 178.749C118.847 140.554 134.456 134.607 153.732 135.52C173.007 136.435 187.762 143.26 185.554 181.219Z" fill="#FFC2BD"/>
<path fill-rule="evenodd" clip-rule="evenodd" d="M184.809 184.79C184.825 185.134 185.327 185.159 185.363 184.819C186.19 177.026 187.987 158.723 187.396 152.487C186.916 147.421 182.475 139.766 177.066 132.304C171.654 124.843 167.091 124.866 165.472 128.632C164.136 126.409 154.355 114.896 151.297 118.594C148.241 122.292 137.847 128.765 137.847 128.765C137.847 128.765 137.094 124.405 134.037 128.102C130.978 131.8 123.336 138.819 120.347 143.306C116.053 149.75 116.252 171.284 116.521 180.003C116.533 180.38 117.077 180.409 117.131 180.037C117.837 175.143 119.382 166.811 121.995 164.277C124.767 161.527 123.337 148.537 126.646 147.206C132.522 144.843 169.194 145.86 176.93 149.828C180.406 151.613 178.833 164.439 180.701 167.059C184.184 171.943 184.513 177.902 184.809 184.79Z" fill="#253368"/>
<path d="M160.579 166.417L174.492 167.857C174.751 167.884 174.997 167.981 175.204 168.135L175.324 168.235L178.81 171.479C179.392 172.021 179.425 172.931 178.883 173.513C178.378 174.056 177.551 174.121 176.97 173.687L176.85 173.586L173.716 170.669L160.282 169.28C159.541 169.203 158.99 168.577 158.991 167.848L158.999 167.7C159.076 166.959 159.702 166.408 160.431 166.409L160.579 166.417Z" fill="#253368"/>
<path fill-rule="evenodd" clip-rule="evenodd" d="M116.774 188.286C116.774 188.286 125.72 193.267 130.218 201.05C136.051 192.841 144.166 190.545 144.166 190.545C144.166 190.545 148.455 194.63 152.416 195.458C153.843 193.904 158.069 191.084 158.069 191.084C158.069 191.084 168.1 195.356 172.866 203.153C175.281 197.859 184.421 192.452 184.421 192.452C184.421 192.452 185.166 200.035 182.131 207.834C178.414 217.389 168.071 227.461 152.059 226.703C133.088 225.803 120.858 217.218 118.466 204.936C117.961 201.1 116.632 191.281 116.774 188.286Z" fill="#EFADAB"/>
<path d="M123.257 213.803C123.527 213.575 123.93 213.608 124.158 213.877C125.137 215.034 126.195 216.125 127.319 217.153C129.596 219.235 132.038 220.963 134.479 222.356C135.19 222.762 135.859 223.114 136.472 223.414L136.833 223.588C137.194 223.758 137.465 223.878 137.628 223.945L137.871 224.038C138.078 224.111 138.39 224.213 138.807 224.338C139.742 224.617 140.849 224.897 142.124 225.159C147.601 226.283 154.203 226.716 161.746 226.059C167.477 224.97 172.413 221.444 176.539 216.331C176.761 216.056 177.163 216.013 177.438 216.235C177.712 216.457 177.755 216.859 177.534 217.134C173.233 222.462 168.056 226.161 161.921 227.324C154.188 228 147.462 227.559 141.867 226.411C140.555 226.141 139.411 225.852 138.441 225.562L137.963 225.415C137.889 225.391 137.817 225.368 137.749 225.345L137.233 225.164L137.046 225.087C136.861 225.008 136.606 224.894 136.287 224.743C135.549 224.395 134.729 223.97 133.846 223.466C131.327 222.029 128.809 220.246 126.457 218.096C125.293 217.033 124.198 215.902 123.183 214.703C122.955 214.434 122.988 214.031 123.257 213.803Z" fill="#D18888"/>
<path d="M145.834 167.722C146.136 167.622 146.459 167.758 146.602 168.031L146.643 168.127L148.561 173.883C148.603 174.008 148.605 174.142 148.567 174.269L147.828 176.75L147.164 178.997L146.05 182.827C145.086 186.177 144.389 188.714 144.06 190.11L144.024 190.26L151.501 194.477L156.866 191.33C157.136 191.172 157.476 191.234 157.673 191.464L157.74 191.558C157.899 191.829 157.836 192.168 157.606 192.366L157.512 192.433L151.831 195.766C151.668 195.862 151.472 195.879 151.296 195.817L151.194 195.771L142.986 191.141C142.744 191.005 142.618 190.729 142.673 190.458L142.737 190.16C142.941 189.243 143.345 187.71 143.914 185.673L144.973 181.951L145.61 179.756L147.285 174.094L145.43 168.531C145.33 168.229 145.466 167.906 145.739 167.763L145.834 167.722Z" fill="#D18888"/>
<path fill-rule="evenodd" clip-rule="evenodd" d="M162.126 198.43C150.928 198.219 140.386 196.825 140.386 196.825C140.386 196.825 142.667 203.591 150.974 203.987C159.282 204.38 162.126 198.43 162.126 198.43Z" fill="white"/>
<path d="M139.295 197.193C139.647 198.238 140.459 199.728 141.882 201.212C144.083 203.506 147.075 204.954 150.92 205.137C154.955 205.328 158.161 204.16 160.578 202.092C161.935 200.931 162.767 199.758 163.164 198.926C163.524 198.172 162.986 197.297 162.151 197.279L161.219 197.259C156.973 197.154 152.558 196.882 148.179 196.494L146.702 196.359C145.736 196.267 144.808 196.173 143.925 196.079L142.291 195.897L140.537 195.684C139.692 195.572 139.023 196.385 139.295 197.193ZM142.515 198.365L142.423 198.229L144.357 198.439C145.5 198.558 146.71 198.675 147.976 198.787L149.636 198.929C152.96 199.2 156.29 199.402 159.545 199.513L159.929 199.524L159.68 199.787C159.494 199.975 159.294 200.161 159.082 200.343C157.099 202.039 154.461 203 151.029 202.837C147.794 202.683 145.349 201.5 143.544 199.618C143.156 199.214 142.814 198.793 142.515 198.365Z" fill="#D18888"/>
<path d="M148.212 209.014L154.682 209.321C155.035 209.338 155.307 209.637 155.29 209.989C155.275 210.307 155.031 210.559 154.726 210.594L154.622 210.597L148.152 210.291C147.799 210.274 147.527 209.975 147.544 209.622C147.559 209.305 147.803 209.053 148.108 209.018L148.212 209.014Z" fill="#D18888"/>
<path d="M150.872 218.801C151.189 218.816 151.441 219.06 151.477 219.365L151.48 219.469L151.161 226.18C151.145 226.532 150.845 226.804 150.493 226.787C150.175 226.772 149.923 226.528 149.888 226.223L149.885 226.119L150.203 219.409C150.22 219.056 150.519 218.784 150.872 218.801Z" fill="#D18888"/>
<path fill-rule="evenodd" clip-rule="evenodd" d="M143.642 209.172C143.564 209.537 143.205 209.769 142.84 209.69C142.475 209.612 142.243 209.252 142.322 208.888C142.4 208.523 142.76 208.291 143.124 208.37C143.489 208.448 143.721 208.808 143.642 209.172Z" fill="#D18888"/>
<path fill-rule="evenodd" clip-rule="evenodd" d="M137.834 209.333C137.756 209.698 137.396 209.929 137.031 209.851C136.667 209.773 136.435 209.413 136.513 209.048C136.592 208.685 136.951 208.452 137.316 208.53C137.681 208.611 137.912 208.968 137.834 209.333Z" fill="#D18888"/>
<path fill-rule="evenodd" clip-rule="evenodd" d="M170.348 213.084C170.46 213.438 170.266 213.82 169.91 213.932C169.555 214.045 169.175 213.849 169.061 213.494C168.949 213.14 169.143 212.76 169.499 212.646C169.854 212.533 170.235 212.729 170.348 213.084Z" fill="#D18888"/>
<path fill-rule="evenodd" clip-rule="evenodd" d="M176.83 210.159C176.943 210.514 176.747 210.895 176.392 211.008C176.038 211.12 175.658 210.924 175.544 210.57C175.431 210.215 175.625 209.835 175.982 209.721C176.336 209.609 176.718 209.805 176.83 210.159Z" fill="#D18888"/>
<path fill-rule="evenodd" clip-rule="evenodd" d="M164.762 214.788C164.874 215.142 164.68 215.524 164.324 215.636C163.969 215.749 163.589 215.553 163.475 215.198C163.363 214.844 163.557 214.464 163.913 214.35C164.268 214.237 164.649 214.433 164.762 214.788Z" fill="#D18888"/>
<path fill-rule="evenodd" clip-rule="evenodd" d="M158.551 217.175C158.665 217.529 158.469 217.909 158.113 218.023C157.758 218.136 157.378 217.94 157.264 217.586C157.152 217.229 157.348 216.851 157.702 216.737C158.058 216.623 158.438 216.82 158.551 217.175Z" fill="#D18888"/>
<path fill-rule="evenodd" clip-rule="evenodd" d="M130.108 206.187C130.221 206.542 130.025 206.923 129.67 207.036C129.316 207.148 128.936 206.954 128.822 206.598C128.707 206.243 128.903 205.863 129.26 205.749C129.614 205.637 129.996 205.833 130.108 206.187Z" fill="#D18888"/>
<path fill-rule="evenodd" clip-rule="evenodd" d="M142.542 216.499C142.464 216.864 142.104 217.096 141.74 217.017C141.375 216.939 141.143 216.579 141.222 216.215C141.3 215.852 141.66 215.618 142.024 215.697C142.389 215.775 142.621 216.135 142.542 216.499Z" fill="#D18888"/>
<path fill-rule="evenodd" clip-rule="evenodd" d="M147.825 215.701C147.746 216.066 147.387 216.298 147.022 216.219C146.657 216.141 146.426 215.782 146.504 215.417C146.582 215.054 146.942 214.82 147.307 214.899C147.671 214.977 147.903 215.337 147.825 215.701Z" fill="#D18888"/>
<path fill-rule="evenodd" clip-rule="evenodd" d="M168.871 218.519C168.793 218.884 168.435 219.116 168.069 219.038C167.704 218.959 167.474 218.6 167.552 218.235C167.629 217.87 167.989 217.639 168.353 217.717C168.718 217.795 168.95 218.155 168.871 218.519Z" fill="#D18888"/>
<path fill-rule="evenodd" clip-rule="evenodd" d="M165.902 210.393C165.823 210.757 165.464 210.989 165.099 210.911C164.735 210.832 164.503 210.473 164.581 210.108C164.66 209.745 165.019 209.512 165.384 209.59C165.748 209.67 165.98 210.028 165.902 210.393Z" fill="#D18888"/>
<path fill-rule="evenodd" clip-rule="evenodd" d="M168.649 203.764C168.571 204.129 168.211 204.361 167.847 204.282C167.482 204.204 167.25 203.844 167.329 203.48C167.407 203.117 167.767 202.883 168.131 202.962C168.496 203.04 168.728 203.4 168.649 203.764Z" fill="#D18888"/>
<path fill-rule="evenodd" clip-rule="evenodd" d="M136.969 213.506C136.891 213.87 136.533 214.102 136.167 214.024C135.802 213.945 135.571 213.586 135.651 213.221C135.727 212.858 136.087 212.625 136.451 212.703C136.816 212.783 137.048 213.141 136.969 213.506Z" fill="#D18888"/>
<path d="M166.912 174.213C169.199 174.322 170.821 176.756 170.689 179.554C170.666 180.024 170.267 180.387 169.797 180.364C169.327 180.342 168.964 179.943 168.987 179.473C169.079 177.523 168.046 175.973 166.83 175.915C165.616 175.857 164.44 177.303 164.348 179.254C164.326 179.724 163.927 180.087 163.457 180.064C162.987 180.042 162.624 179.643 162.646 179.173C162.774 176.459 164.515 174.242 166.705 174.21L166.912 174.213Z" fill="#253368"/>
<path d="M135.964 172.359C138.25 172.468 139.873 174.903 139.741 177.7C139.719 178.17 139.32 178.533 138.85 178.511C138.38 178.488 138.017 178.089 138.039 177.619C138.131 175.67 137.097 174.119 135.883 174.061C134.668 174.005 133.493 175.449 133.4 177.4C133.378 177.87 132.979 178.233 132.509 178.211C132.039 178.188 131.676 177.789 131.698 177.319C131.827 174.606 133.566 172.39 135.757 172.356L135.964 172.359Z" fill="#253368"/>
<path d="M130.645 164.491L130.817 164.497L146.171 165.936C146.962 166.011 147.543 166.712 147.469 167.504C147.399 168.245 146.778 168.803 146.049 168.808L145.902 168.802L130.989 167.402L127.4 169.38C126.747 169.739 125.937 169.538 125.523 168.938L125.445 168.813C125.086 168.16 125.286 167.35 125.887 166.936L126.012 166.858L129.989 164.669C130.191 164.557 130.416 164.497 130.645 164.491Z" fill="#253368"/>
<path fill-rule="evenodd" clip-rule="evenodd" d="M248.43 268.457C248.388 264.399 245.975 260.729 242.258 259.103C231.07 254.204 223.342 238.096 178.182 242.535C169.718 243.367 160.292 267.503 151.402 267.946C145.389 268.244 129.512 242.292 124.463 242.955C97.8093 246.455 74.5189 250.024 56.9403 258.151C51.3614 260.729 48.0369 266.541 48.7611 272.645C51.4006 294.862 63.77 355.157 91.0222 417.614C91.0222 417.614 79.9632 436.951 96.9641 439.953C211.281 439.953 208.872 439.446 208.872 439.446C208.872 439.446 217.843 434.446 212.508 417.783C212.508 417.783 248.935 317.502 248.43 268.457Z" fill="#597EF7"/>
<path fill-rule="evenodd" clip-rule="evenodd" d="M107.582 247.793L117.386 230.791L136.103 234.199L149.372 264.48L163.766 235.742L182.681 230.837L189.434 248.12C189.434 248.12 182.851 271.733 149.59 271.733C116.323 271.733 107.582 247.793 107.582 247.793Z" fill="#597EF7"/>
<path d="M108.843 247.312C109.109 247.068 109.522 247.085 109.766 247.351L110.067 247.661C110.137 247.732 110.218 247.812 110.309 247.9C110.768 248.348 111.313 248.848 111.942 249.388C113.743 250.933 115.85 252.48 118.242 253.924C121.087 255.641 124.148 257.095 127.408 258.203C127.75 258.319 127.933 258.69 127.817 259.032C127.701 259.373 127.329 259.556 126.988 259.44C123.635 258.301 120.489 256.807 117.567 255.043C115.109 253.56 112.945 251.97 111.091 250.38C110.571 249.933 110.104 249.512 109.694 249.122L109.396 248.836C109.106 248.553 108.908 248.348 108.804 248.235C108.56 247.97 108.577 247.556 108.843 247.312Z" fill="#253368"/>
<path d="M189.94 247.708C190.168 247.988 190.126 248.399 189.846 248.627L189.169 249.169L188.119 249.99C187.87 250.183 187.61 250.383 187.341 250.588C185.415 252.057 183.391 253.525 181.362 254.896C180.08 255.762 178.836 256.563 177.641 257.284C173.994 259.485 170.982 260.855 168.765 261.171C168.408 261.222 168.077 260.974 168.026 260.617C167.975 260.259 168.223 259.928 168.581 259.877C170.575 259.592 173.46 258.281 176.966 256.165C178.14 255.456 179.366 254.668 180.631 253.813C182.637 252.457 184.641 251.003 186.548 249.549L187.319 248.957C187.566 248.766 187.803 248.581 188.028 248.404L189.02 247.614C189.3 247.386 189.712 247.428 189.94 247.708Z" fill="#253368"/>
<path d="M149.372 263.827C149.697 263.827 149.966 264.064 150.017 264.374L150.025 264.48V298.906C150.025 299.267 149.733 299.56 149.372 299.56C149.047 299.56 148.777 299.323 148.727 299.013L148.718 298.906V264.48C148.718 264.119 149.011 263.827 149.372 263.827Z" fill="#253368"/>
<path d="M241.487 315.319C241.843 315.375 242.087 315.71 242.031 316.066L241.765 317.674L241.496 319.232C241.4 319.78 241.297 320.357 241.188 320.961L240.961 322.205C240.064 327.082 238.973 332.516 237.686 338.367C234.008 355.087 229.488 371.807 224.09 387.417C220.354 398.222 216.32 408.112 211.981 416.887L211.529 417.793L211.614 417.975C215.702 426.898 214.943 433.391 211.098 437.728L210.893 437.955C210.143 438.763 209.34 439.419 208.535 439.937C208.046 440.252 207.659 440.453 207.423 440.553C207.369 440.576 207.313 440.592 207.255 440.6L207.167 440.606H96.9638L96.8121 440.588L96.4879 440.499L96.3719 440.463C96.0378 440.36 95.6672 440.229 95.2691 440.068C94.134 439.61 92.9992 439.001 91.9371 438.221C86.5138 434.238 85.0895 427.682 89.9789 418.186L90.282 417.608L89.9459 416.956C85.3229 407.931 81.0717 397.259 77.1818 385.266L76.7664 383.976C72.2994 370.004 68.5423 355.039 65.4703 340.074L64.9856 337.683C64.1181 333.352 63.3666 329.301 62.7291 325.608L62.2009 322.465L61.8299 320.113C61.777 319.756 62.0236 319.424 62.3806 319.371C62.7376 319.318 63.0699 319.564 63.1228 319.921L63.3444 321.346L63.5696 322.735C63.7037 323.549 63.8528 324.434 64.0171 325.385L64.375 327.429C65.0521 331.239 65.8433 335.391 66.7506 339.811C69.8138 354.733 73.56 369.655 78.0113 383.578C82.1303 396.462 86.6581 407.843 91.6012 417.312C91.7021 417.505 91.7 417.736 91.5956 417.927C86.4598 427.34 87.6597 433.458 92.7108 437.168C93.6786 437.879 94.7188 438.436 95.7586 438.856C96.1217 439.003 96.458 439.122 96.7582 439.215L97.0469 439.298H207.024L207.093 439.265C207.238 439.192 207.428 439.087 207.653 438.948L207.828 438.838C208.545 438.377 209.264 437.789 209.935 437.066C213.651 433.059 214.4 426.918 210.213 418.062C210.127 417.88 210.129 417.669 210.22 417.489C214.757 408.477 218.967 398.235 222.855 386.99C228.234 371.433 232.741 354.76 236.41 338.087C237.608 332.64 238.635 327.556 239.494 322.949L239.902 320.729C240.011 320.127 240.113 319.553 240.209 319.007L240.74 315.864C240.79 315.543 241.066 315.313 241.381 315.311L241.487 315.319Z" fill="#253368"/>
<path fill-rule="evenodd" clip-rule="evenodd" d="M76.4043 536.8L141.029 569.404L165.579 568.926L227.056 535.36C227.056 535.36 225.616 495.059 209.189 453.777C206.308 445.855 205.546 441.636 205.546 441.636C205.546 441.636 140.581 444.518 95.3563 444.518L92.2107 457.48C92.2107 457.48 76.8201 495.539 76.4043 536.8Z" fill="#4E5C93"/>
<path fill-rule="evenodd" clip-rule="evenodd" d="M92.7202 457.661C149.162 457.661 208.852 454.662 208.852 454.662L206.691 439.268C206.691 439.268 136.687 440.174 93.9812 440.174C92.9911 447.556 92.7202 457.661 92.7202 457.661Z" fill="#253368"/>
<path d="M171.799 455.803C172.328 455.77 172.783 456.172 172.816 456.701L172.978 459.483L173.164 462.941C173.29 465.358 173.414 467.93 173.533 470.62L173.584 471.78C173.911 479.357 174.152 486.837 174.27 493.905L174.317 497.239C174.576 519.492 173.566 532.999 170.488 535.393C168.745 536.748 166.638 538.005 164.245 539.167C161.797 540.356 159.182 541.385 156.567 542.252L155.502 542.597C155.33 542.651 155.161 542.703 154.995 542.754L154.039 543.038C153.578 543.17 153.246 543.26 153.065 543.306C152.552 543.437 152.03 543.127 151.899 542.614C151.768 542.1 152.078 541.578 152.591 541.447L153.162 541.292L153.508 541.194C154.248 540.981 155.073 540.727 155.963 540.431C158.503 539.588 161.043 538.589 163.407 537.441C165.688 536.333 167.684 535.143 169.31 533.878C171.638 532.067 172.659 517.882 172.39 496.518L172.381 495.848C172.276 488.244 172.023 480.111 171.667 471.862L171.513 468.433C171.427 466.566 171.338 464.764 171.248 463.041L170.901 456.82C170.868 456.291 171.27 455.836 171.799 455.803Z" fill="#253368"/>
<path d="M194.407 454.266C194.932 454.197 195.414 454.568 195.482 455.093L195.551 455.572C195.584 455.78 195.625 456.035 195.676 456.333C195.846 457.334 196.064 458.45 196.332 459.653C197.1 463.088 198.124 466.522 199.434 469.719C203.602 479.892 209.573 485.286 217.705 483.725C218.225 483.625 218.728 483.966 218.828 484.487C218.928 485.007 218.587 485.51 218.067 485.61C208.801 487.388 202.131 481.363 197.658 470.447C196.303 467.14 195.25 463.605 194.46 460.072C194.23 459.042 194.036 458.073 193.876 457.181L193.699 456.143L193.587 455.399C193.584 455.376 193.582 455.357 193.579 455.341C193.511 454.816 193.881 454.334 194.407 454.266Z" fill="#253368"/>
<path d="M108.212 454.266C108.737 454.334 109.107 454.816 109.039 455.341L108.989 455.692C108.947 455.971 108.896 456.293 108.834 456.656C108.659 457.688 108.435 458.836 108.158 460.072C107.369 463.605 106.315 467.14 104.96 470.447L104.582 471.345C100.115 481.691 93.56 487.338 84.5517 485.61C84.0313 485.51 83.6905 485.007 83.7903 484.487C83.8902 483.966 84.3929 483.625 84.9133 483.725C93.0453 485.286 99.0162 479.892 103.185 469.719C104.495 466.522 105.518 463.088 106.286 459.653C106.51 458.651 106.698 457.709 106.854 456.843L107.041 455.737C107.087 455.448 107.118 455.231 107.136 455.093C107.2 454.608 107.615 454.255 108.091 454.258L108.212 454.266Z" fill="#253368"/>
<path d="M150.377 453.992C150.866 453.985 151.275 454.344 151.341 454.817L151.351 454.937L153.055 567.526C153.063 568.056 152.64 568.492 152.11 568.5C151.621 568.507 151.212 568.147 151.146 567.675L151.136 567.555L149.432 454.966C149.424 454.436 149.847 454 150.377 453.992Z" fill="#253368"/>
<path fill-rule="evenodd" clip-rule="evenodd" d="M169.248 455.562V440.185C169.248 438.176 167.716 436.531 165.777 436.473C159.346 436.281 144.908 435.582 131.944 437.225C130.136 437.455 128.917 439.559 128.917 441.444V455.902C128.917 457.969 130.538 459.639 132.537 459.614C139.886 459.523 156.626 459.324 165.692 459.275C167.665 459.263 169.248 457.605 169.248 455.562Z" fill="#E4EBF7"/>
<path fill-rule="evenodd" clip-rule="evenodd" d="M165.089 452.907L165.085 442.729C165.084 441.4 163.835 440.311 162.251 440.274C157.005 440.148 146.069 439.446 135.492 440.538C134.018 440.691 132.903 441.734 132.903 442.981L132.905 453.146C132.905 454.514 134.227 455.618 135.858 455.603C141.854 455.54 154.793 455.402 162.187 455.366C163.799 455.358 165.089 454.259 165.089 452.907Z" fill="#253368"/>
<path fill-rule="evenodd" clip-rule="evenodd" d="M132.294 439.167L166.34 454.362L164.934 457.456L130.605 441.98L132.294 439.167Z" fill="#E4EBF7"/>
<path fill-rule="evenodd" clip-rule="evenodd" d="M130.831 453.874L164.956 438.857L166.303 441.978L131.782 457.015L130.831 453.874Z" fill="#E4EBF7"/>
<path fill-rule="evenodd" clip-rule="evenodd" d="M61.9201 544.351C52.9843 515.196 25.7525 454.387 20.4564 412.896C20.4564 412.896 15.6647 372.989 53.8635 369.121C91.1081 365.349 95.1943 411.296 95.1943 411.296C98.9482 461.051 100.303 514.632 103.353 542.308C103.353 542.308 104.263 557.222 86.3726 562.421C65.1424 568.589 61.9201 544.351 61.9201 544.351Z" fill="#FFC2BD"/>
<path fill-rule="evenodd" clip-rule="evenodd" d="M110.928 304.029C111.896 291.669 110.935 258.987 77.7338 253.838C51.1819 249.721 37.8565 269.511 32.3594 285.935C22.8613 314.31 22.1524 360.826 21.7792 395.046C21.7792 395.046 20.0156 433.887 57.4169 435.465C89.0688 436.801 93.0869 404.817 93.0869 404.817C93.0869 404.817 109.822 318.157 110.928 304.029Z" fill="#FFC2BD"/>
<path fill-rule="evenodd" clip-rule="evenodd" d="M102.858 356.023C105.281 343.363 111.968 308.433 112.315 303.982C113.283 291.621 113.573 257.887 77.4172 253.791C50.7188 250.766 37.5383 269.464 32.0411 285.887C28.2531 297.21 24.4719 333.371 22.9673 346.831L102.858 356.023Z" fill="#597EF7"/>
<path d="M110.805 302.382C111.165 302.41 111.434 302.725 111.406 303.085L111.354 303.656C110.668 310.65 105.722 344.334 103.643 355.197C103.586 355.495 103.332 355.71 103.038 355.726L102.926 355.723L23.0354 346.532C22.6769 346.491 22.4196 346.166 22.4609 345.808C22.498 345.485 22.7642 345.245 23.0785 345.23L23.1848 345.233L102.471 354.355L102.695 353.139C104.944 340.656 109.505 309.452 110.072 303.336L110.103 302.982C110.131 302.623 110.445 302.354 110.805 302.382Z" fill="#253368"/>
<path fill-rule="evenodd" clip-rule="evenodd" d="M124.447 565.107C114.719 565.107 109.475 565.342 104.295 564.628C93.8003 563.179 97.2186 599.736 95.1806 605.408C92.0793 614.042 71.7879 610.68 63.4161 579.678C61.0356 570.859 60.8669 556.28 60.6113 543.571C60.6113 543.571 62.7856 517.152 78.0621 520.293C91.8151 523.118 97.0635 525.086 97.0635 525.086C97.0635 525.086 107.669 534.666 113.828 548.54L124.447 565.107Z" fill="#FFC2BD"/>
<path d="M198.186 185.164C198.401 184.935 198.744 184.899 198.999 185.063L199.09 185.134L289.019 269.193C289.276 269.434 289.29 269.838 289.049 270.096C288.835 270.325 288.492 270.361 288.237 270.197L288.146 270.126L198.217 186.068C197.959 185.827 197.945 185.422 198.186 185.164Z" fill="#D18888"/>
</g>
</svg>
