<svg width="581" height="429" viewBox="0 0 581 429" fill="none" xmlns="http://www.w3.org/2000/svg">
<path d="M494.117 44.2346H369.461C366.079 44.2346 363.338 46.9762 363.338 50.3582V224.568H474.697C474.697 243.27 490.69 256.339 509.423 256.243C527.834 256.15 542.896 240.543 542.896 222.134V92.774H510.392C505.208 92.774 494.117 81.425 494.117 76.2429V44.2346Z" fill="#E4EBF7"/>
<path d="M474.943 224.02H347.223C347.223 240.727 359.376 252.805 375.32 255.482L380.933 255.951L508.908 255.696C490.292 255.696 474.468 241.4 474.943 224.02Z" fill="#253368"/>
<path d="M418.248 60.5743H390.366C389.047 60.5743 387.978 61.6436 387.978 62.9625V90.8451C387.978 92.1641 389.047 93.2333 390.366 93.2333H418.248C419.567 93.2333 420.636 92.1641 420.636 90.8451V62.9625C420.636 61.6436 419.567 60.5743 418.248 60.5743Z" fill="#597EF7"/>
<path d="M508.004 109.308H390.31C388.991 109.308 387.921 110.377 387.921 111.696V115.084C387.921 116.403 388.991 117.472 390.31 117.472H508.004C509.323 117.472 510.392 116.403 510.392 115.084V111.696C510.392 110.377 509.323 109.308 508.004 109.308Z" fill="#597EF7"/>
<path d="M508.004 133.891H390.31C388.991 133.891 387.921 134.96 387.921 136.279V139.668C387.921 140.987 388.991 142.056 390.31 142.056H508.004C509.323 142.056 510.392 140.987 510.392 139.668V136.279C510.392 134.96 509.323 133.891 508.004 133.891Z" fill="#597EF7"/>
<path d="M508.004 158.475H390.31C388.991 158.475 387.921 159.544 387.921 160.863V164.251C387.921 165.57 388.991 166.639 390.31 166.639H508.004C509.323 166.639 510.392 165.57 510.392 164.251V160.863C510.392 159.544 509.323 158.475 508.004 158.475Z" fill="#597EF7"/>
<path opacity="0.6" d="M494.102 84.9639V91.3426C494.102 92.7133 494.672 94.0221 495.677 94.9546C496.681 95.8871 498.029 96.3589 499.396 96.2567L543.062 93.0087L494.102 84.9639Z" fill="#CCD7EE"/>
<path d="M519.412 68.54L494.048 44.079L494.114 90.9599C494.114 92.0872 495.028 93.0011 496.155 93.0011H543.062L519.412 68.54Z" fill="#FAAD14"/>
<path fill-rule="evenodd" clip-rule="evenodd" d="M89.966 349.906L78.6021 338.542L169.529 247.615L180.893 258.979L89.966 349.906Z" fill="#A3B5D6"/>
<path fill-rule="evenodd" clip-rule="evenodd" d="M263.358 267.605C206.773 267.605 160.903 221.734 160.903 165.15C160.903 108.566 206.773 62.695 263.358 62.695C319.942 62.695 365.813 108.566 365.813 165.15C365.813 221.734 319.942 267.605 263.358 267.605ZM263.358 28.5433C187.912 28.5433 126.751 89.704 126.751 165.15C126.751 240.596 187.912 301.757 263.358 301.757C338.804 301.757 399.965 240.596 399.965 165.15C399.965 89.704 338.804 28.5433 263.358 28.5433Z" fill="#597EF7"/>
<path fill-rule="evenodd" clip-rule="evenodd" d="M190.931 165.15C190.931 125.15 223.358 92.7228 263.358 92.7228C303.359 92.7228 335.786 125.15 335.786 165.15C335.786 205.151 303.359 237.578 263.358 237.578C223.358 237.578 190.931 205.151 190.931 165.15Z" fill="#597EF7"/>
<path fill-rule="evenodd" clip-rule="evenodd" d="M263.358 205.329C241.168 205.329 223.18 187.34 223.18 165.15C223.18 142.96 241.168 124.972 263.358 124.972C285.548 124.972 303.537 142.96 303.537 165.15C303.537 187.34 285.548 205.329 263.358 205.329Z" fill="white"/>
<path fill-rule="evenodd" clip-rule="evenodd" d="M45.9244 393.948L34.5605 382.584C31.4225 379.445 31.4225 374.357 34.5606 371.219L114.399 291.38C117.537 288.242 122.625 288.242 125.763 291.38C125.763 291.38 125.763 291.38 125.763 291.38L137.127 302.745C140.266 305.883 140.266 310.971 137.127 314.109L57.2885 393.948C54.1505 397.086 49.0625 397.086 45.9244 393.948C45.9244 393.948 45.9244 393.948 45.9244 393.948Z" fill="#597EF7"/>
</svg>
