<svg width="617" height="429" viewBox="0 0 617 429" fill="none" xmlns="http://www.w3.org/2000/svg">
<path fill-rule="evenodd" clip-rule="evenodd" d="M502.486 99.9278H142.177V75.079C142.177 69.6888 146.565 65.3185 151.977 65.3185H492.686C498.099 65.3185 502.486 69.6888 502.486 75.079V99.9278Z" fill="#253368"/>
<path fill-rule="evenodd" clip-rule="evenodd" d="M167.442 81.5678C167.442 84.9507 164.705 87.6934 161.329 87.6934C157.954 87.6934 155.218 84.9507 155.218 81.5678C155.218 78.185 157.954 75.4423 161.329 75.4423C164.705 75.4423 167.442 78.185 167.442 81.5678Z" fill="#FF7946"/>
<path fill-rule="evenodd" clip-rule="evenodd" d="M190.262 81.5678C190.262 84.9507 187.526 87.6934 184.15 87.6934C180.775 87.6934 178.039 84.9507 178.039 81.5678C178.039 78.185 180.775 75.4423 184.15 75.4423C187.526 75.4423 190.262 78.185 190.262 81.5678Z" fill="#FAAD14"/>
<path fill-rule="evenodd" clip-rule="evenodd" d="M213.084 81.5678C213.084 84.9507 210.347 87.6934 206.972 87.6934C203.596 87.6934 200.86 84.9507 200.86 81.5678C200.86 78.185 203.596 75.4423 206.972 75.4423C210.347 75.4423 213.084 78.185 213.084 81.5678Z" fill="#7CB305"/>
<path fill-rule="evenodd" clip-rule="evenodd" d="M152.728 339.468C146.701 339.468 141.814 335.104 141.814 329.721V97.6332H502.143V329.721C502.143 335.104 497.257 339.468 491.229 339.468H152.728Z" fill="#E4EBF7"/>
<path d="M473.99 115.43H168.814C166.412 115.43 164.465 117.377 164.465 119.779V314.937C164.465 317.339 166.412 319.286 168.814 319.286H473.99C476.392 319.286 478.339 317.339 478.339 314.937V119.779C478.339 117.377 476.392 115.43 473.99 115.43Z" fill="white"/>
<path d="M314.93 144.552H201.677C197.209 144.552 193.587 148.174 193.587 152.642C193.587 157.11 197.209 160.732 201.677 160.732H314.93C319.398 160.732 323.02 157.11 323.02 152.642C323.02 148.174 319.398 144.552 314.93 144.552Z" fill="#FF7946"/>
<path d="M412.005 241.627H201.677C197.209 241.627 193.587 245.249 193.587 249.716C193.587 254.184 197.209 257.806 201.677 257.806H412.005C416.472 257.806 420.094 254.184 420.094 249.716C420.094 245.249 416.472 241.627 412.005 241.627Z" fill="#ADC6FF"/>
<path d="M379.647 273.985H201.677C197.209 273.985 193.587 277.607 193.587 282.075C193.587 286.542 197.209 290.164 201.677 290.164H379.647C384.114 290.164 387.736 286.542 387.736 282.075C387.736 277.607 384.114 273.985 379.647 273.985Z" fill="#7CB305"/>
<path d="M347.288 209.269H201.677C197.209 209.269 193.587 212.89 193.587 217.358C193.587 221.826 197.209 225.448 201.677 225.448H347.288C351.756 225.448 355.378 221.826 355.378 217.358C355.378 212.89 351.756 209.269 347.288 209.269Z" fill="#FAAD14"/>
<path d="M444.363 176.911H201.677C197.209 176.911 193.587 180.532 193.587 185C193.587 189.468 197.209 193.09 201.677 193.09H444.363C448.831 193.09 452.452 189.468 452.452 185C452.452 180.532 448.831 176.911 444.363 176.911Z" fill="#597EF7"/>
<path d="M58.2119 102.198H106.784C124.984 102.198 139.737 116.952 139.737 135.152C139.737 153.352 124.984 168.105 106.784 168.105H58.2119C40.0123 168.105 25.2585 153.352 25.2585 135.152C25.2585 116.952 40.0123 102.198 58.2119 102.198Z" fill="#4E5C93"/>
<path fill-rule="evenodd" clip-rule="evenodd" d="M123.861 158.52V175.771C123.861 176.53 123.247 177.144 122.488 177.144C122.133 177.144 121.791 177.006 121.535 176.759L108.858 164.527L123.861 158.52Z" fill="#4E5C93"/>
<path d="M104.552 139.271C101.614 139.271 99.2318 136.889 99.2318 133.95C99.2318 131.012 101.614 128.63 104.552 128.63C107.491 128.63 109.873 131.012 109.873 133.95C109.873 136.889 107.491 139.271 104.552 139.271Z" fill="white"/>
<path d="M82.7551 139.271C79.8166 139.271 77.4345 136.889 77.4345 133.95C77.4345 131.012 79.8166 128.63 82.7551 128.63C85.6936 128.63 88.0757 131.012 88.0757 133.95C88.0757 136.889 85.6936 139.271 82.7551 139.271Z" fill="white"/>
<path d="M60.4431 139.271C57.5046 139.271 55.1225 136.889 55.1225 133.95C55.1225 131.012 57.5046 128.63 60.4431 128.63C63.3816 128.63 65.7637 131.012 65.7637 133.95C65.7637 136.889 63.3816 139.271 60.4431 139.271Z" fill="white"/>
<path fill-rule="evenodd" clip-rule="evenodd" d="M95.2617 300.501C95.2617 303.2 93.0741 305.387 90.3756 305.387C87.6772 305.387 85.4893 303.2 85.4893 300.501C85.4893 297.803 87.6772 295.615 90.3756 295.615C93.0741 295.615 95.2617 297.803 95.2617 300.501Z" fill="#253368"/>
<path fill-rule="evenodd" clip-rule="evenodd" d="M89.4585 344.477H91.3499V301.96H89.4585V344.477Z" fill="#253368"/>
<path fill-rule="evenodd" clip-rule="evenodd" d="M89.4588 344.477L67.43 348.146L66.0083 347.119L89.4588 340.212V344.477Z" fill="#253368"/>
<path fill-rule="evenodd" clip-rule="evenodd" d="M91.3501 344.477L113.379 348.146L114.8 347.119L91.3501 340.212V344.477Z" fill="#253368"/>
<path fill-rule="evenodd" clip-rule="evenodd" d="M88.9038 349.409H91.9049V343.249H88.9038V349.409Z" fill="#253368"/>
<path fill-rule="evenodd" clip-rule="evenodd" d="M69.4939 349.491C69.4939 350.898 68.3535 352.038 66.947 352.038C65.5403 352.038 64.3999 350.898 64.3999 349.491C64.3999 348.085 65.5403 346.944 66.947 346.944C68.3535 346.944 69.4939 348.085 69.4939 349.491Z" fill="#253368"/>
<path fill-rule="evenodd" clip-rule="evenodd" d="M92.9515 349.491C92.9515 350.898 91.811 352.038 90.4043 352.038C88.9978 352.038 87.8574 350.898 87.8574 349.491C87.8574 348.085 88.9978 346.944 90.4043 346.944C91.811 346.944 92.9515 348.085 92.9515 349.491Z" fill="#253368"/>
<path fill-rule="evenodd" clip-rule="evenodd" d="M116.632 349.491C116.632 350.898 115.491 352.038 114.084 352.038C112.678 352.038 111.538 350.898 111.538 349.491C111.538 348.085 112.678 346.944 114.084 346.944C115.491 346.944 116.632 348.085 116.632 349.491Z" fill="#253368"/>
<path fill-rule="evenodd" clip-rule="evenodd" d="M121.004 299.604H59.7476C59.7476 293.583 64.6281 288.703 70.6488 288.703H110.102C116.123 288.703 121.004 293.583 121.004 299.604Z" fill="#A3B5D6"/>
<path fill-rule="evenodd" clip-rule="evenodd" d="M113.724 255.406C113.724 255.406 113.231 263.596 105.737 263.018C98.0947 262.428 98.9164 254.161 98.9164 254.161C98.9164 254.161 98.5448 249.023 99.0776 242.112C99.4943 236.713 100.134 229.661 100.73 226.231C101.373 222.53 104.783 220.088 108.293 220.358C113.629 220.77 115.438 225.068 115.32 228.804C115.205 232.436 115.033 238.413 114.817 242.414C114.404 250.107 113.724 255.406 113.724 255.406Z" fill="#ADC6FF"/>
<path fill-rule="evenodd" clip-rule="evenodd" d="M130.456 265.395C131.358 268.763 138.859 267.62 138.859 267.62L142.536 270.613C143.118 271.016 143.368 270.623 143.685 270.695C144.539 270.89 144.743 269.993 144.743 269.993C145.07 269.92 145.492 270.253 145.805 269.471C145.805 269.471 146.414 269.564 146.621 268.848C146.699 268.581 145.525 264.975 144.825 262.865C144.517 261.938 143.715 261.264 142.749 261.119L133.772 259.768C133.772 259.768 129.243 260.865 130.456 265.395Z" fill="#C99382"/>
<path d="M138.308 265.269C138.205 265.225 138.087 265.273 138.043 265.376C138.004 265.467 138.037 265.571 138.117 265.623L138.149 265.64L140.801 266.772L143.449 270.418C143.507 270.498 143.613 270.523 143.699 270.481L143.731 270.462C143.811 270.404 143.836 270.298 143.794 270.212L143.775 270.18L141.095 266.49C141.081 266.47 141.063 266.454 141.043 266.44L141.011 266.423L138.308 265.269Z" fill="#9B6160"/>
<path d="M140.111 264.157C140.014 264.102 139.89 264.136 139.836 264.233C139.787 264.32 139.809 264.427 139.882 264.488L139.912 264.508L142.346 265.88L144.505 269.654C144.554 269.74 144.657 269.776 144.747 269.744L144.78 269.729C144.866 269.68 144.902 269.577 144.87 269.486L144.855 269.453L142.67 265.631C142.658 265.61 142.642 265.592 142.623 265.576L142.593 265.556L140.111 264.157Z" fill="#9B6160"/>
<path d="M141.858 263.128C141.77 263.059 141.643 263.074 141.574 263.161C141.512 263.239 141.517 263.348 141.581 263.42L141.607 263.445L143.246 264.742L145.215 268.792C145.258 268.881 145.359 268.924 145.451 268.898L145.485 268.885C145.574 268.842 145.617 268.742 145.591 268.649L145.578 268.615L143.589 264.524C143.58 264.505 143.569 264.489 143.555 264.474L143.533 264.454L141.858 263.128Z" fill="#9B6160"/>
<path fill-rule="evenodd" clip-rule="evenodd" d="M106.649 249.69C106.649 249.69 99.0954 248.101 97.5616 254.37C95.9803 260.834 103.155 262.694 103.155 262.694C103.155 262.694 108.236 263.878 114.492 265.364C118.312 266.272 122.549 267.19 125.721 267.415C129.156 267.658 129.933 265.902 130.699 262.767C131.61 259.045 131.608 257.414 128.428 256.138C125.397 254.922 121.135 253.827 117.871 252.828C111.647 250.925 106.649 249.69 106.649 249.69Z" fill="#ADC6FF"/>
<path fill-rule="evenodd" clip-rule="evenodd" d="M132.282 266.907L134.055 259.659L129.286 257.938L127.257 266.231L132.282 266.907Z" fill="#ADC6FF"/>
<path fill-rule="evenodd" clip-rule="evenodd" d="M137.507 280.169C122.506 276.272 106.959 272.396 94.5206 269.596C94.5206 269.596 85.1335 269.084 84.6371 277.652C84.1512 286.049 94.292 288.544 94.292 288.544L135.029 294.876C135.029 294.876 141.675 295.833 142.785 288.46C143.797 281.733 137.507 280.169 137.507 280.169Z" fill="#597EF7"/>
<path fill-rule="evenodd" clip-rule="evenodd" d="M134.864 319.861C132.201 319.327 129.736 321.414 129.83 324.129C129.939 327.252 130.064 331.472 130.136 336.018C130.211 340.697 130.283 344.574 130.617 345.066C132.093 347.236 135.04 348.043 138.069 350.192C140.466 351.894 140.88 352.702 143.935 353.274C148.265 354.085 146.247 352.248 141.439 346.438C137.155 341.262 137.443 338.835 137.443 338.835L138.24 324.217C138.354 322.128 136.916 320.272 134.864 319.861Z" fill="#C99382"/>
<path fill-rule="evenodd" clip-rule="evenodd" d="M141.004 345.064C144.132 348.541 147.718 351.29 147.631 352.941C147.543 354.592 146.242 356.083 140.855 354.172C137.169 352.864 138.224 352.073 134.706 349.784C132.949 348.64 132.308 348.764 130.688 347.433C129.76 346.239 130.178 340.44 130.178 340.44L136.344 347.196C136.344 347.196 134.741 344.05 136.058 343.367C137.375 342.685 138.588 342.221 139.365 342.781C140.142 343.34 141.004 345.064 141.004 345.064Z" fill="#7D4556"/>
<path fill-rule="evenodd" clip-rule="evenodd" d="M144.056 288.574C142.034 313.122 139.732 337.14 139.732 337.14L129.34 337.133L127.717 287.691C127.717 287.691 128.628 282.018 136.655 280.985C144.039 280.035 144.056 288.574 144.056 288.574Z" fill="#597EF7"/>
<path fill-rule="evenodd" clip-rule="evenodd" d="M69.5209 280.696C70.4563 270.794 70.7042 265.703 71.8143 263.843C95.6782 264.526 101.623 264.211 101.623 264.211C101.623 264.211 101.866 267.714 102.966 278.495C102.966 278.495 95.6184 291.884 86.1375 291.884C77.5898 291.884 69.5209 280.696 69.5209 280.696Z" fill="#597EF7"/>
<path fill-rule="evenodd" clip-rule="evenodd" d="M71.8143 263.843L72.2656 259.353L101.487 259.703L101.623 264.201C101.623 264.201 86.158 264.796 71.8143 263.843Z" fill="#597EF7"/>
<path fill-rule="evenodd" clip-rule="evenodd" d="M84.9515 204.396C84.9515 204.396 80.8927 201.908 82.518 197.49C80.8722 193.54 83.1855 191.269 83.1855 191.269C83.1855 191.269 83.5208 186.211 86.8891 186.094C89.2617 181.008 95.0636 183.34 95.0636 183.34C95.0636 183.34 98.9946 180.446 104.185 184.943C108.129 185.283 108.243 183.322 109.444 184.751C110.645 186.178 111.052 189.401 109.295 190.574C112.154 191.979 109.258 196.489 109.258 196.489C109.258 196.489 110.078 199.224 106.608 201.077C103.136 202.929 101.532 209.255 95.8308 210.983C90.3442 212.646 84.7182 210.634 84.9515 204.396Z" fill="#7D4556"/>
<path fill-rule="evenodd" clip-rule="evenodd" d="M86.6067 213.999L88.256 205.343L99.7495 207.379L99.4664 215.016C99.3404 218.426 96.428 221.06 93.0228 220.845C92.9577 220.841 92.8932 220.836 92.8276 220.832C89.3455 220.613 86.1823 217.462 86.6067 213.999Z" fill="#C99382"/>
<path fill-rule="evenodd" clip-rule="evenodd" d="M91.3533 192.127C91.3533 192.127 91.9758 195.234 89.5739 195.942C89.9156 199.941 88.1924 199.563 88.1924 199.563C88.1924 199.563 85.4858 195.976 83.5323 199.033C81.6761 201.936 84.7286 206.315 87.6374 205.696C92.3309 213.505 101.975 214.058 105.258 209.05C107.251 206.007 106.621 201.521 106.903 199.423C107.597 194.268 106.671 192.688 106.671 192.688C106.671 192.688 104.688 193.074 102.557 191.416C100.208 193.094 96.9166 191.336 96.9166 191.336C96.9166 191.336 94.639 194.141 91.3533 192.127Z" fill="#C99382"/>
<path d="M85.9889 199.67C85.3253 199.528 84.8678 199.693 84.6161 200.066C84.5035 200.233 84.4568 200.398 84.4463 200.519C84.4359 200.64 84.5255 200.746 84.6464 200.757C84.7673 200.767 84.8738 200.678 84.8843 200.557C84.8889 200.504 84.9162 200.407 84.9805 200.312C85.1279 200.093 85.4028 199.994 85.8971 200.1C86.3636 200.2 86.75 200.56 86.9734 201.041C87.0668 201.242 87.1204 201.445 87.1265 201.606C87.131 201.724 87.1105 201.784 87.1063 201.786C86.6532 202.034 86.299 202.393 86.1813 202.79C86.0303 203.298 86.2745 203.795 86.9158 204.209C87.0178 204.275 87.1538 204.245 87.2196 204.143C87.2854 204.041 87.2561 203.905 87.1541 203.839C86.664 203.523 86.5132 203.216 86.6027 202.915C86.6821 202.647 86.9567 202.369 87.3175 202.171C88.0475 201.772 87.1902 199.927 85.9889 199.67Z" fill="#9B6160"/>
<path d="M86.6366 201.286C86.4336 201.261 86.2235 201.254 86.0231 201.274C85.4787 201.328 85.1119 201.582 85.114 202.09C85.1145 202.212 85.2133 202.31 85.3347 202.309C85.4561 202.309 85.5541 202.21 85.5536 202.089C85.5526 201.861 85.7197 201.746 86.0669 201.711C86.2307 201.695 86.4104 201.701 86.5839 201.722L86.6637 201.733C86.6857 201.736 86.7029 201.739 86.7145 201.741C86.8336 201.764 86.949 201.687 86.972 201.567C86.9951 201.448 86.9172 201.333 86.798 201.31L86.7155 201.296C86.6922 201.293 86.6658 201.289 86.6366 201.286Z" fill="#9B6160"/>
<path fill-rule="evenodd" clip-rule="evenodd" d="M98.9743 199.366C98.7914 201.476 96.9341 203.039 94.8235 202.857C92.7135 202.675 91.151 200.816 91.3333 198.706C91.5149 196.596 93.3735 195.033 95.4835 195.216C97.594 195.398 99.1566 197.256 98.9743 199.366Z" fill="white"/>
<path d="M95.507 194.946C97.7661 195.141 99.4389 197.131 99.2438 199.39C99.048 201.648 97.0596 203.321 94.8006 203.126C92.542 202.931 90.8692 200.942 91.0644 198.683C91.2557 196.461 93.1836 194.806 95.3962 194.938L95.507 194.946ZM91.6027 198.729C91.4333 200.691 92.8858 202.418 94.8471 202.588C96.8087 202.757 98.5354 201.304 98.7054 199.343C98.8749 197.382 97.4222 195.654 95.4605 195.485C93.4992 195.315 91.7716 196.768 91.6027 198.729Z" fill="#7D4556"/>
<path fill-rule="evenodd" clip-rule="evenodd" d="M108.272 199.809C108.089 201.919 106.231 203.482 104.121 203.3C102.011 203.118 100.448 201.259 100.631 199.149C100.812 197.039 102.671 195.476 104.781 195.658C106.891 195.841 108.454 197.699 108.272 199.809Z" fill="white"/>
<path d="M104.804 195.389C107.063 195.584 108.736 197.573 108.541 199.832C108.345 202.091 106.357 203.764 104.098 203.569C101.839 203.374 100.165 201.384 100.361 199.126C100.553 196.904 102.48 195.249 104.693 195.381L104.804 195.389ZM100.9 199.172C100.73 201.134 102.183 202.861 104.144 203.031C106.106 203.2 107.832 201.747 108.002 199.786C108.172 197.824 106.719 196.097 104.757 195.927C102.796 195.758 101.068 197.211 100.9 199.172Z" fill="#7D4556"/>
<path d="M99.9173 198.74C99.8118 198.8 99.7747 198.934 99.8346 199.039L99.8901 199.14C99.9349 199.222 99.985 199.315 100.039 199.419C100.193 199.715 100.347 200.03 100.491 200.351C100.62 200.64 100.735 200.92 100.831 201.185C101.154 202.079 101.228 202.725 101.026 202.958C100.798 203.22 100.501 203.375 100.146 203.439C99.7835 203.504 99.3877 203.472 99.0029 203.378C98.8581 203.342 98.7507 203.307 98.6944 203.285C98.5813 203.241 98.4538 203.297 98.4097 203.41C98.3655 203.523 98.4214 203.65 98.5345 203.694L98.6098 203.722C98.6827 203.746 98.7804 203.776 98.8983 203.804C99.3378 203.912 99.792 203.949 100.224 203.871C100.673 203.79 101.06 203.589 101.357 203.246C101.71 202.84 101.623 202.083 101.244 201.036C101.145 200.76 101.026 200.47 100.892 200.171C100.745 199.842 100.587 199.519 100.429 199.216L100.324 199.017L100.217 198.823C100.157 198.717 100.023 198.68 99.9173 198.74Z" fill="#9B6160"/>
<path fill-rule="evenodd" clip-rule="evenodd" d="M95.8664 204.677C95.8664 204.677 99.3666 205.387 101.927 205.201C101.927 205.201 101.001 207.665 98.5021 207.144C96.2831 206.681 95.8664 204.677 95.8664 204.677Z" fill="white"/>
<path d="M95.9125 204.451L96.372 204.537C96.7371 204.601 97.1396 204.666 97.5675 204.726C98.4826 204.855 99.3846 204.946 100.227 204.983C100.842 205.01 101.407 205.007 101.91 204.97C102.078 204.958 102.202 205.124 102.143 205.282L102.113 205.355C102.083 205.425 102.039 205.517 101.981 205.625C101.845 205.876 101.677 206.126 101.474 206.36C100.73 207.214 99.7256 207.635 98.4553 207.37C97.5414 207.179 96.8429 206.73 96.3369 206.103C96.0958 205.804 95.9144 205.485 95.784 205.165C95.705 204.971 95.66 204.817 95.6406 204.724C95.6068 204.562 95.7501 204.418 95.9125 204.451ZM96.2916 204.991L96.2064 204.976L96.2117 204.99C96.326 205.271 96.4853 205.551 96.6963 205.813C97.1375 206.36 97.744 206.75 98.5496 206.918C99.6424 207.145 100.484 206.793 101.125 206.057L101.229 205.931C101.33 205.804 101.42 205.672 101.499 205.539L101.548 205.452L101.54 205.453C101.126 205.469 100.68 205.465 100.207 205.444C99.348 205.407 98.4318 205.314 97.5031 205.183C97.0696 205.122 96.6618 205.057 96.2916 204.991Z" fill="#7D4556"/>
<path d="M102.08 194.397C101.969 194.333 101.828 194.37 101.764 194.481C101.7 194.591 101.737 194.732 101.848 194.796C103.033 195.484 104.546 195.762 106.132 195.47C106.257 195.447 106.34 195.326 106.317 195.201C106.294 195.076 106.173 194.993 106.048 195.016C104.573 195.288 103.171 195.03 102.08 194.397Z" fill="#7D4556"/>
<path d="M100.143 197.911C99.708 197.854 99.2493 197.855 98.818 197.889L98.6518 197.905L98.5794 197.913L98.6507 198.449L98.8044 198.433C98.8222 198.431 98.8411 198.43 98.8612 198.428C99.258 198.396 99.6813 198.396 100.073 198.447C100.308 198.477 100.517 198.525 100.695 198.591L100.781 198.626L100.995 198.13C100.749 198.023 100.463 197.953 100.143 197.911Z" fill="#7D4556"/>
<path d="M104.528 198.562C103.87 198.506 103.389 198.792 103.084 199.287C102.923 199.548 102.842 199.805 102.812 199.988C102.788 200.135 102.887 200.274 103.035 200.298C103.182 200.322 103.321 200.222 103.345 200.075L103.354 200.032C103.361 200.004 103.371 199.967 103.384 199.924C103.422 199.803 103.475 199.682 103.544 199.57C103.749 199.238 104.044 199.063 104.482 199.101C104.882 199.135 105.112 199.338 105.236 199.68C105.302 199.863 105.328 200.058 105.328 200.227L105.325 200.327C105.312 200.476 105.423 200.607 105.571 200.619C105.708 200.631 105.829 200.54 105.858 200.41L105.865 200.361C105.865 200.356 105.865 200.349 105.866 200.335C105.878 200.084 105.849 199.788 105.744 199.496C105.553 198.968 105.154 198.616 104.528 198.562Z" fill="#7D4556"/>
<path d="M95.3369 197.769C94.6791 197.712 94.198 197.998 93.8923 198.493C93.7311 198.754 93.6498 199.011 93.6198 199.194C93.5956 199.341 93.6954 199.48 93.8426 199.504C93.9765 199.526 94.1035 199.446 94.1437 199.32L94.1699 199.207C94.1757 199.185 94.1831 199.159 94.1922 199.13C94.2304 199.009 94.2833 198.888 94.352 198.777C94.5573 198.444 94.8521 198.269 95.2904 198.307C95.6902 198.341 95.9204 198.544 96.0441 198.886C96.1103 199.069 96.1362 199.264 96.1368 199.433L96.134 199.533C96.1212 199.682 96.2313 199.813 96.38 199.825C96.5163 199.837 96.6376 199.746 96.6668 199.616L96.6739 199.558L96.6748 199.541C96.6865 199.29 96.6578 198.994 96.5522 198.702C96.3612 198.174 95.9621 197.822 95.3369 197.769Z" fill="#7D4556"/>
<path d="M91.3335 198.706L87.5578 198.38" stroke="#7D4556" stroke-width="1.383"/>
<path d="M97.9544 194.021C97.9066 193.903 97.7721 193.845 97.6538 193.893C97.2307 194.064 96.7293 194.184 96.1663 194.258C95.3124 194.37 94.3971 194.37 93.5398 194.303L93.3625 194.288L93.0878 194.259C92.9614 194.242 92.8454 194.331 92.8288 194.458C92.8123 194.584 92.9013 194.7 93.0278 194.717L93.1564 194.732L93.3197 194.748C93.3777 194.753 93.439 194.758 93.5036 194.764C94.3904 194.833 95.3359 194.833 96.2265 194.716C96.8255 194.637 97.3637 194.508 97.8266 194.321C97.9449 194.274 98.0021 194.139 97.9544 194.021Z" fill="#7D4556"/>
<path d="M98.3132 209.527C98.1919 209.521 98.0891 209.615 98.0836 209.737L98.0764 209.851C98.0716 209.913 98.0647 209.991 98.0552 210.08C98.0275 210.339 97.9871 210.599 97.9319 210.839C97.8172 211.339 97.6525 211.681 97.4708 211.78C97.3644 211.839 97.3253 211.972 97.3836 212.079C97.4419 212.185 97.5755 212.224 97.6819 212.166C98.0108 211.986 98.2189 211.553 98.3604 210.937C98.4198 210.678 98.4628 210.402 98.4923 210.127L98.5098 209.944L98.5227 209.757C98.5282 209.635 98.4344 209.532 98.3132 209.527Z" fill="#9B6160"/>
<path d="M99.0797 210.281C98.9583 210.279 98.8589 210.377 98.8578 210.498L98.8525 210.676C98.8509 210.715 98.8488 210.757 98.8462 210.803C98.833 211.033 98.8111 211.263 98.7787 211.476C98.7466 211.687 98.7058 211.87 98.6564 212.013C98.6169 212.128 98.678 212.253 98.7928 212.292C98.9075 212.332 99.0326 212.271 99.0721 212.156C99.1312 211.984 99.1775 211.777 99.2133 211.543C99.248 211.314 99.2712 211.071 99.285 210.828L99.2941 210.636C99.296 210.581 99.297 210.536 99.2974 210.502C99.2985 210.381 99.201 210.282 99.0797 210.281Z" fill="#9B6160"/>
<path d="M97.2977 210.436C97.1816 210.401 97.0587 210.466 97.0231 210.582L97.0048 210.639C96.9932 210.673 96.9779 210.718 96.9592 210.769C96.9072 210.911 96.8485 211.052 96.7847 211.184C96.6664 211.427 96.5445 211.601 96.4477 211.668L96.4195 211.684C96.3104 211.738 96.2651 211.869 96.3184 211.978C96.3716 212.087 96.5032 212.133 96.6123 212.079C96.8291 211.973 97.0092 211.727 97.1801 211.376C97.251 211.23 97.3152 211.075 97.3719 210.92L97.4224 210.776C97.4311 210.75 97.4381 210.728 97.4434 210.711C97.479 210.595 97.4137 210.472 97.2977 210.436Z" fill="#9B6160"/>
<path d="M99.7468 210.115C99.6387 210.13 99.5605 210.222 99.5587 210.328L99.561 210.364L99.7527 211.678C99.7702 211.798 99.8818 211.881 100.002 211.864C100.11 211.848 100.188 211.756 100.19 211.65L100.188 211.614L99.996 210.3C99.9802 210.192 99.8883 210.114 99.7825 210.112L99.7468 210.115Z" fill="#9B6160"/>
<path d="M92.2024 210.017C92.1009 209.951 91.9646 209.979 91.8981 210.081C91.8315 210.182 91.8599 210.318 91.9614 210.385C92.3034 210.609 92.656 210.813 93.0183 210.997C95.2253 212.118 97.5296 212.436 99.5092 212.301L99.6939 212.287C99.862 212.273 99.9812 212.259 100.046 212.249C100.166 212.231 100.249 212.119 100.23 211.999C100.212 211.879 100.1 211.796 99.9802 211.814L99.8797 211.827C99.8366 211.832 99.7839 211.837 99.7221 211.843L99.6573 211.849C97.7115 212.011 95.4098 211.719 93.2175 210.605C92.8694 210.428 92.5307 210.232 92.2024 210.017Z" fill="#9B6160"/>
<path d="M96.7131 203.144C96.6788 203.027 96.5566 202.961 96.4402 202.995L96.3388 203.027C96.2606 203.053 96.1737 203.083 96.0803 203.118C95.8131 203.218 95.5458 203.335 95.295 203.469C94.456 203.917 93.9743 204.448 94.0911 205.091C94.1128 205.21 94.2273 205.289 94.3467 205.268C94.4661 205.246 94.5453 205.131 94.5236 205.012C94.453 204.624 94.8166 204.223 95.502 203.857C95.7341 203.733 95.9842 203.623 96.2345 203.53L96.3542 203.486C96.4464 203.453 96.5186 203.43 96.5645 203.417C96.6809 203.382 96.7475 203.26 96.7131 203.144Z" fill="#9B6160"/>
<path fill-rule="evenodd" clip-rule="evenodd" d="M86.0065 214.409L84.7792 216.687C84.7792 216.687 76.2636 217.709 72.1058 220.213C68.3459 222.478 68.8195 246.386 69.398 254.432C67.3724 263.879 74.9308 263.117 74.9308 263.117L101.904 265.342C101.904 265.342 105.852 263.1 103.889 256.443C104.393 251.03 113.182 225.067 109.787 221.672C107.147 219.032 100.773 218.515 100.773 218.515L100.346 215.868C100.346 215.868 96.2551 215.401 86.0065 214.409Z" fill="#ADC6FF"/>
<path d="M108.488 232.01C108.365 231.998 108.255 232.088 108.243 232.212C108.011 234.596 107.558 237.443 106.921 240.655C106.562 242.464 106.15 244.361 105.696 246.318C105.159 248.627 104.588 250.914 104.013 253.098L103.675 254.369C103.579 254.727 103.486 255.069 103.397 255.393L103.166 256.231L102.97 256.925C102.935 257.044 103.004 257.169 103.124 257.203C103.243 257.237 103.368 257.168 103.402 257.049L103.637 256.214L103.831 255.512C103.964 255.024 104.106 254.498 104.256 253.937C104.896 251.534 105.536 248.99 106.134 246.419C106.589 244.458 107.002 242.557 107.362 240.742L107.507 240.005C108.071 237.08 108.475 234.472 108.69 232.255C108.702 232.132 108.612 232.022 108.488 232.01Z" fill="#597EF7"/>
<path d="M86.8775 217.945C86.7575 217.914 86.6345 217.986 86.6029 218.106C86.5713 218.226 86.6429 218.349 86.763 218.38C90.9737 219.49 95.1076 219.773 98.5883 219.585L98.8768 219.568C99.0549 219.557 99.2158 219.545 99.3589 219.534L99.6442 219.507C99.6541 219.506 99.6628 219.505 99.6701 219.504C99.7934 219.491 99.8821 219.379 99.8682 219.256C99.8543 219.133 99.743 219.044 99.6196 219.058L99.423 219.077L99.0983 219.103C99.0195 219.108 98.9363 219.114 98.8489 219.12C95.3534 219.337 91.1528 219.072 86.8775 217.945Z" fill="#597EF7"/>
<path fill-rule="evenodd" clip-rule="evenodd" d="M113.601 324.66C110.707 324.182 108.122 326.525 108.324 329.452C108.555 332.819 108.845 337.37 109.09 342.274C109.342 347.322 109.561 351.504 109.941 352.023C111.612 354.311 114.825 355.075 118.173 357.284C120.822 359.032 121.299 359.89 124.617 360.395C129.321 361.112 127.075 359.203 121.672 353.108C116.859 347.677 117.081 345.046 117.081 345.046L117.405 329.239C117.45 326.979 115.831 325.029 113.601 324.66Z" fill="#C99382"/>
<path fill-rule="evenodd" clip-rule="evenodd" d="M121.153 351.64C124.657 355.279 128.628 358.114 128.594 359.9C128.561 361.686 127.21 363.342 121.326 361.477C117.299 360.2 118.409 359.308 114.527 356.966C112.589 355.796 111.902 355.952 110.105 354.575C109.059 353.321 109.296 347.046 109.296 347.046L116.2 354.112C116.2 354.112 114.354 350.775 115.751 349.99C117.148 349.206 118.44 348.66 119.3 349.235C120.159 349.81 121.153 351.64 121.153 351.64Z" fill="#7D4556"/>
<path fill-rule="evenodd" clip-rule="evenodd" d="M122.079 290.205C120.818 316.777 119.235 342.789 119.235 342.789L108.017 343.172L104.409 289.865C104.409 289.865 105.073 281.899 113.806 282.291C121.685 282.644 122.079 290.205 122.079 290.205Z" fill="#597EF7"/>
<path fill-rule="evenodd" clip-rule="evenodd" d="M117.37 281.503C105.242 277.006 89.7536 273.736 78.5338 271.455C78.5338 271.455 70.1167 272.577 69.5476 280.849C68.9902 288.957 78.1352 291.021 78.1352 291.021L114.921 295.756C114.921 295.756 120.924 296.456 122.032 289.314C123.043 282.799 117.37 281.503 117.37 281.503Z" fill="#597EF7"/>
<path d="M71.5009 265.073C71.3795 265.073 71.2811 265.172 71.2811 265.293C71.2811 265.403 71.3608 265.493 71.4653 265.51L71.5009 265.513H101.426C101.547 265.513 101.646 265.415 101.646 265.293C101.646 265.184 101.566 265.093 101.461 265.076L101.426 265.073H71.5009Z" fill="#253368"/>
<path d="M71.8317 268.484C71.7103 268.484 71.6119 268.582 71.6119 268.704C71.6119 268.813 71.6916 268.904 71.7961 268.921L71.8317 268.923H101.866C101.988 268.923 102.086 268.825 102.086 268.704C102.086 268.594 102.006 268.504 101.902 268.487L101.866 268.484H71.8317Z" fill="#253368"/>
<path d="M92.4485 265.019C92.3393 265.024 92.2526 265.108 92.2406 265.213L92.2394 265.249L92.4047 268.714C92.4105 268.836 92.5134 268.929 92.6347 268.924C92.7438 268.918 92.8305 268.834 92.8426 268.729L92.8438 268.694L92.6785 265.228C92.6727 265.107 92.5697 265.013 92.4485 265.019Z" fill="#253368"/>
<path fill-rule="evenodd" clip-rule="evenodd" d="M119.086 281.394L85.2751 274.061L119.664 265.744L147.353 274.615L119.086 281.394Z" fill="#CCD7EE"/>
<path fill-rule="evenodd" clip-rule="evenodd" d="M120.507 279.088L95.9511 273.763L120.345 267.643L141.036 274.165L120.507 279.088Z" fill="#4E5C93"/>
<path fill-rule="evenodd" clip-rule="evenodd" d="M85.1958 275.823L85.2673 274.072L119.79 281.276L119.094 283.11L85.1958 275.823Z" fill="#253368"/>
<path d="M124.804 269.37L104.9 275.415C104.822 275.438 104.779 275.52 104.802 275.598C104.823 275.665 104.888 275.707 104.956 275.701L104.985 275.695L124.889 269.651C124.967 269.627 125.01 269.545 124.987 269.468C124.966 269.4 124.901 269.358 124.833 269.365L124.804 269.37Z" fill="#CCD7EE"/>
<path d="M122.279 268.185L100.045 274.531C99.9674 274.554 99.9223 274.635 99.9445 274.713C99.964 274.781 100.028 274.824 100.096 274.818L100.126 274.813L122.359 268.466C122.437 268.444 122.482 268.363 122.46 268.285C122.44 268.217 122.376 268.174 122.308 268.179L122.279 268.185Z" fill="#CCD7EE"/>
<path d="M124.997 271.162L108.267 276.497C108.19 276.522 108.147 276.604 108.172 276.682C108.194 276.749 108.259 276.79 108.327 276.783L108.356 276.777L125.086 271.441C125.163 271.417 125.206 271.334 125.181 271.257C125.16 271.19 125.094 271.149 125.026 271.156L124.997 271.162Z" fill="#CCD7EE"/>
<path d="M129.458 271.864L112.728 277.199C112.651 277.224 112.608 277.306 112.633 277.383C112.654 277.451 112.72 277.492 112.788 277.484L112.817 277.478L129.547 272.143C129.624 272.118 129.667 272.036 129.642 271.959C129.62 271.891 129.555 271.85 129.487 271.858L129.458 271.864Z" fill="#CCD7EE"/>
<path d="M133.561 272.804L116.832 278.139C116.754 278.164 116.712 278.246 116.736 278.323C116.758 278.39 116.824 278.432 116.892 278.424L116.921 278.418L133.65 273.083C133.727 273.058 133.77 272.976 133.745 272.899C133.724 272.831 133.658 272.79 133.59 272.797L133.561 272.804Z" fill="#CCD7EE"/>
<path d="M100.064 272.918C99.9844 272.904 99.9082 272.957 99.8937 273.036C99.8811 273.106 99.92 273.173 99.9833 273.199L100.012 273.207L121.067 277.023C121.147 277.038 121.223 276.985 121.237 276.905C121.25 276.836 121.211 276.769 121.148 276.743L121.119 276.735L100.064 272.918Z" fill="#CCD7EE"/>
<path d="M104.861 271.526C104.782 271.512 104.705 271.565 104.691 271.644C104.678 271.714 104.717 271.781 104.781 271.807L104.809 271.815L125.865 275.631C125.945 275.646 126.021 275.593 126.035 275.513C126.048 275.444 126.009 275.377 125.946 275.351L125.917 275.343L104.861 271.526Z" fill="#CCD7EE"/>
<path d="M110.754 270.75C110.674 270.736 110.598 270.789 110.584 270.868C110.571 270.938 110.61 271.005 110.673 271.03L110.702 271.039L131.757 274.855C131.837 274.87 131.913 274.817 131.927 274.737C131.94 274.668 131.901 274.601 131.838 274.575L131.809 274.567L110.754 270.75Z" fill="#CCD7EE"/>
<path d="M114.863 268.039C114.784 268.025 114.707 268.078 114.693 268.157C114.68 268.227 114.719 268.294 114.782 268.319L114.811 268.328L135.867 272.144C135.946 272.159 136.023 272.106 136.037 272.026C136.05 271.957 136.011 271.89 135.948 271.864L135.919 271.856L114.863 268.039Z" fill="#CCD7EE"/>
<path fill-rule="evenodd" clip-rule="evenodd" d="M119.122 283.113L120.647 283.332L147.42 276.558L160.569 232.693L131.916 236.744L119.122 283.113Z" fill="#253368"/>
<path fill-rule="evenodd" clip-rule="evenodd" d="M120.701 283.338L148.934 276.207C149.191 276.142 149.397 275.946 149.473 275.691L162.158 233.538C162.318 233.008 161.874 232.492 161.326 232.57L134.145 236.451C133.848 236.494 133.603 236.709 133.522 236.999L120.701 283.338Z" fill="#4E5C93"/>
<path fill-rule="evenodd" clip-rule="evenodd" d="M79.8067 254.671C79.8067 254.671 78.883 262.824 71.4289 261.852C63.8283 260.861 65.0849 252.648 65.0849 252.648C65.0849 252.648 64.9841 247.498 65.8803 240.625C66.5807 235.255 67.5911 228.247 68.3665 224.853C69.2035 221.191 72.7377 218.932 76.2291 219.387C81.5346 220.079 83.1159 224.466 82.8012 228.191C82.4952 231.812 82.0082 237.772 81.5826 241.756C80.7639 249.416 79.8067 254.671 79.8067 254.671Z" fill="#ADC6FF"/>
<path fill-rule="evenodd" clip-rule="evenodd" d="M101.368 265.149C102.349 268.814 110.513 267.57 110.513 267.57L114.515 270.827C115.148 271.265 115.421 270.838 115.765 270.916C116.695 271.129 116.917 270.152 116.917 270.152C117.273 270.072 117.733 270.436 118.073 269.584C118.073 269.584 118.735 269.686 118.961 268.906C119.045 268.616 117.768 264.691 117.006 262.394C116.67 261.386 115.798 260.653 114.747 260.495L104.977 259.024C104.977 259.024 100.047 260.217 101.368 265.149Z" fill="#C99382"/>
<path d="M109.913 265.011C109.801 264.963 109.672 265.015 109.625 265.126C109.582 265.227 109.619 265.341 109.709 265.398L109.74 265.415L112.626 266.647L115.508 270.614C115.571 270.702 115.687 270.729 115.781 270.683L115.815 270.663C115.902 270.6 115.929 270.484 115.884 270.39L115.863 270.356L112.946 266.34C112.93 266.319 112.911 266.3 112.889 266.286L112.854 266.267L109.913 265.011Z" fill="#9B6160"/>
<path d="M111.876 263.801C111.77 263.741 111.636 263.779 111.576 263.885C111.523 263.979 111.547 264.095 111.627 264.161L111.66 264.184L114.309 265.676L116.657 269.783C116.711 269.877 116.823 269.916 116.921 269.881L116.957 269.865C117.051 269.811 117.09 269.699 117.055 269.601L117.039 269.565L114.66 265.405C114.647 265.382 114.63 265.362 114.61 265.345L114.578 265.323L111.876 263.801Z" fill="#9B6160"/>
<path d="M113.776 262.681C113.681 262.606 113.543 262.622 113.467 262.718C113.401 262.802 113.406 262.921 113.475 262.999L113.504 263.026L115.288 264.437L117.431 268.845C117.478 268.943 117.59 268.99 117.691 268.96L117.724 268.947C117.823 268.899 117.869 268.787 117.839 268.686L117.826 268.653L115.661 264.2C115.651 264.18 115.639 264.162 115.624 264.146L115.6 264.123L113.776 262.681Z" fill="#9B6160"/>
<path fill-rule="evenodd" clip-rule="evenodd" d="M75.4568 248.055C75.4568 248.055 67.2373 246.326 65.5674 253.149C63.8455 260.184 71.6547 262.208 71.6547 262.208C71.6547 262.208 77.1847 263.497 83.9929 265.115C88.1501 266.102 92.7622 267.101 96.2143 267.346C99.9525 267.612 100.798 265.7 101.632 262.288C102.624 258.238 102.622 256.462 99.1607 255.074C95.8615 253.75 91.2231 252.558 87.6707 251.471C80.8971 249.399 75.4568 248.055 75.4568 248.055Z" fill="#ADC6FF"/>
<path fill-rule="evenodd" clip-rule="evenodd" d="M103.355 266.794L105.286 258.905L100.095 257.033L97.8861 266.058L103.355 266.794Z" fill="#ADC6FF"/>
<path d="M82.7471 232.67C82.6236 232.657 82.5129 232.746 82.4997 232.87L82.4337 233.44C82.2825 234.673 81.9867 236.748 81.5607 239.6L80.0771 249.394C80.0612 249.506 80.1309 249.612 80.2399 249.642C82.2554 250.198 84.3146 250.791 86.3866 251.416L87.8032 251.845L92.495 253.216L93.2586 253.442C95.6176 254.145 97.3116 254.706 98.7474 255.282C100.435 255.96 101.256 256.716 101.532 257.805C101.547 257.865 101.587 257.916 101.64 257.945L101.674 257.961L104.689 259.047L102.855 266.543L99.5797 266.103C99.5241 266.096 99.4683 266.109 99.4228 266.14L99.3908 266.167C98.6326 266.925 97.5497 267.239 95.9007 267.122C92.9915 266.916 89.2542 266.205 84.0246 264.97L79.6822 263.941L71.3762 261.989C71.2553 261.961 71.1344 262.037 71.1063 262.157C71.0781 262.278 71.1533 262.399 71.2742 262.427L74.8896 263.274C76.666 263.691 78.5073 264.124 80.3791 264.567L84.2292 265.48C89.3208 266.676 92.9863 267.366 95.8688 267.57C97.5274 267.689 98.695 267.387 99.5432 266.64L99.6279 266.563L102.995 267.016C103.097 267.03 103.192 266.974 103.232 266.883L103.244 266.847L105.174 258.959C105.198 258.859 105.152 258.758 105.066 258.709L105.032 258.694L101.936 257.577L101.909 257.49C101.556 256.385 100.677 255.598 99.0635 254.926L98.9148 254.865L98.6102 254.745C97.3244 254.243 95.8282 253.746 93.8553 253.151L92.1409 252.645C91.1608 252.361 88.9383 251.715 87.8274 251.383L87.4069 251.257C85.3281 250.62 83.258 250.017 81.2272 249.45L80.5509 249.262L81.9733 239.88C82.4933 236.405 82.8257 234.05 82.9467 232.918C82.9599 232.794 82.8705 232.683 82.7471 232.67Z" fill="#597EF7"/>
<path fill-rule="evenodd" clip-rule="evenodd" d="M517.318 227.475C521.546 227.342 524.865 223.811 524.731 219.59L523.963 195.412C523.829 191.19 520.292 187.877 516.064 188.011C511.836 188.145 508.517 191.675 508.651 195.896L509.419 220.074C509.554 224.296 513.09 227.609 517.318 227.475Z" fill="#E4EBF7"/>
<path fill-rule="evenodd" clip-rule="evenodd" d="M531.198 324.486C533.956 324.748 535.889 327.32 535.365 330.035C534.467 334.676 533.177 341.831 532.352 348.538C531.612 354.549 532.302 358.735 531.033 360.243C529.665 361.869 527.022 360.311 524.717 362.374C522.412 364.437 520.746 366.025 514.839 364.465C507.931 362.641 514.187 361.042 517.561 358.231C523.516 353.268 524.318 350.831 524.798 346.996C525.782 339.143 526.023 333.064 526.062 329.093C526.09 326.354 528.466 324.228 531.198 324.486Z" fill="#FFC999"/>
<path fill-rule="evenodd" clip-rule="evenodd" d="M531.924 354.401C531.924 354.401 530.883 355.654 527.359 358.234C524.578 360.269 522.776 361.497 521.342 360.797C518.726 359.52 516.697 358.842 516.697 358.842C516.697 358.842 514.154 359.992 512.221 361.331C510.288 362.669 510.403 365.022 514.489 365.865C518.576 366.706 520.955 366.577 525.001 363.782C529.049 360.986 530.686 362.3 531.373 360.623C532.447 357.999 531.924 354.401 531.924 354.401Z" fill="#253368"/>
<path fill-rule="evenodd" clip-rule="evenodd" d="M544.854 296.919L553.406 267.775C555.097 261.724 551.049 255.576 544.816 254.726C539.421 253.99 534.374 257.542 533.255 262.862L526.97 292.759C526.97 292.759 524.712 301.178 533.653 303.173C542.348 305.114 544.854 296.919 544.854 296.919Z" fill="#253368"/>
<path fill-rule="evenodd" clip-rule="evenodd" d="M545.034 292.427L535.52 345.614C535.293 346.886 534.173 347.803 532.88 347.778L523.749 347.595C522.212 347.564 521.028 346.228 521.186 344.7L526.683 291.648C526.683 291.648 527.278 282.595 536.956 283.612C545.984 284.562 545.034 292.427 545.034 292.427Z" fill="#253368"/>
<path fill-rule="evenodd" clip-rule="evenodd" d="M535.591 348.172L520.624 347.873C520.307 347.866 520.061 347.594 520.087 347.279L520.612 340.879C520.635 340.589 520.88 340.369 521.171 340.375L537.077 340.693C537.425 340.7 537.68 341.025 537.602 341.364L536.138 347.746C536.08 347.999 535.852 348.177 535.591 348.172Z" fill="#4E5C93"/>
<path fill-rule="evenodd" clip-rule="evenodd" d="M536.784 317.362C539.216 316.038 542.26 317.089 543.347 319.633C545.205 323.982 548.146 330.631 551.222 336.651C553.978 342.046 556.896 345.129 556.69 347.088C556.468 349.2 553.404 349.385 552.65 352.382C551.896 355.38 551.406 357.627 545.636 359.634C538.889 361.981 543.177 357.161 544.397 352.948C546.551 345.507 545.85 343.038 544.098 339.593C540.51 332.535 537.303 327.363 535.11 324.05C533.597 321.764 534.375 318.674 536.784 317.362Z" fill="#FFC999"/>
<path fill-rule="evenodd" clip-rule="evenodd" d="M554.154 341.748C554.154 341.748 553.994 343.368 552.519 347.476C551.356 350.716 550.55 352.74 548.969 352.961C546.085 353.364 544.024 353.936 544.024 353.936C544.024 353.936 542.562 356.31 541.71 358.499C540.859 360.688 542.273 362.574 546.131 360.989C549.99 359.403 551.889 357.968 553.676 353.39C555.462 348.812 557.557 348.987 557.185 347.212C556.604 344.438 554.154 341.748 554.154 341.748Z" fill="#253368"/>
<path fill-rule="evenodd" clip-rule="evenodd" d="M516.449 290.026L520.578 259.937C521.511 253.726 527.723 249.766 533.76 251.534C538.985 253.063 542.136 258.365 540.98 263.677L534.474 293.527C534.474 293.527 533.088 302.132 524.111 300.304C515.381 298.526 516.449 290.026 516.449 290.026Z" fill="#253368"/>
<path fill-rule="evenodd" clip-rule="evenodd" d="M516.949 294.477L540.23 338.723C540.786 339.78 542.103 340.266 543.333 339.866L552.018 337.049C553.481 336.574 554.256 335.049 553.697 333.744L534.295 288.45C534.295 288.45 531.313 280.621 522.326 284.336C513.943 287.802 516.949 294.477 516.949 294.477Z" fill="#253368"/>
<path fill-rule="evenodd" clip-rule="evenodd" d="M541.286 341.404L555.144 335.751C555.437 335.631 555.569 335.289 555.431 335.004L552.635 329.22C552.509 328.959 552.202 328.842 551.933 328.951L537.205 334.959C536.882 335.091 536.763 335.485 536.958 335.774L540.622 341.203C540.767 341.418 541.045 341.503 541.286 341.404Z" fill="#4E5C93"/>
<path fill-rule="evenodd" clip-rule="evenodd" d="M529.565 278.341L516.416 265.868C515.296 265.029 514.708 263.658 514.871 262.27L513.775 246.748L551.347 247.342L551.539 263.773C551.551 264.795 551.163 265.777 550.461 266.521C548.307 268.8 542.908 273.331 533.517 278.209C532.242 278.871 530.679 279.246 529.565 278.341Z" fill="#253368"/>
<path d="M514.697 251.307C514.58 251.304 514.484 251.397 514.482 251.513C514.48 251.617 514.554 251.706 514.654 251.724L514.688 251.727L548.725 252.425C548.841 252.427 548.937 252.335 548.94 252.219C548.942 252.114 548.867 252.026 548.768 252.007L548.733 252.004L514.697 251.307Z" fill="#253368"/>
<path d="M534.286 247.072C534.181 247.07 534.093 247.145 534.074 247.244L534.071 247.278L533.976 251.912C533.973 252.028 534.066 252.124 534.182 252.127C534.287 252.129 534.375 252.054 534.394 251.955L534.397 251.921L534.492 247.287C534.495 247.171 534.402 247.075 534.286 247.072Z" fill="#253368"/>
<path fill-rule="evenodd" clip-rule="evenodd" d="M545.225 163.159C545.225 163.159 547.263 151.917 532.978 151.819C524.989 152.3 524.573 165.502 524.573 165.502C524.573 165.502 523.892 168.247 524.804 171.145C525.827 174.391 528.813 175.597 532.794 176.138C540.232 176.213 543.411 172.272 543.411 172.272C543.411 172.272 548.508 172.886 548.371 166.443C548.204 160.464 545.225 163.159 545.225 163.159Z" fill="#FFC999"/>
<path fill-rule="evenodd" clip-rule="evenodd" d="M544.395 155.302C544.203 158.212 546.412 160.726 549.327 160.917C552.242 161.108 554.76 158.904 554.952 155.994C555.144 153.084 552.936 150.569 550.02 150.378C547.106 150.187 544.587 152.391 544.395 155.302Z" fill="#253368"/>
<path fill-rule="evenodd" clip-rule="evenodd" d="M524.615 165.916C524.615 165.916 523.078 162.801 522.273 159.155C521.468 155.509 528.76 148.801 529.722 148.285C530.685 147.769 531.185 147.222 537.392 149.947C556.218 151.939 550.604 168.91 550.604 168.91C550.604 168.91 552.697 170.642 551.144 174.829C549.36 179 543.442 178.762 543.442 178.762L543.676 172.068C543.676 172.068 545.663 172.349 547.318 170.14C548.972 167.93 547.858 165.04 546.949 164.749C546.166 164.078 544.087 164.251 543.924 166.718C543.843 167.959 541.658 165.021 541.043 160.233C534.537 158.531 533.188 153.844 533.188 153.844C533.188 153.844 532.668 158.214 533.587 160.129C530.187 158.863 528.459 156.895 529.166 154.971C525.122 156.444 524.615 165.916 524.615 165.916Z" fill="#253368"/>
<path fill-rule="evenodd" clip-rule="evenodd" d="M543.388 179.584L543.877 169.613L530.85 169.06C530.85 169.06 530.452 175.863 530.013 178.605C521.239 182.699 540.156 187.449 544.927 182.498C546.4 180.969 543.388 179.584 543.388 179.584Z" fill="#FFC999"/>
<path fill-rule="evenodd" clip-rule="evenodd" d="M532.206 164.264C532.284 166.804 534.133 168.809 536.337 168.742C538.539 168.675 540.263 166.561 540.186 164.021C540.108 161.481 538.259 159.476 536.055 159.543C533.852 159.61 532.128 161.724 532.206 164.264Z" fill="white"/>
<path d="M536.047 159.269C538.412 159.196 540.378 161.329 540.461 164.013C540.542 166.696 538.709 168.945 536.345 169.016C533.98 169.088 532.014 166.956 531.931 164.272C531.85 161.589 533.682 159.341 536.047 159.269ZM536.064 159.817C534.022 159.879 532.408 161.859 532.481 164.256C532.554 166.653 534.286 168.53 536.328 168.468C538.37 168.406 539.984 166.426 539.911 164.03C539.839 161.67 538.161 159.815 536.161 159.816L536.064 159.817Z" fill="#4E5C93"/>
<path fill-rule="evenodd" clip-rule="evenodd" d="M523.374 163.344C523.452 165.884 525.187 167.893 527.25 167.83C529.313 167.767 530.922 165.657 530.845 163.117C530.767 160.576 529.032 158.568 526.969 158.631C524.906 158.693 523.296 160.804 523.374 163.344Z" fill="white"/>
<path d="M526.961 158.357C529.19 158.288 531.038 160.427 531.12 163.108C531.201 165.789 529.487 168.037 527.259 168.104C525.03 168.172 523.182 166.033 523.1 163.352C523.017 160.672 524.732 158.424 526.961 158.357ZM526.978 158.905C525.08 158.963 523.575 160.936 523.649 163.335C523.722 165.736 525.345 167.614 527.242 167.556C529.139 167.498 530.644 165.525 530.571 163.125C530.498 160.763 528.927 158.908 527.069 158.904L526.978 158.905Z" fill="#4E5C93"/>
<path d="M531.474 164.821C531.405 164.748 531.294 164.736 531.212 164.789L531.183 164.812L529.64 166.259C529.565 166.33 529.555 166.444 529.611 166.526L529.636 166.555L531.113 168.03C531.194 168.11 531.324 168.11 531.405 168.03C531.476 167.958 531.484 167.847 531.428 167.767L531.405 167.739L530.077 166.414L531.465 165.112C531.539 165.043 531.55 164.933 531.497 164.851L531.474 164.821Z" fill="#DD936F"/>
<path d="M534.376 168.988C534.345 168.84 534.2 168.745 534.051 168.776L533.902 168.805L533.847 168.815C533.684 168.844 533.504 168.874 533.313 168.902C532.915 168.959 532.523 169.001 532.159 169.018C531.623 169.044 531.183 169.017 530.884 168.93C530.738 168.887 530.585 168.971 530.543 169.116C530.5 169.261 530.584 169.414 530.73 169.456C531.1 169.564 531.593 169.595 532.185 169.566C532.569 169.548 532.978 169.505 533.392 169.445C533.491 169.43 533.587 169.416 533.679 169.4L534.054 169.334C534.102 169.325 534.138 169.318 534.163 169.313C534.312 169.282 534.407 169.137 534.376 168.988Z" fill="#F5222D"/>
<path fill-rule="evenodd" clip-rule="evenodd" d="M532.225 163.061C532.225 163.061 531.56 162.552 530.912 162.974L532.225 163.061Z" fill="white"/>
<path d="M532.225 163.061C532.225 163.061 531.56 162.552 530.912 162.974" stroke="#4E5C93" stroke-width="1.5" stroke-linecap="round" stroke-linejoin="round"/>
<path d="M537.201 175.468C536.651 175.563 536.024 175.626 535.336 175.661C534.205 175.719 532.992 175.7 531.823 175.632L531.418 175.606L530.942 175.568C530.829 175.558 530.728 175.641 530.717 175.754C530.707 175.867 530.79 175.968 530.903 175.978L531.09 175.994L531.39 176.016C531.518 176.025 531.654 176.034 531.799 176.042C532.982 176.111 534.209 176.131 535.357 176.072C536.06 176.036 536.703 175.971 537.271 175.874C537.383 175.855 537.458 175.748 537.439 175.636C537.422 175.536 537.334 175.465 537.234 175.465L537.201 175.468Z" fill="#DD936F"/>
<path fill-rule="evenodd" clip-rule="evenodd" d="M534.505 163.76C534.463 164.384 534.707 164.909 535.048 164.931C535.389 164.953 535.699 164.465 535.74 163.841C535.781 163.217 535.538 162.693 535.197 162.67C534.856 162.648 534.545 163.135 534.505 163.76Z" fill="#253368"/>
<path fill-rule="evenodd" clip-rule="evenodd" d="M526.469 163.336C526.428 163.96 526.671 164.485 527.012 164.507C527.353 164.529 527.663 164.042 527.704 163.417C527.745 162.793 527.502 162.269 527.161 162.246C526.82 162.224 526.51 162.712 526.469 163.336Z" fill="#253368"/>
<path d="M540.185 164.021L543.771 164.334" stroke="#4E5C93" stroke-width="1.5" stroke-linecap="round" stroke-linejoin="round"/>
<path fill-rule="evenodd" clip-rule="evenodd" d="M527.652 181.262L528.273 181.238C527.875 184.969 541.951 185.286 544.054 180.929C544.108 180.818 544.15 180.714 544.185 180.615L545.898 180.548L547.672 245.412C547.672 245.412 535.497 250.836 523.665 246.625C517.709 194.912 527.652 181.262 527.652 181.262Z" fill="#597EF7"/>
<path d="M542.659 185.93C542.61 185.825 542.484 185.779 542.379 185.828L542.316 185.857L542.247 185.886C542.136 185.933 542.006 185.986 541.857 186.043C541.43 186.206 540.943 186.369 540.402 186.522C537.097 187.454 533.609 187.555 530.35 186.29C530.134 186.207 529.92 186.117 529.709 186.022C529.603 185.974 529.478 186.021 529.43 186.127C529.382 186.233 529.429 186.357 529.535 186.405C529.754 186.504 529.974 186.596 530.197 186.683C533.554 187.985 537.132 187.882 540.517 186.927C541.07 186.771 541.57 186.603 542.008 186.436L542.183 186.367C542.239 186.345 542.291 186.324 542.341 186.303L542.557 186.21C542.662 186.161 542.708 186.036 542.659 185.93Z" fill="#597EF7"/>
<path fill-rule="evenodd" clip-rule="evenodd" d="M530.134 179.545C530.134 179.545 526.679 187.824 526.39 220.058C526.161 245.732 527.405 290.541 527.405 290.541C527.405 290.541 516.213 289.704 513.943 285.443C511.601 281.051 511.538 248.493 511.687 232.075C511.956 202.174 510.968 195.411 513.389 188.72C516.179 187.11 520.596 184.742 524.91 182.393C525.958 181.822 527.78 180.288 528.445 179.92C530.256 178.922 530.134 179.545 530.134 179.545Z" fill="#E4EBF7"/>
<path d="M513.99 194.919C513.84 194.899 513.701 195.004 513.681 195.155L513.627 195.579L513.513 196.518C513.474 196.844 513.434 197.196 513.391 197.572L513.31 198.308C513.12 200.052 512.932 201.978 512.755 204.054C512.093 211.805 511.737 219.771 511.848 227.424C511.85 227.575 511.975 227.696 512.127 227.694C512.279 227.692 512.4 227.567 512.398 227.416C512.291 220.088 512.614 212.47 513.225 205.03L513.302 204.101C513.492 201.881 513.694 199.833 513.897 197.997L514.012 196.985C514.044 196.708 514.074 196.448 514.104 196.204L514.226 195.227C514.246 195.077 514.14 194.939 513.99 194.919Z" fill="#A3B5D6"/>
<path fill-rule="evenodd" clip-rule="evenodd" d="M560.346 185.644C555.932 183.652 551.125 182.909 548.326 181.409C546.533 180.449 545.081 179.135 543.677 178.705C535.334 219.09 538.72 269.288 540.868 292.395C551.443 293.526 561.758 285.443 561.758 285.443C561.758 285.443 560.997 248.426 559.51 227.419C558.273 209.945 561.475 186.153 560.346 185.644Z" fill="#E4EBF7"/>
<path d="M543.944 178.334C543.817 178.251 543.647 178.286 543.564 178.413C543.488 178.528 543.51 178.679 543.61 178.768L543.642 178.793L547.926 181.602L547.937 181.811L547.941 181.902C548.006 183.416 547.96 185.483 547.719 188.046C547.378 191.666 546.698 195.639 545.604 199.911L545.486 200.369C545.284 201.141 545.085 201.894 544.871 202.699L543.32 208.479C542.573 211.28 542.087 213.203 541.659 215.109C540.769 219.065 540.182 222.788 539.73 227.539C539.716 227.69 539.827 227.823 539.978 227.838C540.129 227.852 540.263 227.741 540.277 227.591C540.713 223.01 541.274 219.394 542.113 215.597L542.278 214.861C542.629 213.326 543.025 211.743 543.575 209.66L544.129 207.583L545.257 203.385C545.528 202.368 545.77 201.452 546.017 200.508C547.189 196.032 547.91 191.876 548.266 188.098C548.51 185.509 548.557 183.416 548.49 181.879L548.473 181.542C548.469 181.485 548.466 181.446 548.464 181.425C548.459 181.355 548.426 181.291 548.375 181.244L548.341 181.219L543.944 178.334Z" fill="#A3B5D6"/>
<path d="M530.192 178.89C530.118 178.774 529.971 178.731 529.849 178.785L529.813 178.804L524.454 182.173C524.389 182.214 524.344 182.28 524.33 182.356L524.302 182.526L524.248 182.881C524.238 182.954 524.227 183.032 524.216 183.115L524.199 183.241C524.101 183.982 524.003 184.887 523.912 185.962L523.866 186.526C523.134 195.82 523.367 209.549 525.22 228.299C525.235 228.45 525.369 228.56 525.52 228.545C525.671 228.53 525.781 228.396 525.767 228.245L525.655 227.106C523.871 208.592 523.691 195.088 524.46 186.009L524.499 185.562C524.578 184.689 524.661 183.94 524.743 183.313L524.807 182.854L524.844 182.613L524.851 182.572L530.105 179.268C530.222 179.195 530.265 179.048 530.211 178.926L530.192 178.89Z" fill="#A3B5D6"/>
<path d="M559.996 241.112L550.562 242.788C550.439 242.81 550.348 242.911 550.337 243.032L550.336 243.069L551.108 262.719C551.18 264.545 552.82 265.899 554.618 265.642L554.712 265.628L561.298 264.487C561.448 264.461 561.548 264.319 561.522 264.17C561.499 264.033 561.377 263.937 561.242 263.942L561.205 263.946L554.618 265.087C553.138 265.343 551.769 264.265 551.662 262.782L551.657 262.697L550.895 243.286L560.093 241.652C560.23 241.628 560.325 241.506 560.319 241.371L560.315 241.334C560.291 241.198 560.169 241.103 560.034 241.108L559.996 241.112Z" fill="#A3B5D6"/>
<path d="M513.591 241.878C513.446 241.834 513.293 241.917 513.249 242.062C513.209 242.195 513.275 242.334 513.399 242.39L513.434 242.403L518.12 243.804L518.599 264.577C518.61 265.082 518.113 265.437 517.644 265.276L517.594 265.256L513.032 263.313C512.893 263.254 512.731 263.319 512.672 263.458C512.617 263.586 512.667 263.732 512.783 263.801L512.817 263.818L517.378 265.761C518.209 266.114 519.126 265.516 519.148 264.628V264.564L518.665 243.593C518.662 243.487 518.6 243.393 518.506 243.35L518.469 243.336L513.591 241.878Z" fill="#A3B5D6"/>
<path fill-rule="evenodd" clip-rule="evenodd" d="M484.493 224.909L521.103 225.253C522.495 225.266 523.502 223.929 523.103 222.598L515.384 196.838C515.124 195.971 514.329 195.374 513.423 195.366L476.812 195.022C475.42 195.009 474.414 196.346 474.813 197.678L482.532 223.437C482.791 224.304 483.586 224.901 484.493 224.909Z" fill="#A3B5D6"/>
<path fill-rule="evenodd" clip-rule="evenodd" d="M482.945 224.909L519.556 225.253C520.948 225.266 521.954 223.93 521.555 222.598L513.836 196.838C513.577 195.971 512.782 195.374 511.876 195.366L475.265 195.022C473.873 195.009 472.866 196.346 473.265 197.678L480.984 223.437C481.244 224.304 482.039 224.901 482.945 224.909Z" fill="#253368"/>
<path fill-rule="evenodd" clip-rule="evenodd" d="M479.783 213.646C479.783 213.646 475.066 211.643 473.961 212.208C472.248 213.084 474.801 216.07 474.801 216.07C474.801 216.07 473.666 217.664 475.354 219.031C475.376 220.982 476.637 221.435 476.637 221.435C476.637 221.435 476.146 223.114 477.968 223.617C479.791 224.121 482.886 222.571 481.542 220.528C482.35 218.792 480.809 217.977 480.809 217.977C480.809 217.977 481.287 216.437 479.77 215.679C480.502 214.784 480.273 213.86 479.783 213.646Z" fill="#F4B784"/>
<path d="M475.616 214.82C475.504 214.803 475.4 214.879 475.383 214.99C475.367 215.09 475.427 215.184 475.52 215.215L475.552 215.223L479.738 215.88C479.85 215.898 479.954 215.822 479.972 215.711C479.987 215.611 479.927 215.517 479.834 215.486L479.802 215.478L475.616 214.82Z" fill="#DD936F"/>
<path d="M480.789 217.774L477.135 218.124C477.023 218.135 476.941 218.235 476.952 218.346C476.961 218.447 477.043 218.524 477.141 218.53L477.174 218.53L480.828 218.179C480.94 218.168 481.023 218.069 481.012 217.957C481.002 217.856 480.92 217.78 480.822 217.773L480.789 217.774Z" fill="#DD936F"/>
<path d="M481.503 220.329L478.105 220.985C477.994 221.006 477.922 221.113 477.943 221.223C477.963 221.323 478.051 221.391 478.149 221.388L478.182 221.385L481.581 220.728C481.691 220.707 481.764 220.6 481.742 220.49C481.723 220.391 481.635 220.322 481.536 220.325L481.503 220.329Z" fill="#DD936F"/>
<path fill-rule="evenodd" clip-rule="evenodd" d="M566.804 226.869C570.891 225.775 573.316 221.582 572.22 217.503L564.994 190.578C563.899 186.499 559.698 184.078 555.613 185.171C551.526 186.265 549.101 190.457 550.196 194.537L557.423 221.462C558.518 225.541 562.718 227.962 566.804 226.869Z" fill="#E4EBF7"/>
<path fill-rule="evenodd" clip-rule="evenodd" d="M524.643 227.924C524.643 227.924 531.021 227.27 532.016 223.629C532.918 220.332 529.731 219.037 529.731 219.037C529.731 219.037 526.768 217.25 522.963 216.675C520.455 216.296 515.615 216.058 515.238 217.346C514.745 219.025 520.239 218.976 520.269 220.248C520.299 221.555 519.164 221.649 516.655 222.71C515.086 223.374 513.279 223.411 512.058 224.227C509.669 225.821 515.158 229.7 524.643 227.924Z" fill="#FFC999"/>
<path d="M520.025 223.603C519.955 223.513 519.826 223.496 519.736 223.565L519.665 223.616L519.637 223.635C519.552 223.694 519.449 223.759 519.331 223.83C518.989 224.034 518.585 224.238 518.122 224.428C516.583 225.062 514.78 225.399 512.742 225.279C512.629 225.273 512.531 225.359 512.525 225.473C512.518 225.586 512.605 225.684 512.718 225.69C514.821 225.813 516.685 225.465 518.279 224.809C518.761 224.61 519.183 224.397 519.542 224.183C519.636 224.127 519.722 224.073 519.798 224.024L519.93 223.934C519.955 223.916 519.974 223.901 519.987 223.892C520.077 223.822 520.094 223.693 520.025 223.603Z" fill="#DD936F"/>
<path d="M521.258 225.626C521.208 225.524 521.085 225.481 520.983 225.531C520.845 225.598 520.705 225.661 520.564 225.722C519.493 226.183 518.348 226.467 517.183 226.607C516.445 226.695 515.784 226.717 515.246 226.699L515.114 226.694C515.031 226.69 514.975 226.686 514.948 226.683C514.834 226.673 514.734 226.757 514.724 226.87C514.714 226.983 514.798 227.083 514.911 227.093L515.044 227.102L515.094 227.105C516.749 227.184 518.774 226.942 520.727 226.1C520.874 226.037 521.019 225.97 521.163 225.901C521.265 225.851 521.308 225.728 521.258 225.626Z" fill="#DD936F"/>
<path d="M523.3 226.764C523.24 226.667 523.113 226.638 523.016 226.698L522.967 226.727C522.897 226.766 522.786 226.822 522.633 226.891C522.298 227.042 521.889 227.194 521.402 227.335C520.405 227.625 519.221 227.835 517.843 227.931C517.729 227.939 517.644 228.037 517.652 228.151C517.659 228.264 517.758 228.349 517.871 228.342C519.279 228.244 520.492 228.029 521.517 227.73C522.023 227.583 522.45 227.425 522.802 227.266L522.935 227.205C523.077 227.137 523.176 227.083 523.234 227.047C523.33 226.987 523.36 226.86 523.3 226.764Z" fill="#DD936F"/>
<path fill-rule="evenodd" clip-rule="evenodd" d="M527.98 214.987L528.363 228.081L564.118 228.136C568.346 228.013 571.674 224.49 571.55 220.269C571.427 216.047 567.899 212.725 563.67 212.849L527.98 214.987Z" fill="#E4EBF7"/>
<path d="M561.296 212.065L527.765 214.719C527.631 214.73 527.527 214.835 527.513 214.965L527.512 215.001L527.896 228.095C527.9 228.231 528.002 228.341 528.133 228.359L528.17 228.361L564.117 228.41C564.269 228.41 564.393 228.288 564.393 228.136C564.393 227.997 564.29 227.882 564.155 227.864L564.118 227.861L528.438 227.813L528.069 215.245L561.34 212.612C561.479 212.601 561.585 212.489 561.593 212.354L561.592 212.316C561.581 212.178 561.469 212.072 561.334 212.064L561.296 212.065Z" fill="#A3B5D6"/>
<path d="M533.521 215.559C533.382 215.564 533.27 215.67 533.256 215.804L533.255 215.842L533.58 226.96C533.584 227.111 533.711 227.231 533.863 227.226C534.002 227.222 534.114 227.116 534.128 226.981L534.129 226.944L533.804 215.826C533.8 215.674 533.673 215.555 533.521 215.559Z" fill="#A3B5D6"/>
</svg>
