<svg width="559" height="560" viewBox="0 0 559 560" fill="none" xmlns="http://www.w3.org/2000/svg">
<circle cx="279.636" cy="279.637" r="181.968" fill="#597EF7"/>
<path d="M139.682 355.898C181.073 355.898 214.626 322.345 214.626 280.954C214.626 239.564 181.073 206.011 139.682 206.011C98.2922 206.011 64.7388 239.564 64.7388 280.954C64.7388 322.345 98.2922 355.898 139.682 355.898Z" fill="#597EF7"/>
<path d="M139.682 350.545C178.116 350.545 209.273 319.388 209.273 280.954C209.273 242.521 178.116 211.364 139.682 211.364C101.249 211.364 70.0918 242.521 70.0918 280.954C70.0918 319.388 101.249 350.545 139.682 350.545Z" fill="#A3B5D6"/>
<path d="M139.682 348.036C176.73 348.036 206.764 318.002 206.764 280.954C206.764 243.906 176.73 213.873 139.682 213.873C102.634 213.873 72.6011 243.906 72.6011 280.954C72.6011 318.002 102.634 348.036 139.682 348.036Z" fill="white"/>
<path d="M139.682 238.283C141.161 238.283 142.359 239.482 142.359 240.96V278.992H137.006V240.96C137.006 239.482 138.204 238.283 139.682 238.283Z" fill="#253368"/>
<path d="M166.937 280.954C166.937 282.433 165.738 283.631 164.26 283.631H139.682V278.278H164.26C165.738 278.278 166.937 279.476 166.937 280.954Z" fill="#253368"/>
<path d="M139.682 287.144C143.101 287.144 145.872 284.373 145.872 280.954C145.872 277.536 143.101 274.765 139.682 274.765C136.264 274.765 133.493 277.536 133.493 280.954C133.493 284.373 136.264 287.144 139.682 287.144Z" fill="#FF7946"/>
<path d="M142.352 224.747C142.352 223.269 141.154 222.07 139.676 222.07C138.197 222.07 136.999 223.269 136.999 224.747V230.1C136.999 231.578 138.197 232.776 139.676 232.776C141.154 232.776 142.352 231.578 142.352 230.1V224.747Z" fill="#E4EBF7"/>
<path d="M98.0401 239.32C99.0853 238.275 100.78 238.275 101.825 239.32L105.611 243.106C106.656 244.151 106.656 245.845 105.611 246.891C104.565 247.936 102.871 247.936 101.825 246.891L98.0401 243.106C96.9948 242.06 96.9948 240.366 98.0401 239.32Z" fill="#E4EBF7"/>
<path d="M80.7979 280.961C80.7979 279.483 81.9962 278.285 83.4744 278.285H88.8275C90.3057 278.285 91.5041 279.483 91.5041 280.961C91.5041 282.439 90.3057 283.638 88.8275 283.638H83.4744C81.9962 283.638 80.7979 282.439 80.7979 280.961Z" fill="#E4EBF7"/>
<path d="M98.0493 322.597C97.004 321.552 97.004 319.857 98.0493 318.812L101.835 315.027C102.88 313.982 104.574 313.982 105.62 315.027C106.665 316.072 106.665 317.767 105.62 318.812L101.835 322.597C100.789 323.643 99.0945 323.643 98.0493 322.597Z" fill="#E4EBF7"/>
<path d="M137.013 337.162C137.013 338.64 138.211 339.839 139.689 339.839C141.167 339.839 142.366 338.64 142.366 337.162V331.809C142.366 330.331 141.167 329.133 139.689 329.133C138.211 329.133 137.013 330.331 137.013 331.809V337.162Z" fill="#E4EBF7"/>
<path d="M181.324 322.587C180.279 323.632 178.584 323.632 177.539 322.587L173.754 318.802C172.708 317.757 172.708 316.062 173.754 315.017C174.799 313.971 176.494 313.971 177.539 315.017L181.324 318.802C182.369 319.847 182.369 321.542 181.324 322.587Z" fill="#E4EBF7"/>
<path d="M198.566 280.948C198.566 282.426 197.368 283.624 195.89 283.624H190.537C189.059 283.624 187.86 282.426 187.86 280.948C187.86 279.47 189.059 278.271 190.537 278.271H195.89C197.368 278.271 198.566 279.47 198.566 280.948Z" fill="#E4EBF7"/>
<path d="M181.316 239.313C182.361 240.358 182.361 242.053 181.316 243.098L177.531 246.883C176.485 247.929 174.791 247.929 173.746 246.883C172.7 245.838 172.7 244.144 173.746 243.098L177.531 239.313C178.576 238.268 180.271 238.268 181.316 239.313Z" fill="#E4EBF7"/>
<path fill-rule="evenodd" clip-rule="evenodd" d="M341.103 310.169C317.522 299.015 303.467 328.268 315.327 344.556C329.799 364.432 337.213 387.302 341.341 394.192C344.824 400.005 354.364 414.176 365.851 407.644C376.423 401.633 370.661 378.041 370.661 378.041C370.661 378.041 370.194 323.929 341.103 310.169Z" fill="#5B8C00"/>
<path fill-rule="evenodd" clip-rule="evenodd" d="M412.032 403.102C420.049 392.286 422.976 376.765 414.028 372.784C405.449 368.968 391.237 378.364 384.655 396.447C378.073 414.53 374.275 427.531 380.714 429.791C391.278 433.5 401.443 417.388 412.032 403.102Z" fill="#5B8C00"/>
<path fill-rule="evenodd" clip-rule="evenodd" d="M327.75 403.923C336.817 414.549 349.902 435.925 358.1 428.439C363.068 423.902 356.426 402.415 338.246 390.724C322.781 380.78 318.682 393.297 327.75 403.923Z" fill="#7CB305"/>
<path fill-rule="evenodd" clip-rule="evenodd" d="M414.517 330.184C411.069 327.864 406.731 327.334 402.773 328.602C397.25 330.371 388.867 335.639 380.571 350.76C369.739 370.501 364.101 392.143 365.215 405.852C365.944 414.817 376.989 418.682 383.168 412.145C386.005 409.143 389.008 404.516 391.945 397.495C403.768 369.244 414.821 351.54 416.139 349.762C419.656 345.019 422.17 335.333 414.517 330.184Z" fill="#7CB305"/>
<path fill-rule="evenodd" clip-rule="evenodd" d="M406.589 341.452C406.472 342.847 407.508 344.073 408.902 344.19C410.297 344.307 411.523 343.271 411.64 341.876C411.757 340.481 410.721 339.256 409.326 339.139C407.931 339.022 406.706 340.058 406.589 341.452Z" fill="white"/>
<path fill-rule="evenodd" clip-rule="evenodd" d="M385.061 352.274C384.943 353.668 385.979 354.894 387.374 355.011C388.769 355.128 389.995 354.092 390.112 352.697C390.229 351.303 389.193 350.077 387.798 349.96C386.403 349.843 385.177 350.879 385.061 352.274Z" fill="white"/>
<path fill-rule="evenodd" clip-rule="evenodd" d="M388.669 381.086C388.535 382.683 389.721 384.087 391.318 384.221C392.916 384.355 394.319 383.168 394.453 381.571C394.587 379.974 393.401 378.57 391.804 378.436C390.206 378.302 388.803 379.488 388.669 381.086Z" fill="white"/>
<path fill-rule="evenodd" clip-rule="evenodd" d="M322.545 338.027C322.545 340.294 324.383 342.132 326.65 342.132C328.917 342.132 330.755 340.294 330.755 338.027C330.755 335.76 328.917 333.922 326.65 333.922C324.383 333.922 322.545 335.76 322.545 338.027Z" fill="white"/>
<path fill-rule="evenodd" clip-rule="evenodd" d="M355.59 350.562C355.59 352.829 357.428 354.667 359.695 354.667C361.962 354.667 363.8 352.829 363.8 350.562C363.8 348.295 361.962 346.457 359.695 346.457C357.428 346.457 355.59 348.295 355.59 350.562Z" fill="white"/>
<path fill-rule="evenodd" clip-rule="evenodd" d="M344.888 378.426C344.888 379.373 345.656 380.141 346.603 380.141C347.551 380.141 348.319 379.373 348.319 378.426C348.319 377.478 347.551 376.71 346.603 376.71C345.656 376.71 344.888 377.478 344.888 378.426Z" fill="white"/>
<path fill-rule="evenodd" clip-rule="evenodd" d="M332.527 400.367C332.527 401.767 333.662 402.902 335.062 402.902C336.462 402.902 337.596 401.767 337.596 400.367C337.596 398.967 336.462 397.833 335.062 397.833C333.662 397.833 332.527 398.967 332.527 400.367Z" fill="white"/>
<path d="M391.727 405.989C391.491 405.764 391.117 405.772 390.892 406.009L390.784 406.125L390.702 406.216C390.553 406.382 390.38 406.581 390.187 406.811C389.638 407.466 389.027 408.249 388.37 409.159C386.498 411.751 384.628 414.843 382.884 418.431C377.906 428.67 374.92 440.832 374.92 454.871C374.92 455.198 375.185 455.462 375.511 455.462C375.837 455.462 376.102 455.198 376.102 454.871C376.102 441.017 379.045 429.031 383.947 418.948C385.66 415.423 387.495 412.389 389.328 409.851C389.931 409.017 390.492 408.294 390.998 407.684L391.093 407.571C391.237 407.399 391.368 407.247 391.485 407.114L391.633 406.948C391.688 406.887 391.726 406.846 391.747 406.824C391.972 406.588 391.963 406.214 391.727 405.989Z" fill="#253368"/>
<path d="M347.077 410.125C346.882 409.864 346.512 409.81 346.25 410.005C345.989 410.201 345.935 410.571 346.13 410.833C348.283 413.715 350.269 416.815 352.096 420.101C355.958 427.047 358.943 434.494 361.159 441.941C361.935 444.548 362.559 446.968 363.045 449.138L363.143 449.583C363.259 450.114 363.359 450.598 363.444 451.032L363.499 451.316L363.597 451.852C363.652 452.174 363.956 452.391 364.278 452.337C364.6 452.283 364.817 451.978 364.763 451.656L364.729 451.466C364.702 451.312 364.668 451.131 364.627 450.924L364.53 450.432C364.435 449.963 364.324 449.445 364.198 448.88L364.091 448.406C363.616 446.334 363.02 444.05 362.292 441.604C360.053 434.08 357.036 426.555 353.129 419.527C351.277 416.196 349.263 413.052 347.077 410.125Z" fill="#253368"/>
<path d="M336.75 336.391C336.523 336.608 336.507 336.961 336.706 337.198L336.732 337.227C336.743 337.239 336.768 337.265 336.806 337.306L336.952 337.465L337.036 337.558C337.29 337.842 337.586 338.183 337.92 338.583C338.877 339.728 339.945 341.105 341.096 342.716C344.389 347.327 347.685 352.881 350.762 359.383C355.885 370.208 359.875 382.555 362.294 396.435C365.23 413.289 365.717 431.701 363.313 451.684C363.274 452.008 363.505 452.302 363.829 452.341C364.153 452.38 364.447 452.149 364.486 451.825C366.904 431.727 366.415 413.2 363.458 396.232C361.021 382.245 356.998 369.797 351.83 358.877C348.722 352.31 345.391 346.696 342.057 342.029L341.799 341.67C340.771 340.246 339.81 339.008 338.936 337.955L338.827 337.825C338.513 337.449 338.23 337.122 337.983 336.844L337.916 336.769C337.839 336.683 337.769 336.607 337.708 336.541L337.585 336.409C337.359 336.173 336.985 336.165 336.75 336.391Z" fill="#253368"/>
<path d="M387.905 371.438C387.626 371.269 387.263 371.358 387.094 371.637L387.034 371.737C386.987 371.817 386.932 371.912 386.868 372.023L386.775 372.185C386.617 372.464 386.439 372.784 386.242 373.145L386.08 373.446C385.479 374.565 384.82 375.86 384.117 377.326L384.02 377.527C381.726 382.334 379.433 387.954 377.294 394.341C371.303 412.225 367.658 432.522 367.522 454.868C367.52 455.194 367.783 455.46 368.109 455.462C368.436 455.464 368.702 455.201 368.704 454.875C368.84 432.66 372.462 412.486 378.415 394.717C380.5 388.492 382.731 383.004 384.963 378.297L385.087 378.036C385.85 376.438 386.561 375.042 387.201 373.856L387.394 373.502C387.579 373.164 387.746 372.867 387.893 372.612L387.962 372.491L388.105 372.25C388.274 371.971 388.185 371.607 387.905 371.438Z" fill="#253368"/>
<path fill-rule="evenodd" clip-rule="evenodd" d="M342.42 484.186H393.506C396.267 484.186 398.526 481.927 398.526 479.165V441.897C398.526 439.135 396.267 436.876 393.506 436.876H342.42C339.659 436.876 337.399 439.135 337.399 441.897V479.165C337.399 481.927 339.659 484.186 342.42 484.186Z" fill="#253368"/>
<path fill-rule="evenodd" clip-rule="evenodd" d="M502.713 122.082H309.987V104.813C309.987 101.067 313.024 98.0295 316.77 98.0295H495.93C499.676 98.0295 502.713 101.067 502.713 104.813V122.082Z" fill="#253368"/>
<path fill-rule="evenodd" clip-rule="evenodd" d="M495.93 288.355H316.77C313.024 288.355 309.987 285.319 309.987 281.572V120.059H502.713V281.572C502.713 285.319 499.676 288.355 495.93 288.355Z" fill="#E4EBF7"/>
<path fill-rule="evenodd" clip-rule="evenodd" d="M325.649 109.223C325.649 111.574 323.743 113.48 321.392 113.48C319.041 113.48 317.135 111.574 317.135 109.223C317.135 106.872 319.041 104.966 321.392 104.966C323.743 104.966 325.649 106.872 325.649 109.223Z" fill="#FF7946"/>
<path fill-rule="evenodd" clip-rule="evenodd" d="M341.547 109.223C341.547 111.574 339.641 113.48 337.29 113.48C334.939 113.48 333.033 111.574 333.033 109.223C333.033 106.872 334.939 104.966 337.29 104.966C339.641 104.966 341.547 106.872 341.547 109.223Z" fill="#FAAD14"/>
<path fill-rule="evenodd" clip-rule="evenodd" d="M357.445 109.223C357.445 111.574 355.54 113.48 353.188 113.48C350.837 113.48 348.932 111.574 348.932 109.223C348.932 106.872 350.837 104.966 353.188 104.966C355.54 104.966 357.445 106.872 357.445 109.223Z" fill="#7CB305"/>
<path fill-rule="evenodd" clip-rule="evenodd" d="M330.817 265.464C329.648 265.464 328.701 264.517 328.701 263.349V140.74C328.701 139.572 329.648 138.625 330.817 138.625H483.989C485.158 138.625 486.106 139.572 486.106 140.74V263.349C486.106 264.517 485.158 265.464 483.989 265.464H330.817Z" fill="white"/>
<path fill-rule="evenodd" clip-rule="evenodd" d="M386.785 174.699C386.785 185.85 377.766 194.889 366.64 194.889C355.514 194.889 346.494 185.85 346.494 174.699C346.494 163.549 355.514 154.51 366.64 154.51C377.766 154.51 386.785 163.549 386.785 174.699Z" fill="#FF7946"/>
<path d="M469.111 174.799H406.366V237.544H469.111V174.799Z" fill="#597EF7"/>
<path fill-rule="evenodd" clip-rule="evenodd" d="M386.803 201.757L422.354 256.388H351.252L386.803 201.757Z" fill="#FAAD14"/>
<path fill-rule="evenodd" clip-rule="evenodd" d="M233.45 251.304L228.976 260.868C228.976 260.868 194.795 244.474 189.111 235.641C184.064 227.8 196.008 208.605 196.008 208.605C196.008 208.605 207.94 216.922 210.172 222.159L208.211 228.056L233.45 251.304Z" fill="#FFC999"/>
<path fill-rule="evenodd" clip-rule="evenodd" d="M278.275 235.94L269.346 214.118L286.127 204.183C286.127 204.183 303.314 234.223 299.805 240.945C295.377 249.428 285.398 249.453 278.275 235.94Z" fill="#FFC999"/>
<path fill-rule="evenodd" clip-rule="evenodd" d="M204.351 469.853C194.058 474.277 188.72 468.039 188.72 468.039C188.72 468.039 188.413 465.846 190.203 463.381C192.443 460.295 197.47 459.169 203.399 453.255C207.955 448.711 210.933 441.668 210.933 441.668C214.214 436.753 224.81 442.511 224.81 442.511C224.81 442.511 225.055 452.62 224.879 458.406C224.879 458.406 224.519 461.593 216.606 462.784C210.685 463.674 210.516 467.204 204.351 469.853Z" fill="#4E5C93"/>
<path fill-rule="evenodd" clip-rule="evenodd" d="M255.122 439.489C255.122 439.489 254.773 454.237 255.976 458.113C259.403 461.939 262.392 460.135 266.933 463.936C271.474 467.736 281.018 474.023 289.529 467.327C290.542 462.843 287.691 460.848 284.162 458.494C269.612 448.791 272.131 447.003 269.455 441.333C265.349 432.632 254.984 433.359 255.122 439.489Z" fill="#4E5C93"/>
<path fill-rule="evenodd" clip-rule="evenodd" d="M225.773 244.376C225.773 244.376 220.839 220.46 218.667 211.626C216.495 202.792 213.145 181.631 216.787 180.022C220.427 178.412 229.147 174.987 229.147 174.987C229.147 174.987 236.106 174.692 243.949 176.311C250.16 177.593 250.087 173.935 257.614 175.13C260.801 175.636 273.29 179.459 275.72 181.349C278.149 183.238 274.087 245.344 274.087 245.344C274.087 245.344 277.082 248.386 273.502 252.378C271.727 254.248 263.984 253.669 254.08 253.758C242.806 253.859 229.554 255.362 227.08 253.232C222.432 249.231 225.773 244.376 225.773 244.376Z" fill="#597EF7"/>
<path fill-rule="evenodd" clip-rule="evenodd" d="M254 170.849L246.845 177.019L254.993 185.329L258.989 175.316L254 170.849Z" fill="#597EF7"/>
<path fill-rule="evenodd" clip-rule="evenodd" d="M275.896 230.502C275.896 230.502 263.959 210.039 263.034 198.124C262.125 186.438 272.393 177.68 277.706 182.769C285.449 190.185 293.736 215.069 293.736 215.069C293.736 215.069 285.039 226.248 275.896 230.502Z" fill="#597EF7"/>
<path d="M290.28 217.226C290.405 217.041 290.655 216.993 290.84 217.118C291.024 217.242 291.072 217.493 290.948 217.677C289.737 219.47 288.391 221.131 286.935 222.665C284.622 225.101 282.145 227.104 279.666 228.702C278.797 229.263 277.99 229.733 277.265 230.116C277.112 230.197 276.969 230.27 276.837 230.336L276.461 230.519C276.407 230.545 276.367 230.563 276.34 230.575C276.136 230.665 275.898 230.572 275.809 230.369C275.719 230.165 275.811 229.927 276.015 229.837L276.175 229.763L276.238 229.733C276.387 229.661 276.557 229.576 276.744 229.478L276.889 229.403C277.594 229.03 278.381 228.572 279.23 228.024C281.657 226.459 284.085 224.496 286.351 222.11C287.778 220.607 289.095 218.981 290.28 217.226Z" fill="#253368"/>
<path fill-rule="evenodd" clip-rule="evenodd" d="M190.888 218.25C190.888 218.25 204.721 188.606 212.171 182.805C219.622 177.003 222.945 180.053 225.956 184.185C227.851 186.786 232.212 194.168 222.594 209.739C215.352 221.464 212.317 225.81 211.452 227.766C199.309 226.952 190.888 218.25 190.888 218.25Z" fill="#597EF7"/>
<path fill-rule="evenodd" clip-rule="evenodd" d="M246.942 178.852L254.093 170.951L251.865 147.444L233.086 148.997L232.93 172.871L246.942 178.852Z" fill="#FFC999"/>
<path fill-rule="evenodd" clip-rule="evenodd" d="M256.687 145.111C256.687 145.111 259.504 142.073 260.755 144.055C262.006 146.037 260.028 153.251 256.914 153.5C252.755 153.831 256.687 145.111 256.687 145.111Z" fill="#FFC999"/>
<path fill-rule="evenodd" clip-rule="evenodd" d="M238.913 163.846C238.913 163.846 245.131 168.738 253.133 163.603C258.894 159.907 259.351 146.94 258.034 137.456C257.288 132.089 254.752 129.245 249.481 127.76C244.209 126.275 230.002 126.513 230.235 142.345C230.495 159.98 238.913 163.846 238.913 163.846Z" fill="#FFC999"/>
<path d="M248.994 140.143C249.132 140.175 249.223 140.301 249.217 140.438L249.21 140.489L248.446 143.79L250.408 152.714C250.443 152.874 250.338 153.028 250.183 153.059L250.135 153.064L246.347 153.175C246.188 153.179 246.055 153.054 246.05 152.894C246.046 152.751 246.147 152.629 246.284 152.603L246.33 152.598L249.77 152.497L247.869 143.85C247.863 143.822 247.861 143.794 247.863 143.765L247.87 143.723L248.648 140.359C248.68 140.221 248.806 140.129 248.942 140.136L248.994 140.143Z" fill="#DD936F"/>
<path d="M236.57 139.466C239.09 137.513 242.244 137.352 244.915 138.724C245.311 138.928 245.467 139.414 245.264 139.81C245.06 140.206 244.575 140.362 244.179 140.159C242.043 139.061 239.56 139.188 237.556 140.741C237.205 141.014 236.699 140.949 236.426 140.597C236.154 140.245 236.218 139.739 236.57 139.466Z" fill="#253368"/>
<path fill-rule="evenodd" clip-rule="evenodd" d="M250.964 154.586C246.979 155.113 243.025 154.298 243.025 154.298C243.025 154.298 243.843 157.152 247.013 157.337C250.53 157.541 250.964 154.586 250.964 154.586Z" fill="white"/>
<path d="M242.638 154.409C242.761 154.841 243.056 155.462 243.585 156.083C244.402 157.043 245.528 157.654 246.99 157.739C248.71 157.839 249.926 157.249 250.686 156.204C251.106 155.626 251.303 155.049 251.362 154.645C251.401 154.38 251.176 154.152 250.911 154.187C248.857 154.458 246.659 154.397 244.558 154.131C244.241 154.09 243.949 154.048 243.683 154.005L243.226 153.926C243.174 153.917 243.134 153.909 243.106 153.903C242.809 153.842 242.554 154.118 242.638 154.409ZM243.751 154.927L243.692 154.823L243.766 154.834C243.981 154.867 244.212 154.9 244.457 154.931L244.864 154.98C246.631 155.181 248.455 155.237 250.211 155.076L250.405 155.056L250.356 155.174C250.27 155.364 250.164 155.551 250.035 155.729C249.435 156.555 248.48 157.018 247.036 156.934C245.805 156.863 244.878 156.36 244.198 155.56C244.025 155.357 243.877 155.144 243.751 154.927Z" fill="#FF7946"/>
<path fill-rule="evenodd" clip-rule="evenodd" d="M232.169 149.095L228.969 143.056C228.969 143.056 226.846 134.301 228.805 130.48C231.847 124.549 239.071 124.567 243.327 122.918C247.584 121.269 247.515 119.826 249.259 120.032C251.002 120.239 257.824 124.809 258.676 129.709C259.424 134.017 258.537 145.048 258.537 145.048C258.537 145.048 257.136 135.323 256.147 132.766C252.724 131.411 240.379 131.58 235.258 133.27C235.258 133.27 234.875 136.598 234.663 138.94C231.943 140.969 232.169 149.095 232.169 149.095Z" fill="#253368"/>
<path d="M253.237 163.051C253.342 162.931 253.524 162.919 253.644 163.024C253.764 163.13 253.776 163.312 253.671 163.432L253.598 163.51C253.513 163.598 253.387 163.716 253.22 163.856C252.855 164.163 252.414 164.469 251.896 164.754C249.053 166.319 245.261 166.624 240.493 164.896C240.344 164.841 240.266 164.676 240.321 164.526C240.375 164.376 240.54 164.299 240.69 164.353C245.301 166.024 248.92 165.733 251.618 164.248C252.102 163.982 252.512 163.698 252.849 163.414C253.049 163.247 253.177 163.119 253.237 163.051Z" fill="#DD936F"/>
<path d="M248.779 142.416C249.097 142.396 249.37 142.639 249.39 142.957C249.408 143.254 249.198 143.512 248.911 143.561L248.849 143.568L246.065 143.737C245.747 143.756 245.473 143.514 245.454 143.195C245.436 142.898 245.646 142.64 245.932 142.591L245.995 142.584L248.779 142.416Z" fill="#253368"/>
<path d="M246.336 144.33C246.913 144.067 247.504 143.927 248.085 143.983C248.593 144.032 249.056 144.233 249.441 144.6C249.672 144.82 249.681 145.186 249.461 145.417C249.242 145.648 248.877 145.657 248.646 145.437C248.453 145.253 248.233 145.157 247.974 145.132C247.627 145.099 247.222 145.195 246.813 145.381C246.596 145.48 246.43 145.578 246.347 145.637C246.086 145.819 245.726 145.755 245.544 145.493C245.362 145.231 245.426 144.872 245.687 144.689C245.824 144.594 246.048 144.461 246.336 144.33Z" fill="#253368"/>
<path d="M250.689 138.42C252.014 137.897 253.358 137.612 254.644 137.695C255.58 137.756 256.444 138.014 257.21 138.497C257.586 138.735 257.699 139.233 257.461 139.61C257.224 139.986 256.727 140.099 256.35 139.861C255.825 139.53 255.219 139.349 254.54 139.305C253.525 139.239 252.402 139.477 251.279 139.92C250.926 140.059 250.6 140.208 250.31 140.357L250.121 140.456C250.05 140.494 249.998 140.524 249.966 140.543C249.585 140.772 249.09 140.649 248.861 140.267C248.632 139.885 248.756 139.39 249.137 139.161C249.456 138.969 249.994 138.693 250.689 138.42Z" fill="#253368"/>
<path d="M248.423 158.595C248.583 158.587 248.718 158.71 248.725 158.869C248.732 159.013 248.633 159.137 248.497 159.166L248.451 159.172L246.18 159.28C246.021 159.287 245.886 159.164 245.879 159.005C245.872 158.862 245.971 158.738 246.107 158.709L246.153 158.703L248.423 158.595Z" fill="#DD936F"/>
<path d="M235.688 143.86C236.006 143.846 236.275 144.094 236.289 144.412C236.301 144.709 236.087 144.964 235.799 145.007L235.737 145.013L231.167 145.205C230.849 145.218 230.58 144.971 230.566 144.652C230.554 144.355 230.768 144.101 231.056 144.057L231.118 144.051L235.688 143.86Z" fill="#253368"/>
<path fill-rule="evenodd" clip-rule="evenodd" d="M236.006 142.71L244.728 142.295C245.337 142.266 245.854 142.735 245.879 143.345C245.924 144.483 245.947 146.31 245.726 147.884C245.465 149.743 243.865 150.949 241.998 151.125C239.668 151.344 237.57 151.446 236.453 150.283C234.75 148.51 235.001 145.447 234.959 143.833C234.944 143.241 235.415 142.738 236.006 142.71Z" fill="white"/>
<path d="M244.719 142.103L235.997 142.518C235.301 142.551 234.75 143.142 234.768 143.838L234.773 144.254L234.774 144.533C234.776 145.797 234.803 146.443 234.923 147.235C235.124 148.564 235.558 149.628 236.315 150.417C237.329 151.472 238.826 151.617 242.016 151.317C244.054 151.125 245.652 149.791 245.916 147.911C246.091 146.67 246.131 145.215 246.084 143.69L246.071 143.337C246.042 142.621 245.435 142.069 244.719 142.103ZM244.737 142.487C245.214 142.464 245.622 142.811 245.681 143.275L245.687 143.353C245.752 144.984 245.72 146.548 245.536 147.858C245.298 149.549 243.85 150.758 241.98 150.934C238.914 151.222 237.49 151.084 236.592 150.15C235.898 149.427 235.493 148.434 235.303 147.178L235.265 146.911C235.192 146.34 235.167 145.797 235.16 144.948L235.152 143.829C235.139 143.342 235.527 142.926 236.015 142.902L244.737 142.487Z" fill="#253368"/>
<path fill-rule="evenodd" clip-rule="evenodd" d="M249.605 141.966L259.48 141.496C259.914 142.924 259.827 148.526 258.189 149.804C255.975 151.103 251.366 150.806 250.595 149.627C249.427 147.838 248.86 144.348 248.807 142.836C248.79 142.375 249.145 141.988 249.605 141.966Z" fill="white"/>
<path d="M259.471 141.304L249.596 141.774C249.031 141.801 248.595 142.276 248.615 142.843C248.69 144.984 249.422 148.183 250.435 149.732C251.312 151.074 256.089 151.26 258.287 149.97C259.77 148.814 260.295 143.515 259.664 141.44C259.639 141.356 259.559 141.3 259.471 141.304ZM259.336 141.695L259.36 141.789C259.846 143.881 259.327 148.673 258.071 149.653C256.051 150.836 251.5 150.659 250.756 149.521C249.789 148.042 249.071 144.907 248.999 142.829C248.986 142.473 249.26 142.175 249.615 142.158L259.336 141.695Z" fill="#253368"/>
<path d="M245.875 142.007C246.193 142.001 246.457 142.254 246.464 142.572C246.47 142.87 246.25 143.12 245.962 143.157L245.899 143.162L235.075 143.392C234.756 143.399 234.493 143.146 234.486 142.828C234.48 142.53 234.699 142.28 234.987 142.243L235.05 142.238L245.875 142.007Z" fill="#253368"/>
<path d="M259.535 141.134C259.853 141.114 260.127 141.357 260.146 141.675C260.165 141.972 259.955 142.23 259.669 142.279L259.606 142.287L249.018 142.94C248.701 142.959 248.427 142.717 248.407 142.399C248.389 142.102 248.599 141.843 248.885 141.794L248.947 141.787L259.535 141.134Z" fill="#253368"/>
<path fill-rule="evenodd" clip-rule="evenodd" d="M230.688 144.194C229.563 143.052 227.829 142.747 226.614 144.084C224.658 146.238 226.549 154.176 231.874 154.468C233.893 154.173 232.444 145.976 230.688 144.194Z" fill="#FFC999"/>
<path fill-rule="evenodd" clip-rule="evenodd" d="M242.973 145.57C243.004 146.56 242.457 147.381 241.75 147.403C241.044 147.426 240.445 146.642 240.414 145.652C240.382 144.661 240.93 143.84 241.636 143.817C242.343 143.795 242.941 144.579 242.973 145.57Z" fill="#253368"/>
<path fill-rule="evenodd" clip-rule="evenodd" d="M254.914 145.189C254.945 146.18 254.397 147 253.691 147.023C252.985 147.046 252.386 146.261 252.355 145.271C252.323 144.281 252.871 143.46 253.577 143.437C254.284 143.415 254.882 144.199 254.914 145.189Z" fill="#253368"/>
<path fill-rule="evenodd" clip-rule="evenodd" d="M281.482 235C281.482 235 284.937 247.351 295.856 245.081C303.313 243.53 310.579 204.601 311.154 200.079C311.565 196.846 301.831 196.315 301.831 196.315L281.482 235Z" fill="#FFC999"/>
<path fill-rule="evenodd" clip-rule="evenodd" d="M227.411 444.836L249.613 294.106L251.05 293.785L252.376 444.115C252.376 444.115 264.835 447.724 271.381 443.733C271.447 414.408 280.26 319.191 277.059 275.71C276.544 268.71 274.332 259.204 273.884 256.561C253.899 253.313 226.696 258.092 226.696 258.092L208.286 442.667C208.286 442.667 218.191 447.862 227.411 444.836Z" fill="#ADC6FF"/>
<path d="M261.192 287.889C261.334 287.818 261.508 287.876 261.578 288.019C261.641 288.146 261.602 288.297 261.493 288.379L261.448 288.406L249.453 294.371C249.31 294.442 249.137 294.384 249.066 294.241C249.003 294.114 249.042 293.963 249.152 293.881L249.196 293.854L261.192 287.889Z" fill="#597EF7"/>
<path fill-rule="evenodd" clip-rule="evenodd" d="M226.958 253.17C226.958 253.17 252.355 249.243 273.512 252.811C273.698 254.686 273.894 256.994 273.894 256.994C273.894 256.994 256.769 252.901 226.875 258.779C226.925 253.689 226.958 253.17 226.958 253.17Z" fill="#ADC6FF"/>
<path d="M235.66 258.455C244.822 257.665 254.186 257.331 262.929 257.715C266.638 257.877 270.139 258.169 273.397 258.599C273.555 258.62 273.666 258.765 273.646 258.923C273.625 259.081 273.48 259.192 273.322 259.171C270.081 258.743 266.597 258.454 262.903 258.292C254.189 257.909 244.849 258.242 235.71 259.031C233.79 259.196 232.006 259.372 230.387 259.549L229.52 259.646C229.151 259.688 228.808 259.728 228.489 259.766L227.223 259.925C227.065 259.946 226.919 259.836 226.898 259.678C226.877 259.52 226.987 259.374 227.145 259.353L227.505 259.306L228.421 259.193C228.74 259.155 229.085 259.114 229.455 259.072L230.324 258.975C231.948 258.797 233.736 258.621 235.66 258.455Z" fill="#597EF7"/>
<path d="M235.508 251.986C244.673 251.195 254.041 250.861 262.787 251.244C266.501 251.407 270.006 251.698 273.268 252.129C273.489 252.158 273.644 252.361 273.615 252.581C273.586 252.802 273.384 252.957 273.163 252.928C269.925 252.501 266.443 252.212 262.752 252.05C254.367 251.682 245.401 251.977 236.593 252.703L235.577 252.789C233.483 252.97 231.552 253.162 229.818 253.356L228.855 253.465L227.564 253.622L227.094 253.683C226.874 253.713 226.671 253.558 226.641 253.337C226.611 253.117 226.766 252.914 226.986 252.884L227.588 252.806C227.939 252.762 228.331 252.715 228.762 252.665L229.298 252.603C231.147 252.392 233.232 252.182 235.508 251.986Z" fill="#253368"/>
<path d="M252.434 252.421C252.577 252.421 252.696 252.525 252.718 252.663L252.722 252.709L252.716 254.807C252.707 256.402 252.693 258.171 252.67 260.07C252.604 265.465 252.486 270.853 252.301 275.883L252.244 277.364C252.011 283.211 251.697 288.114 251.291 291.794C251.273 291.953 251.131 292.067 250.973 292.049C250.814 292.032 250.7 291.889 250.718 291.731L250.814 290.814C251.205 286.943 251.505 281.864 251.725 275.861C251.896 271.196 252.01 266.221 252.078 261.218L252.11 258.54C252.12 257.545 252.128 256.593 252.134 255.69L252.145 252.712C252.145 252.55 252.274 252.421 252.434 252.421Z" fill="#597EF7"/>
<path fill-rule="evenodd" clip-rule="evenodd" d="M257.381 254.477C257.398 255.194 256.959 255.787 256.401 255.8C255.843 255.812 255.378 255.24 255.361 254.523C255.345 253.804 255.784 253.212 256.342 253.199C256.899 253.186 257.365 253.759 257.381 254.477Z" fill="white"/>
<path d="M293.142 212.55C293.22 212.411 293.396 212.362 293.535 212.44C293.658 212.51 293.711 212.657 293.666 212.786L293.644 212.833L285.108 227.984C285.03 228.123 284.854 228.172 284.715 228.094C284.592 228.024 284.539 227.877 284.584 227.748L284.606 227.701L293.142 212.55Z" fill="#DD936F"/>
<path fill-rule="evenodd" clip-rule="evenodd" d="M246.923 177.973L239.987 187.234L229.455 175.005L233.251 170.189L246.923 177.973Z" fill="#597EF7"/>
<path d="M247.24 178.469C247.439 178.395 247.661 178.495 247.735 178.694L247.815 178.926L247.894 179.174C247.935 179.309 247.98 179.46 248.028 179.628L248.127 179.982C248.328 180.718 248.547 181.616 248.78 182.69L248.899 183.248C249.634 186.75 250.365 191.339 251.05 197.152L251.177 198.249C251.828 203.973 252.401 210.58 252.875 218.132L252.921 218.866C253.699 231.512 253.608 242.36 253.055 250.49C253.04 250.702 252.857 250.863 252.645 250.848C252.433 250.834 252.273 250.65 252.287 250.438L252.342 249.605C252.844 241.604 252.903 231.098 252.153 218.913L252.062 217.454C251.581 209.975 251.004 203.44 250.35 197.786L250.286 197.242C249.586 191.295 248.837 186.64 248.088 183.128L248.029 182.853C247.76 181.617 247.511 180.619 247.289 179.84L247.2 179.537C247.172 179.444 247.145 179.357 247.12 179.279L247.015 178.965C246.941 178.766 247.041 178.544 247.24 178.469Z" fill="#253368"/>
<path d="M276.049 183.198C276.271 183.189 276.459 183.362 276.468 183.584L276.484 184.101C276.535 186.259 276.478 188.731 276.23 191.082C276.076 192.548 275.855 193.852 275.558 194.955L275.493 195.188L275.515 195.23L275.541 195.284C275.606 195.43 275.665 195.643 275.724 195.928C275.839 196.484 275.953 197.323 276.055 198.387L276.102 198.9C276.307 201.267 276.445 204.422 276.482 208.057C276.582 217.971 275.953 229.939 274.445 242.976L274.367 243.639L274.471 243.904L274.504 243.992C274.636 244.346 274.767 244.737 274.89 245.155C275.184 246.158 275.382 247.154 275.438 248.093C275.531 249.657 275.223 250.935 274.394 251.803C274.24 251.964 273.985 251.97 273.825 251.816C273.664 251.662 273.658 251.407 273.812 251.246C274.458 250.569 274.715 249.503 274.634 248.141C274.582 247.271 274.396 246.332 274.117 245.382C274.023 245.063 273.924 244.76 273.824 244.48L273.749 244.273C273.675 244.073 273.617 243.93 273.585 243.856C273.558 243.791 273.547 243.72 273.556 243.65C275.094 230.604 275.753 218.609 275.682 208.648L275.677 208.065C275.64 204.451 275.503 201.316 275.3 198.972L275.253 198.464C275.154 197.426 275.044 196.614 274.936 196.092C274.908 195.959 274.881 195.847 274.856 195.761L274.831 195.681C274.691 195.598 274.6 195.442 274.634 195.262L274.646 195.212C274.998 194.069 275.256 192.642 275.429 190.997C275.656 188.852 275.72 186.595 275.688 184.58L275.667 183.714C275.666 183.676 275.664 183.644 275.663 183.618C275.654 183.396 275.826 183.208 276.049 183.198Z" fill="#253368"/>
<path d="M256.389 190.365L256.307 190.365C256.073 190.364 255.887 190.562 255.904 190.796L256.928 205.154C256.937 205.29 257.015 205.412 257.135 205.478L264.936 209.782C265.07 209.856 265.234 209.847 265.36 209.76L271.336 205.617C271.434 205.549 271.497 205.442 271.508 205.323L271.546 204.832L271.578 204.34C271.592 204.105 271.606 203.85 271.619 203.574L271.629 203.363C271.753 200.642 271.792 197.122 271.694 192.778C271.691 192.622 271.598 192.483 271.457 192.419C269.531 191.55 266.457 190.987 262.65 190.659C261.28 190.541 259.895 190.461 258.548 190.413L257.713 190.387C257.191 190.373 256.745 190.367 256.389 190.365ZM257.715 204.878L256.738 191.174L257.388 191.186C257.728 191.193 258.108 191.204 258.52 191.219C259.853 191.267 261.225 191.345 262.581 191.462L262.917 191.492L263.578 191.555C266.621 191.863 269.118 192.339 270.782 193.008L270.894 193.054L270.907 193.679C270.978 197.456 270.942 200.571 270.837 203.043L270.794 203.928C270.781 204.181 270.767 204.412 270.753 204.622L270.721 205.062L265.106 208.955L257.715 204.878Z" fill="#253368"/>
<path fill-rule="evenodd" clip-rule="evenodd" d="M247.513 184.896C247.53 185.614 247.058 186.208 246.46 186.221C245.862 186.234 245.365 185.663 245.349 184.946C245.332 184.227 245.804 183.635 246.401 183.621C246.999 183.607 247.497 184.178 247.513 184.896Z" fill="white"/>
<path fill-rule="evenodd" clip-rule="evenodd" d="M249.325 198.079C249.342 198.797 248.87 199.39 248.272 199.404C247.675 199.417 247.177 198.846 247.161 198.128C247.145 197.41 247.616 196.817 248.214 196.803C248.811 196.79 249.309 197.361 249.325 198.079Z" fill="white"/>
<path fill-rule="evenodd" clip-rule="evenodd" d="M250.514 212.36C250.53 213.077 250.059 213.671 249.46 213.685C248.863 213.698 248.366 213.127 248.349 212.409C248.333 211.691 248.805 211.098 249.402 211.084C249.999 211.071 250.497 211.641 250.514 212.36Z" fill="white"/>
<path fill-rule="evenodd" clip-rule="evenodd" d="M251.033 225.788C251.049 226.507 250.578 227.099 249.979 227.113C249.382 227.126 248.885 226.555 248.868 225.837C248.853 225.119 249.324 224.526 249.921 224.513C250.519 224.499 251.016 225.071 251.033 225.788Z" fill="white"/>
<path fill-rule="evenodd" clip-rule="evenodd" d="M251.217 243.56C251.233 244.278 250.762 244.871 250.164 244.885C249.566 244.898 249.069 244.327 249.052 243.609C249.037 242.891 249.508 242.298 250.106 242.285C250.703 242.271 251.2 242.842 251.217 243.56Z" fill="white"/>
<path d="M229.341 175.088C229.487 174.962 229.701 174.966 229.843 175.089L229.883 175.129L239.769 186.646L246.719 178.444C246.844 178.297 247.056 178.267 247.215 178.366L247.261 178.4C247.408 178.525 247.438 178.737 247.339 178.896L247.306 178.942L240.064 187.488C239.924 187.654 239.679 187.668 239.52 187.531L239.479 187.49L229.3 175.631C229.162 175.47 229.18 175.226 229.341 175.088Z" fill="#253368"/>
<path d="M258.628 175.411C258.695 175.209 258.913 175.1 259.115 175.167C259.299 175.229 259.407 175.417 259.372 175.603L259.358 175.654L255.642 186.866C255.557 187.122 255.248 187.208 255.043 187.051L255.001 187.013L247.021 178.811C246.873 178.659 246.876 178.415 247.028 178.267C247.165 178.133 247.376 178.123 247.525 178.233L247.572 178.274L255.111 186.022L258.628 175.411Z" fill="#253368"/>
<path d="M258.786 257.943C258.943 257.919 259.091 258.026 259.115 258.184L259.143 258.373C259.165 258.527 259.19 258.706 259.216 258.909L259.281 259.424C259.334 259.868 259.387 260.348 259.438 260.86C259.743 263.969 259.858 267.165 259.669 270.152L259.634 270.662C259.126 277.408 257.104 281.684 253.055 282.263C252.898 282.285 252.752 282.176 252.729 282.018C252.706 281.86 252.816 281.714 252.974 281.691C256.751 281.151 258.666 276.907 259.094 270.115C259.28 267.163 259.166 263.997 258.864 260.916L258.803 260.323C258.761 259.938 258.719 259.574 258.676 259.234L258.607 258.701L258.545 258.273C258.521 258.115 258.628 257.968 258.786 257.943Z" fill="#597EF7"/>
<path d="M212.177 185.484C212.289 185.292 212.535 185.226 212.727 185.338L212.802 185.384C212.875 185.429 212.974 185.495 213.097 185.581C213.379 185.778 213.692 186.02 214.028 186.308C214.984 187.125 215.937 188.15 216.826 189.396C220.288 194.251 221.808 200.939 220.306 209.689C220.269 209.908 220.061 210.055 219.841 210.018C219.622 209.98 219.475 209.772 219.513 209.552C220.978 201.014 219.507 194.544 216.17 189.865C215.321 188.674 214.412 187.697 213.505 186.921C213.242 186.695 212.995 186.501 212.769 186.337L212.636 186.242C212.482 186.134 212.375 186.066 212.322 186.035C212.13 185.923 212.065 185.677 212.177 185.484Z" fill="#253368"/>
<path d="M190.608 217.96C190.768 217.805 191.023 217.81 191.178 217.97L191.331 218.123C191.398 218.189 191.483 218.271 191.583 218.367L191.886 218.651C192.15 218.894 192.443 219.156 192.763 219.431C194.046 220.535 195.503 221.639 197.104 222.669C201.728 225.645 206.59 227.41 211.449 227.363C211.671 227.361 211.853 227.54 211.855 227.762C211.858 227.985 211.679 228.167 211.457 228.169C206.418 228.219 201.413 226.402 196.668 223.348C195.034 222.296 193.548 221.17 192.238 220.043L191.858 219.711C191.614 219.495 191.388 219.289 191.18 219.095L190.94 218.867L190.599 218.53C190.445 218.37 190.449 218.115 190.608 217.96Z" fill="#DD936F"/>
<path d="M228.195 145.518C228.253 145.37 228.421 145.298 228.569 145.356L228.671 145.401C228.731 145.429 228.806 145.466 228.89 145.512C229.124 145.639 229.357 145.793 229.576 145.976C230.377 146.645 230.781 147.516 230.542 148.574C230.451 148.976 230.268 149.191 229.927 149.398L229.779 149.482C229.487 149.645 229.414 149.725 229.389 149.975C229.34 150.454 229.559 150.81 229.978 151.082C230.118 151.173 230.27 151.247 230.422 151.304L230.519 151.338C230.561 151.352 230.594 151.362 230.615 151.366C230.77 151.403 230.865 151.559 230.828 151.714C230.792 151.869 230.636 151.965 230.481 151.928C230.27 151.878 229.969 151.765 229.664 151.567C229.079 151.187 228.742 150.638 228.815 149.917C228.861 149.47 229.034 149.252 229.415 149.026L229.557 148.945C229.826 148.794 229.924 148.692 229.979 148.447C230.164 147.627 229.855 146.962 229.207 146.419C229.019 146.262 228.817 146.129 228.615 146.019L228.486 145.952C228.429 145.924 228.385 145.905 228.356 145.893C228.208 145.834 228.136 145.667 228.195 145.518Z" fill="#DD936F"/>
<path d="M264.133 292.791C264.292 292.78 264.43 292.9 264.441 293.059C264.451 293.202 264.355 293.328 264.22 293.36L264.174 293.367L254.661 294.037C254.502 294.048 254.364 293.928 254.353 293.769C254.343 293.626 254.439 293.5 254.574 293.468L254.621 293.461L264.133 292.791Z" fill="#597EF7"/>
<path fill-rule="evenodd" clip-rule="evenodd" d="M300.255 199.652L305.851 178.391C305.851 178.391 315.333 161.052 318.888 162.043C322.198 163.423 314.864 168.47 313.479 173.346C316.6 173.066 315.265 177.746 315.265 177.746C315.265 177.746 317.752 177.611 317.151 181.416C319.486 182.743 317.713 187.129 317.713 187.129C317.713 187.129 313.277 198.68 308.273 206.421C308.273 206.421 299.859 213.172 300.255 199.652Z" fill="#FFC999"/>
<path fill-rule="evenodd" clip-rule="evenodd" d="M301.454 192.481C301.454 192.481 302.215 185.21 302.815 181.503C303.416 177.796 301.737 171.15 304.46 172.869C306.292 174.027 306.048 178.002 306.036 180.93C306.024 183.86 310.872 190.713 307.439 195.581C305.12 198.869 301.377 199.364 301.454 192.481Z" fill="#FFC999"/>
<path d="M313.674 173.133C313.791 173.241 313.799 173.424 313.691 173.541L313.522 173.731L313.19 174.114C313.151 174.161 313.111 174.209 313.07 174.258C312.602 174.816 312.134 175.414 311.698 176.024C311.267 176.627 310.891 177.211 310.585 177.762C309.504 179.71 309.424 180.975 310.528 181.413C310.676 181.471 310.748 181.639 310.689 181.787C310.631 181.935 310.463 182.008 310.315 181.949C308.748 181.328 308.851 179.698 310.081 177.482C310.399 176.91 310.786 176.308 311.229 175.688C311.674 175.065 312.151 174.456 312.628 173.887L312.869 173.602L313.266 173.151C313.374 173.033 313.556 173.025 313.674 173.133Z" fill="#DD936F"/>
<path d="M315.197 177.712C315.297 177.837 315.276 178.019 315.151 178.118L314.972 178.265L314.743 178.457C314.663 178.526 314.579 178.598 314.492 178.674C313.995 179.109 313.498 179.574 313.036 180.051C312.552 180.549 312.134 181.032 311.801 181.486C310.858 182.772 310.709 183.643 311.435 184.071C311.709 184.233 312.011 184.273 312.349 184.203C312.893 184.091 313.502 183.702 314.123 183.122C314.392 182.869 314.646 182.598 314.875 182.327L315.07 182.088C315.108 182.04 315.139 182 315.16 181.97C315.255 181.841 315.435 181.813 315.563 181.908C315.692 182.002 315.72 182.183 315.625 182.311L315.48 182.499C315.433 182.558 315.378 182.625 315.315 182.699C315.072 182.987 314.804 183.274 314.516 183.543C313.825 184.19 313.135 184.631 312.466 184.769C311.993 184.866 311.545 184.806 311.142 184.569C310.007 183.899 310.218 182.67 311.336 181.144C311.686 180.666 312.121 180.165 312.622 179.649C313.097 179.159 313.605 178.683 314.112 178.239C314.29 178.084 314.455 177.943 314.604 177.82L314.792 177.666C314.917 177.567 315.098 177.587 315.197 177.712Z" fill="#DD936F"/>
<path d="M316.273 181.423C316.43 181.395 316.579 181.5 316.607 181.657C316.634 181.814 316.53 181.964 316.373 181.991C315.849 182.084 315.203 182.56 314.441 183.491C312.836 185.451 312.511 186.731 313.063 187.041C313.611 187.348 314.82 186.77 315.578 185.642C315.778 185.345 316.233 185.606 316.077 185.929C315.098 187.953 313.924 189.313 312.412 190.377C312.108 190.592 311.793 190.793 311.438 191.002L311.221 191.129C311.082 191.209 310.94 191.288 310.773 191.381L310.081 191.76C307.674 193.088 306.737 194.149 306.255 196.798C306.226 196.955 306.076 197.059 305.919 197.031C305.763 197.002 305.659 196.852 305.687 196.695C306.182 193.976 307.165 192.768 309.472 191.44L310.725 190.747C310.797 190.706 310.866 190.667 310.934 190.628C311.365 190.38 311.731 190.151 312.081 189.905C313.036 189.232 313.847 188.437 314.559 187.409L314.61 187.333L314.567 187.358C313.952 187.696 313.327 187.798 312.861 187.585L312.781 187.544C311.771 186.977 312.189 185.331 313.995 183.125C314.836 182.097 315.588 181.544 316.273 181.423Z" fill="#DD936F"/>
<path d="M306.023 176.982C306.165 176.968 306.294 177.06 306.33 177.194L306.338 177.24L306.894 182.741L306.942 182.821C307.009 182.932 307.083 183.061 307.162 183.206C307.388 183.618 307.614 184.077 307.825 184.571C308.433 185.995 308.798 187.423 308.795 188.767C308.793 189.761 308.587 190.671 308.148 191.474C308.072 191.614 307.896 191.666 307.757 191.589C307.617 191.513 307.566 191.337 307.642 191.197C308.032 190.484 308.217 189.668 308.218 188.766C308.221 187.512 307.875 186.156 307.295 184.798C307.092 184.322 306.874 183.88 306.657 183.484L306.486 183.182C306.438 183.099 306.399 183.036 306.371 182.992C306.355 182.967 306.343 182.939 306.335 182.91L306.327 182.865L305.765 177.299C305.749 177.14 305.864 176.998 306.023 176.982Z" fill="#DD936F"/>
</svg>
