<svg width="657" height="596" viewBox="0 0 657 596" fill="none" xmlns="http://www.w3.org/2000/svg">
<circle cx="298.291" cy="298.291" r="194.107" fill="#597EF7"/>
<path d="M617 472H387C381.477 472 377 476.477 377 482C377 487.523 381.477 492 387 492H617C622.523 492 627 487.523 627 482C627 476.477 622.523 472 617 472Z" fill="#E4EBF7"/>
<path d="M194.44 477H43.56C39.937 477 37 481.477 37 487C37 492.523 39.937 497 43.56 497H194.44C198.063 497 201 492.523 201 487C201 481.477 198.063 477 194.44 477Z" fill="#E4EBF7"/>
<path d="M412.286 179.004H214.669C210.77 179.004 207.609 182.164 207.609 186.063V322.938C207.609 326.837 210.77 329.997 214.669 329.997H412.286C416.185 329.997 419.346 326.837 419.346 322.938V186.063C419.346 182.164 416.185 179.004 412.286 179.004Z" fill="#CCD7EE"/>
<path d="M379.637 311.727C382.699 311.727 385.182 306.486 385.182 300.022C385.182 293.558 382.699 288.317 379.637 288.317C376.574 288.317 374.092 293.558 374.092 300.022C374.092 306.486 376.574 311.727 379.637 311.727Z" fill="white"/>
<path d="M419.246 225.18H207.711V247.076H419.246V225.18Z" fill="#253368"/>
<path d="M295.996 269.767H225.066C223.766 269.767 222.713 270.821 222.713 272.12V274.978C222.713 276.277 223.766 277.331 225.066 277.331H295.996C297.296 277.331 298.349 276.277 298.349 274.978V272.12C298.349 270.821 297.296 269.767 295.996 269.767Z" fill="#597EF7"/>
<path d="M265.978 292.458H225.066C223.766 292.458 222.713 293.512 222.713 294.811V297.669C222.713 298.968 223.766 300.022 225.066 300.022H265.978C267.277 300.022 268.331 298.968 268.331 297.669V294.811C268.331 293.512 267.277 292.458 265.978 292.458Z" fill="#597EF7"/>
<path d="M243.169 194.221H225.066C223.766 194.221 222.713 195.274 222.713 196.574V206.905C222.713 208.205 223.766 209.258 225.066 209.258H243.169C244.468 209.258 245.522 208.205 245.522 206.905V196.574C245.522 195.274 244.468 194.221 243.169 194.221Z" fill="white"/>
<path d="M374.089 300.022C374.085 295.485 376.122 291.186 379.637 288.317C373.474 283.266 364.45 283.862 359.005 289.679C353.56 295.495 353.56 304.539 359.005 310.355C364.45 316.172 373.474 316.768 379.637 311.717C376.125 308.85 374.088 304.556 374.089 300.022Z" fill="#FF7946"/>
<path d="M389.217 284.895C385.723 284.89 382.336 286.1 379.637 288.317C383.143 291.19 385.175 295.484 385.175 300.017C385.175 304.55 383.143 308.844 379.637 311.717C384.789 315.944 392.101 316.301 397.641 312.596C403.181 308.891 405.643 301.997 403.704 295.62C401.765 289.244 395.881 284.888 389.217 284.895Z" fill="#FAAD14"/>
<path fill-rule="evenodd" clip-rule="evenodd" d="M211.53 407.494C217.601 400.013 216.742 389.085 209.576 382.645L181.174 357.119C172.737 349.537 159.67 350.562 152.519 359.368C145.41 368.121 147.021 381.032 156.061 387.772L186.676 410.598C194.452 416.395 205.418 415.026 211.53 407.494Z" fill="#4E5C93"/>
<path fill-rule="evenodd" clip-rule="evenodd" d="M151.547 427.643C160.536 424.176 165.229 414.27 162.219 405.118L150.287 368.842C146.743 358.066 134.9 352.453 124.314 356.532C113.792 360.587 108.763 372.586 113.25 382.931L128.445 417.966C132.305 426.865 142.497 431.134 151.547 427.643Z" fill="#4E5C93"/>
<path fill-rule="evenodd" clip-rule="evenodd" d="M149.156 441.351L140.681 452.699C140.681 452.699 145.106 457.312 150.416 459.864C159.501 464.231 155.909 464.982 165.476 472.169C173.902 478.498 182.43 477.756 179.694 473.427C175.922 467.458 173.478 462.541 171.956 459.038C170.486 455.656 170.159 451.899 170.957 448.299C172.203 442.672 173.543 433.698 170.361 430.498C162.86 422.956 149.156 441.351 149.156 441.351Z" fill="#E4EBF7"/>
<path fill-rule="evenodd" clip-rule="evenodd" d="M178.387 472.92C178.387 472.92 177.6 474.224 171.208 473.11C163.761 471.813 156.746 462.917 152.339 458.213C145.552 450.968 143.844 452.115 143.034 450.035C140.309 451.355 140.427 454.377 140.427 454.377C140.427 454.377 141.595 456.382 147.821 460.143C154.046 463.904 152.942 465.526 160.122 471.211C170.236 479.22 177.56 479.505 179.346 477.517C181.592 475.016 180.281 472.632 178.387 472.92Z" fill="#A3B5D6"/>
<path fill-rule="evenodd" clip-rule="evenodd" d="M208.4 383.067C200.193 376.93 188.516 378.944 182.842 387.477C171.942 403.869 156.431 427.209 156.431 427.209C156.431 427.209 156.431 427.209 156.431 427.209C152.345 428.404 148.901 434.08 153.382 438.803C161.92 447.803 171.253 451.956 176.081 451.946C180.909 451.936 182.446 443.961 182.447 443.958L182.818 443.375C182.818 443.375 199.324 423.405 211.46 408.755C217.972 400.893 216.576 389.181 208.4 383.067Z" fill="#4E5C93"/>
<path fill-rule="evenodd" clip-rule="evenodd" d="M175.785 337.712C175.785 337.712 179.237 359.472 178.338 368.07C177.439 376.668 156.512 388.283 143.28 388.697C136.179 388.92 121.555 391.18 113.487 381.87C105.418 372.559 106.468 353.089 108.301 347.418C109.621 343.329 111.418 338.07 111.418 338.07C111.418 338.07 169.948 337.894 175.785 337.712Z" fill="#4E5C93"/>
<path d="M169.719 370.362C169.8 370.189 170.006 370.114 170.179 370.195C170.352 370.276 170.426 370.482 170.346 370.655L170.302 370.744C170.217 370.909 170.071 371.159 169.855 371.482C169.43 372.119 168.87 372.826 168.159 373.586C166.139 375.745 163.314 377.899 159.553 379.906C158.369 380.537 157.108 381.145 155.764 381.727C155.589 381.803 155.386 381.722 155.31 381.547C155.234 381.372 155.314 381.168 155.49 381.093C156.816 380.518 158.061 379.918 159.227 379.296C162.922 377.325 165.686 375.217 167.654 373.114C168.339 372.382 168.876 371.704 169.28 371.098C169.393 370.93 169.488 370.777 169.567 370.642L169.676 370.448C169.697 370.408 169.711 370.379 169.719 370.362Z" fill="#253368"/>
<path d="M154.761 353.043C154.946 352.994 155.135 353.105 155.183 353.29L155.263 353.609L155.362 354.03C155.385 354.13 155.409 354.235 155.433 354.345L155.47 354.513C155.684 355.49 155.898 356.595 156.098 357.806C156.999 363.271 157.314 368.905 156.693 374.173C156.418 376.507 155.962 378.7 155.309 380.728L155.211 381.024L163.355 407.394C163.407 407.561 163.325 407.738 163.17 407.809L163.127 407.826C162.959 407.878 162.783 407.796 162.711 407.642L162.694 407.598L154.518 381.122C154.497 381.053 154.498 380.978 154.521 380.909C155.23 378.818 155.719 376.536 156.006 374.092C156.619 368.897 156.308 363.325 155.416 357.918C155.238 356.839 155.049 355.846 154.858 354.954L154.795 354.661C154.746 354.436 154.699 354.229 154.655 354.04L154.532 353.534C154.525 353.505 154.519 353.482 154.514 353.465C154.466 353.28 154.576 353.091 154.761 353.043Z" fill="#253368"/>
<path d="M109.441 345.744C109.51 345.566 109.71 345.478 109.888 345.548C121.43 350.046 132.612 352.285 143.282 352.648C151.455 352.927 158.808 352.097 165.186 350.545C167.121 350.074 168.82 349.569 170.267 349.065L170.634 348.935C170.929 348.83 171.197 348.729 171.438 348.635L171.796 348.492C171.899 348.45 171.973 348.419 172.018 348.399C172.192 348.321 172.397 348.4 172.474 348.575C172.551 348.749 172.473 348.953 172.298 349.031L172.178 349.082L171.835 349.222L171.538 349.338C171.229 349.456 170.881 349.584 170.495 349.718C169.026 350.229 167.307 350.74 165.35 351.216C158.912 352.784 151.497 353.62 143.258 353.339C132.511 352.974 121.252 350.719 109.637 346.192C109.459 346.122 109.371 345.922 109.441 345.744Z" fill="#253368"/>
<path d="M149.829 338.568C150.004 338.569 150.148 338.7 150.17 338.868L150.173 338.915L150.137 350.213C150.137 350.404 149.981 350.558 149.79 350.557C149.615 350.557 149.471 350.426 149.449 350.258L149.446 350.211L149.482 338.913C149.482 338.722 149.638 338.568 149.829 338.568Z" fill="#253368"/>
<path d="M175.489 337.375C175.68 337.37 175.839 337.52 175.845 337.711C175.849 337.886 175.723 338.034 175.555 338.062L175.508 338.066L109.144 339.867C108.953 339.873 108.794 339.722 108.789 339.531C108.785 339.356 108.911 339.208 109.079 339.181L109.126 339.176L175.489 337.375Z" fill="#253368"/>
<path fill-rule="evenodd" clip-rule="evenodd" d="M155.32 480.509L158.147 494.388C158.147 494.388 164.534 494.157 169.974 491.894C179.28 488.021 177.449 491.202 189.181 488.848C199.514 486.774 204.637 479.916 199.585 479.076C192.62 477.917 187.325 476.467 183.697 475.271C180.195 474.116 177.173 471.859 175.018 468.866C171.649 464.191 165.845 457.217 161.338 457.461C150.717 458.038 155.32 480.509 155.32 480.509Z" fill="#E4EBF7"/>
<path fill-rule="evenodd" clip-rule="evenodd" d="M198.337 479.713C198.337 479.713 198.786 481.168 193.699 485.197C187.774 489.89 176.466 489.202 170.023 489.359C160.097 489.602 159.816 491.639 157.725 490.859C156.896 493.77 159.229 495.695 159.229 495.695C159.229 495.695 161.504 496.158 168.454 494.016C175.404 491.874 175.881 493.777 184.902 492.205C197.612 489.99 202.7 484.715 202.405 482.058C202.034 478.717 199.384 478.108 198.337 479.713Z" fill="#A3B5D6"/>
<path fill-rule="evenodd" clip-rule="evenodd" d="M141.623 397.156C131.781 400.012 126.356 410.546 129.751 420.215C136.272 438.789 145.562 465.227 145.562 465.227V465.228C144.055 469.209 146.513 475.377 152.981 474.645C165.309 473.249 174.245 468.299 177.144 464.439C180.044 460.58 174.603 454.549 174.601 454.546L174.359 453.899C174.359 453.899 168.358 428.696 163.972 410.184C161.618 400.25 151.428 394.311 141.623 397.156Z" fill="#4E5C93"/>
<path fill-rule="evenodd" clip-rule="evenodd" d="M122.232 242.133C122.232 242.133 120.103 248.561 123.806 250.501C127.059 252.205 130.232 251.656 130.613 247.177C130.994 242.699 129.412 230.438 126.492 230.833C123.573 231.229 122.232 242.133 122.232 242.133Z" fill="#4A3D39"/>
<path fill-rule="evenodd" clip-rule="evenodd" d="M151.341 243.374L151.108 255.611C150.976 262.588 145.429 268.253 138.456 268.534C130.783 268.843 124.47 262.555 124.749 254.881L125.206 242.269L151.341 243.374Z" fill="#9E7D6C"/>
<path fill-rule="evenodd" clip-rule="evenodd" d="M138.528 255.117C138.528 255.117 145.917 255.947 150.554 252.982C156.12 249.425 154.653 237.618 154.525 233.769C154.301 227.016 151.339 223.434 151.339 223.434C151.339 223.434 148.373 217.742 136.555 217.765C124.736 217.789 124.336 228.764 124.345 233.829C124.356 238.894 125.659 248.509 128.812 251.126C132.617 254.284 138.528 255.117 138.528 255.117Z" fill="#B0927B"/>
<path fill-rule="evenodd" clip-rule="evenodd" d="M153.883 229.549C153.883 229.549 158.939 224.474 157.031 220.468C155.124 216.462 151.324 216.048 147.105 217.111C142.887 218.174 126.386 213.509 124.534 222.432C117.373 230.255 122.605 237.071 122.605 237.071C122.605 237.071 125.566 233.803 126.627 236.544C127.687 239.286 128.517 241.148 129.359 240.303C130.202 239.457 129.432 236.199 130.907 234.719C132.38 233.239 134.203 228.677 132.982 225.581C132.556 223.682 148.384 223.44 151.764 224.911C153.67 225.74 153.883 229.549 153.883 229.549Z" fill="#4A3D39"/>
<path d="M148.551 231.02C150.412 230.667 151.77 230.86 152.686 231.435C153.082 231.684 153.324 231.956 153.443 232.178C153.624 232.515 153.498 232.934 153.162 233.115C152.845 233.285 152.455 233.184 152.26 232.891L152.225 232.834C152.214 232.813 152.133 232.721 151.95 232.606C151.351 232.23 150.346 232.087 148.809 232.378C148.434 232.45 148.072 232.203 148.001 231.828C147.93 231.453 148.176 231.091 148.551 231.02Z" fill="#4A3D39"/>
<path d="M137.743 231.303C138.903 230.97 140.118 230.952 141.248 231.119L141.43 231.147C141.598 231.176 141.729 231.203 141.814 231.224C142.185 231.316 142.411 231.691 142.319 232.062C142.227 232.432 141.852 232.658 141.481 232.566L141.368 232.542C141.287 232.526 141.179 232.506 141.047 232.487C140.094 232.347 139.067 232.361 138.124 232.632C137.839 232.714 137.569 232.817 137.316 232.945C136.975 233.116 136.559 232.979 136.388 232.637C136.216 232.296 136.354 231.881 136.695 231.709C137.027 231.542 137.377 231.407 137.743 231.303Z" fill="#4A3D39"/>
<path d="M146.186 234.748C146.296 234.657 146.46 234.672 146.551 234.783L146.645 234.9L146.76 235.05C146.801 235.103 146.843 235.16 146.887 235.219C147.136 235.559 147.386 235.93 147.619 236.319C148.002 236.959 148.303 237.587 148.49 238.181C149.193 240.41 148.196 241.823 145.067 241.829C144.924 241.829 144.807 241.713 144.807 241.57C144.807 241.427 144.923 241.31 145.066 241.31C147.841 241.305 148.594 240.236 147.995 238.337C147.822 237.786 147.538 237.194 147.174 236.586C146.95 236.211 146.709 235.854 146.469 235.526L146.347 235.364L146.184 235.154C146.17 235.136 146.159 235.122 146.151 235.113C146.06 235.003 146.075 234.839 146.186 234.748Z" fill="#7C5B4D"/>
<path d="M140.92 236.558C141.111 236.558 141.266 236.712 141.266 236.903C141.268 237.84 140.609 238.622 139.764 238.623C138.917 238.625 138.255 237.846 138.253 236.909C138.252 236.718 138.407 236.563 138.598 236.562C138.789 236.562 138.944 236.716 138.944 236.907C138.946 237.486 139.326 237.933 139.762 237.932C140.198 237.931 140.576 237.482 140.575 236.905C140.574 236.714 140.729 236.559 140.92 236.558Z" fill="#4A3D39"/>
<path d="M151.893 236.536C152.084 236.535 152.239 236.69 152.24 236.881C152.243 237.818 151.583 238.6 150.738 238.601C149.892 238.603 149.229 237.824 149.228 236.887C149.227 236.696 149.382 236.541 149.573 236.541C149.764 236.54 149.919 236.695 149.919 236.886C149.92 237.464 150.3 237.911 150.737 237.91C151.172 237.909 151.55 237.461 151.549 236.883C151.548 236.692 151.702 236.536 151.893 236.536Z" fill="#4A3D39"/>
<path fill-rule="evenodd" clip-rule="evenodd" d="M151.302 244.542C151.302 244.542 151.036 241.558 146.882 241.306C143.295 241.089 141.012 241.9 139.751 244.435C138.49 246.97 146.24 244.422 146.24 244.422C146.24 244.422 152.362 247.283 151.302 244.542Z" fill="#4A3D39"/>
<path fill-rule="evenodd" clip-rule="evenodd" d="M120.812 240.072C121.255 242.931 123.247 244.997 125.263 244.685C127.279 244.374 128.554 241.802 128.112 238.943C127.67 236.083 125.677 234.018 123.662 234.329C121.645 234.641 120.37 237.212 120.812 240.072Z" fill="#9E7D6C"/>
<path d="M128.333 248.689C128.43 248.583 128.595 248.577 128.7 248.674C132.724 252.386 136.666 254.369 140.458 254.929C143.301 255.348 145.855 254.948 148.05 254.024C148.604 253.79 149.091 253.541 149.506 253.292L149.707 253.167L149.879 253.053C149.941 253.011 149.981 252.982 150 252.968C150.114 252.881 150.277 252.903 150.363 253.017C150.45 253.13 150.428 253.293 150.315 253.38L150.211 253.455L150.172 253.481C150.059 253.559 149.926 253.644 149.773 253.736C149.337 253.998 148.829 254.259 148.251 254.502C145.973 255.46 143.324 255.876 140.382 255.442C136.483 254.866 132.446 252.836 128.348 249.055C128.243 248.958 128.236 248.794 128.333 248.689Z" fill="#7C5B4D"/>
<path d="M144.847 251.175C144.99 251.162 145.116 251.267 145.129 251.409L145.136 251.512C145.162 252.011 145.123 252.591 144.967 253.149C144.701 254.097 144.147 254.752 143.241 254.935C143.1 254.963 142.964 254.873 142.935 254.732C142.907 254.592 142.998 254.455 143.138 254.427C143.826 254.288 144.249 253.787 144.467 253.01C144.591 252.569 144.632 252.104 144.624 251.691L144.618 251.539C144.616 251.498 144.614 251.47 144.613 251.457C144.6 251.315 144.704 251.188 144.847 251.175Z" fill="#7C5B4D"/>
<path d="M123.773 236.68L123.85 236.682C124.167 236.696 124.592 236.802 125.019 237.078C125.784 237.572 126.241 238.456 126.243 239.79C126.244 239.91 126.161 240.015 126.044 240.042C125.113 240.263 124.709 240.568 124.684 240.91C124.661 241.21 124.908 241.614 125.388 242.083C125.49 242.184 125.492 242.348 125.392 242.45C125.291 242.552 125.127 242.554 125.025 242.454C124.444 241.886 124.129 241.369 124.167 240.871C124.21 240.295 124.712 239.874 125.674 239.603L125.72 239.59L125.717 239.509C125.662 238.556 125.332 237.935 124.813 237.565L124.738 237.513C124.525 237.376 124.295 237.287 124.066 237.237C123.952 237.213 123.861 237.202 123.804 237.2L123.773 237.199C123.63 237.199 123.514 237.083 123.514 236.94C123.513 236.811 123.607 236.704 123.731 236.684L123.773 236.68Z" fill="#7C5B4D"/>
<path fill-rule="evenodd" clip-rule="evenodd" d="M109.745 340.878C112.56 342.862 119.844 346.385 138.469 347.459C146.987 347.95 157.812 348.155 167.157 345.819C191.292 339.786 176.711 312.066 176.711 312.066C177.211 305.48 174.76 293.028 174.76 293.028C178.15 276.467 176.776 265.41 176.776 265.41C169.185 259.635 164.253 258.856 153.53 258.217C148.725 257.931 145.881 266.467 140.731 266.566C134.529 266.687 130.183 255.234 123.878 257.054C114.936 259.635 108.073 260.015 100.4 267.422C92.2305 275.633 95.422 287.146 98.8424 301.684C100.933 310.567 105.495 321.125 106.695 327.316C106.695 327.316 104.385 337.101 109.745 340.878Z" fill="#E4EBF7"/>
<path fill-rule="evenodd" clip-rule="evenodd" d="M213.962 304.575C209.811 311.745 200.606 314.149 193.479 309.924L162.071 291.301C155.049 287.137 152.688 278.096 156.779 271.031C160.929 263.86 170.135 261.457 177.262 265.682L208.669 284.305C215.691 288.469 218.052 297.509 213.962 304.575Z" fill="#E4EBF7"/>
<path fill-rule="evenodd" clip-rule="evenodd" d="M225.219 266.042C225.219 266.042 223.23 261.18 227.726 255.207C231.202 250.588 230.411 249.337 231.733 246.474C233.056 243.611 234.616 247.232 233.276 252.961C232.003 257.048 242.575 251.243 245.661 246.491C248.657 241.879 253.647 259.206 235.285 267.406C226.233 271.448 225.219 266.042 225.219 266.042Z" fill="#B0927B"/>
<path d="M245.217 254.112C246.061 252.429 246.826 251.906 247.436 252.141C247.488 252.161 247.528 252.184 247.556 252.204C247.67 252.29 247.694 252.452 247.609 252.567C247.533 252.669 247.396 252.699 247.286 252.645L247.253 252.626C247.167 252.593 247.039 252.609 246.844 252.742C246.522 252.962 246.154 253.43 245.752 254.205L245.681 254.345C244.172 257.352 241.186 259.101 236.387 260.02L236.133 260.068C234.311 260.402 233.109 261.168 232.4 262.234C232.086 262.706 231.887 263.212 231.781 263.724C231.722 264.012 231.699 264.26 231.699 264.446L231.7 264.536C231.709 264.679 231.601 264.802 231.458 264.811C231.329 264.819 231.216 264.731 231.189 264.61L231.182 264.554L231.182 264.538C231.174 264.308 231.197 263.992 231.273 263.619C231.392 263.046 231.615 262.478 231.968 261.947C232.73 260.801 233.994 259.973 235.846 259.596L236.04 259.558C240.76 258.693 243.666 257.059 245.141 254.261L245.217 254.112Z" fill="#7C5B4D"/>
<path d="M246.496 249.75C247.202 249.28 247.86 249.269 248.151 249.827C248.217 249.954 248.168 250.11 248.041 250.177C247.914 250.243 247.757 250.194 247.691 250.067C247.58 249.854 247.268 249.859 246.784 250.181C246.18 250.584 245.514 251.375 244.937 252.434C244.485 253.263 243.773 254.058 242.872 254.809C242.314 255.275 241.717 255.696 241.12 256.066C240.963 256.163 240.815 256.251 240.677 256.33L240.43 256.468C240.381 256.495 240.344 256.515 240.319 256.528C240.191 256.593 240.035 256.542 239.97 256.415C239.905 256.288 239.955 256.131 240.083 256.066L240.233 255.985L240.29 255.954C240.458 255.86 240.645 255.75 240.847 255.625C241.425 255.267 242.002 254.86 242.54 254.411C243.337 253.746 243.975 253.049 244.395 252.338L244.482 252.185C245.096 251.058 245.816 250.204 246.496 249.75Z" fill="#7C5B4D"/>
<path d="M244.337 249.505C245.683 247.593 246.648 247.042 247.292 247.37C247.36 247.404 247.408 247.442 247.44 247.477C247.537 247.582 247.531 247.746 247.426 247.843C247.321 247.94 247.157 247.934 247.06 247.829C247.065 247.835 247.066 247.836 247.064 247.835L247.057 247.832C246.952 247.779 246.768 247.794 246.466 247.976C245.968 248.276 245.34 248.944 244.58 250.065C244.16 250.685 243.692 251.257 243.186 251.783C242.386 252.614 241.53 253.291 240.672 253.827C240.431 253.977 240.204 254.108 239.994 254.219L239.839 254.3C239.687 254.377 239.576 254.428 239.514 254.454C239.382 254.509 239.23 254.446 239.175 254.314C239.12 254.182 239.182 254.03 239.314 253.975L239.405 253.934C239.444 253.916 239.492 253.893 239.547 253.866L239.605 253.837C239.843 253.716 240.11 253.567 240.397 253.387C241.22 252.873 242.044 252.222 242.813 251.423C243.229 250.99 243.618 250.525 243.975 250.026L244.337 249.505Z" fill="#7C5B4D"/>
<path fill-rule="evenodd" clip-rule="evenodd" d="M153.129 260.869C153.129 260.869 152.556 281.577 145.548 298.124C131.278 273.641 123.978 258.004 123.59 257.963L141.158 265.398L153.129 260.869Z" fill="white"/>
<path fill-rule="evenodd" clip-rule="evenodd" d="M148.582 268.463L142.41 264.177L135.621 268.923L139.018 274.618L146.851 274.417L148.582 268.463Z" fill="#253368"/>
<path fill-rule="evenodd" clip-rule="evenodd" d="M150.457 283.131L146.711 274.343L138.928 274.587L136.486 282.01L145.168 299.354L150.457 283.131Z" fill="#253368"/>
<path fill-rule="evenodd" clip-rule="evenodd" d="M152.356 270.566L141.775 264.405L151.792 256.69L153.531 258.324L152.356 270.566Z" fill="white"/>
<path fill-rule="evenodd" clip-rule="evenodd" d="M141.775 264.405L132.906 271.434L123.396 257.968L125.268 255.573L141.775 264.405Z" fill="white"/>
<path fill-rule="evenodd" clip-rule="evenodd" d="M152.754 271.059L142.159 264.198L151.893 255.778L154.606 258.808L152.754 271.059Z" fill="white"/>
<path d="M151.667 255.516L141.933 263.936C141.759 264.087 141.778 264.363 141.971 264.488L152.566 271.349C152.776 271.486 153.058 271.359 153.095 271.111L154.948 258.86C154.963 258.758 154.932 258.655 154.863 258.578L152.151 255.547C152.025 255.407 151.81 255.393 151.667 255.516ZM151.862 256.262L154.239 258.918L152.492 270.477L142.733 264.158L151.862 256.262Z" fill="#E4EBF7"/>
<path fill-rule="evenodd" clip-rule="evenodd" d="M142.159 264.198L131.142 271.649L122.421 257.489L125.885 254.515L142.159 264.198Z" fill="white"/>
<path d="M142.804 264.179L125.848 254.091L121.972 257.419L131.037 272.138L142.804 264.179ZM125.921 254.939L141.514 264.216L131.247 271.16L122.87 257.558L125.921 254.939Z" fill="#E4EBF7"/>
<path d="M145.315 300.701C145.489 300.681 145.647 300.794 145.689 300.959L145.698 301.005L147.244 314.543L147.348 314.697L147.386 314.755C147.536 314.99 147.704 315.272 147.883 315.604C148.393 316.547 148.902 317.696 149.376 319.059C151.715 325.786 152.372 334.873 150.335 346.529C150.302 346.717 150.123 346.843 149.935 346.81C149.746 346.777 149.621 346.598 149.654 346.41C151.671 334.868 151.023 325.9 148.723 319.286C148.262 317.958 147.768 316.843 147.275 315.933C147.133 315.67 146.999 315.44 146.876 315.243L146.739 315.03C146.69 314.956 146.655 314.906 146.635 314.879C146.607 314.842 146.587 314.8 146.576 314.756L146.568 314.711L145.011 301.084C144.989 300.894 145.125 300.723 145.315 300.701Z" fill="#A3B5D6"/>
<path d="M174.343 286.285C174.517 286.269 174.673 286.384 174.712 286.55L174.72 286.596L177.172 312.302L177.316 312.607L177.457 312.914C177.554 313.13 177.657 313.365 177.766 313.62C178.229 314.711 178.693 315.931 179.125 317.25C180.501 321.446 181.26 325.67 181.079 329.623C180.771 336.356 177.76 341.531 171.417 344.474L171.128 344.606C171.058 344.637 170.958 344.68 170.828 344.733L170.556 344.843C170.316 344.936 170.047 345.036 169.746 345.141C168.549 345.561 167.109 345.979 165.422 346.369C160.024 347.619 153.402 348.301 145.535 348.122C135.305 347.888 123.785 346.202 110.953 342.769C110.768 342.72 110.659 342.531 110.708 342.346C110.757 342.162 110.947 342.052 111.131 342.102C123.912 345.52 135.377 347.198 145.551 347.43C153.36 347.609 159.924 346.932 165.266 345.696C166.928 345.311 168.345 344.9 169.518 344.489L169.854 344.369C170.121 344.271 170.359 344.179 170.565 344.094L170.844 343.975L170.908 343.946C177.152 341.134 180.088 336.157 180.388 329.591C180.565 325.734 179.82 321.589 178.468 317.466C178.042 316.166 177.586 314.964 177.129 313.891L176.974 313.53C176.873 313.299 176.778 313.088 176.689 312.898L176.525 312.552C176.512 312.527 176.503 312.5 176.497 312.473L176.49 312.431L174.031 286.662C174.013 286.472 174.153 286.303 174.343 286.285Z" fill="#A3B5D6"/>
<path d="M122.01 257.226C122.159 257.106 122.377 257.129 122.496 257.278C124.79 260.127 127.723 264.909 131.153 271.244L131.341 271.591C132.314 273.395 133.319 275.307 134.349 277.313C136.75 281.989 139.189 286.975 141.556 291.982L142.465 293.913C142.862 294.76 143.242 295.577 143.605 296.36L144.583 298.485L145.015 299.433L145.024 299.41C146.41 295.479 147.841 290.296 149.287 284.151L149.496 283.256C150.658 278.251 151.764 272.911 152.786 267.55L152.989 266.477C153.25 265.091 153.492 263.773 153.713 262.54L154.034 260.732L154.357 258.851C154.389 258.663 154.567 258.536 154.755 258.567C154.928 258.596 155.049 258.748 155.044 258.918L155.016 259.106L154.677 261.067L154.467 262.254C154.225 263.605 153.958 265.063 153.668 266.605C152.59 272.334 151.411 278.064 150.17 283.412L149.962 284.3C148.407 290.914 146.867 296.42 145.376 300.472C145.269 300.763 144.863 300.777 144.736 300.495L143.843 298.531L143.157 297.038C142.623 295.883 142.048 294.648 141.437 293.35C138.916 287.99 136.302 282.631 133.734 277.629L133.052 276.309C132.375 275.002 131.709 273.739 131.057 272.523L130.367 271.244C127.031 265.107 124.178 260.47 121.958 257.712C121.838 257.563 121.862 257.345 122.01 257.226Z" fill="#A3B5D6"/>
<path d="M134.023 315.496C141.613 314.622 148.158 314.518 153.378 314.875L153.717 314.899C154.263 314.938 154.748 314.981 155.17 315.023L155.465 315.054L155.913 315.108C156.102 315.134 156.234 315.308 156.209 315.497C156.183 315.686 156.008 315.819 155.819 315.793L155.496 315.754L155.274 315.729C154.82 315.681 154.283 315.633 153.667 315.588L152.991 315.542C147.868 315.215 141.484 315.333 134.102 316.183C133.912 316.205 133.741 316.069 133.719 315.879C133.697 315.689 133.833 315.518 134.023 315.496Z" fill="#A3B5D6"/>
<path d="M140.092 309.04L140.501 309.064C141.518 309.118 143.162 309.162 145.264 309.198L146.397 309.216C146.972 309.224 147.56 309.231 148.153 309.238L151.196 309.264C151.387 309.265 151.541 309.421 151.54 309.612C151.539 309.787 151.408 309.931 151.239 309.953L151.175 309.956L149.336 309.941C148.54 309.934 147.745 309.925 146.967 309.915L145.252 309.889C142.826 309.848 141.01 309.796 140.044 309.73C139.854 309.716 139.71 309.551 139.723 309.361C139.735 309.186 139.875 309.051 140.045 309.04L140.092 309.04Z" fill="#A3B5D6"/>
<path fill-rule="evenodd" clip-rule="evenodd" d="M121.143 269.506L140.85 295.851C145.751 302.402 144.448 311.68 137.933 316.63C131.35 321.631 121.952 320.312 117 313.691L97.2935 287.347" fill="#E4EBF7"/>
<path fill-rule="evenodd" clip-rule="evenodd" d="M181.184 282.232C181.184 282.232 170.376 286.999 166.171 283.376C162.363 280.094 165.875 276.381 165.875 276.381C165.875 276.381 169.133 270.74 173.774 267.46C176.814 265.311 181.985 260.364 183.503 261.625C185.482 263.269 179.37 267.464 179.764 269.294C180.562 273.003 190.873 267.415 193.031 267.406C197.25 267.39 194.191 276.614 181.184 282.232Z" fill="#B0927B"/>
<path d="M193.508 269.1C193.621 269.012 193.784 269.032 193.872 269.145C193.959 269.258 193.939 269.421 193.826 269.509C192.975 270.171 192.035 270.769 191.021 271.307C189.362 272.187 187.587 272.867 185.812 273.373C185.28 273.525 184.78 273.651 184.321 273.755L184.095 273.804C183.959 273.834 183.834 273.859 183.721 273.881L183.438 273.933C183.296 273.956 183.163 273.86 183.14 273.719C183.117 273.577 183.213 273.444 183.354 273.421L183.517 273.392C183.618 273.373 183.732 273.351 183.857 273.325L183.986 273.297C184.494 273.188 185.06 273.048 185.67 272.874C187.412 272.378 189.154 271.71 190.778 270.849C191.767 270.324 192.682 269.742 193.508 269.1Z" fill="#7C5B4D"/>
<path d="M193.258 272.031C193.367 271.938 193.531 271.951 193.624 272.06C193.717 272.169 193.703 272.333 193.594 272.426L193.53 272.479C193.465 272.532 193.371 272.605 193.25 272.696L192.996 272.882C192.774 273.041 192.524 273.212 192.247 273.392C191.142 274.109 189.827 274.825 188.308 275.493C186.774 276.168 185.112 276.756 183.323 277.233C183.185 277.27 183.043 277.187 183.006 277.049C182.969 276.911 183.051 276.769 183.19 276.732C184.952 276.262 186.589 275.683 188.099 275.019C189.592 274.362 190.882 273.659 191.965 272.957C192.289 272.747 192.574 272.55 192.819 272.37L193.064 272.186C193.156 272.115 193.221 272.062 193.258 272.031Z" fill="#7C5B4D"/>
<path d="M189.781 276.421C189.902 276.353 190.055 276.395 190.123 276.516C190.191 276.636 190.148 276.789 190.028 276.857C187.919 278.049 186.012 278.923 184.341 279.53C183.754 279.742 183.238 279.907 182.797 280.028L182.482 280.111L182.249 280.164C182.113 280.191 181.982 280.102 181.955 279.967C181.928 279.831 182.017 279.699 182.153 279.672L182.284 279.643C182.378 279.621 182.505 279.589 182.664 279.545C183.092 279.427 183.596 279.267 184.17 279.058C185.815 278.461 187.697 277.598 189.781 276.421Z" fill="#4E5C93"/>
<path fill-rule="evenodd" clip-rule="evenodd" d="M225.715 261.671L234.887 268.42C237.573 270.398 238.19 274.159 236.275 276.891L215.173 307.004C210.125 313.499 200.769 314.672 194.275 309.625C187.9 304.671 186.652 295.565 191.382 289.089C191.559 288.846 191.759 288.62 191.97 288.407L217.702 262.306C219.845 260.133 223.257 259.863 225.715 261.671Z" fill="#E4EBF7"/>
<path fill-rule="evenodd" clip-rule="evenodd" d="M122.541 294.694C122.643 294.621 122.75 294.552 122.858 294.488L160.723 271.961C162.417 270.953 164.603 271.436 165.716 273.062L175.44 287.274C176.563 288.913 176.204 291.145 174.625 292.352L139.729 319.018C132.983 323.722 123.7 322.065 118.996 315.318" fill="#E4EBF7"/>
<path d="M159.855 271.664C161.669 270.585 163.999 271.069 165.235 272.762L165.31 272.867L175.034 287.079C176.236 288.834 175.884 291.211 174.246 292.546L174.144 292.626L139.236 319.302C132.332 324.115 122.834 322.42 118.021 315.516C117.912 315.359 117.95 315.144 118.107 315.034C118.264 314.925 118.479 314.964 118.588 315.12C123.137 321.645 132.069 323.296 138.63 318.879L138.828 318.744L173.724 292.077C175.125 291.006 175.467 289.046 174.53 287.569L174.464 287.469L164.739 273.257C163.752 271.814 161.833 271.364 160.312 272.199L160.209 272.258L122.344 294.785C122.236 294.85 122.139 294.912 122.051 294.975C121.896 295.086 121.68 295.051 121.569 294.895C121.457 294.74 121.493 294.524 121.648 294.413C121.718 294.363 121.792 294.314 121.87 294.265L121.99 294.191L159.855 271.664Z" fill="#A3B5D6"/>
<path fill-rule="evenodd" clip-rule="evenodd" d="M459.603 279.663L453.988 264.364C453.988 264.364 445.769 252.227 443.206 253.204C440.853 254.452 446.631 257.668 447.994 261.169C445.664 261.179 446.977 264.54 446.977 264.54C446.977 264.54 445.127 264.612 445.835 267.378C444.2 268.519 445.815 271.632 445.815 271.632C445.815 271.632 449.899 279.849 454.139 285.214C454.139 285.214 460.834 289.612 459.603 279.663Z" fill="#FFC999"/>
<path fill-rule="evenodd" clip-rule="evenodd" d="M458.219 274.455C458.219 274.455 457.152 269.144 456.45 266.45C455.749 263.756 456.531 258.735 454.634 260.193C453.359 261.174 453.815 264.09 454.027 266.25C454.239 268.411 451.127 273.803 454.005 277.157C455.949 279.423 458.753 279.529 458.219 274.455Z" fill="#FFC999"/>
<path d="M447.763 260.961C447.648 261.088 447.657 261.285 447.785 261.4L447.929 261.533C448.046 261.643 448.176 261.768 448.316 261.907C448.717 262.304 449.118 262.729 449.491 263.163C449.874 263.61 450.207 264.043 450.473 264.449C451.28 265.684 451.374 266.485 450.693 266.831C450.54 266.909 450.479 267.096 450.557 267.249C450.635 267.402 450.822 267.463 450.975 267.385C452.117 266.805 451.978 265.614 450.994 264.11C450.712 263.678 450.363 263.225 449.963 262.759C449.578 262.31 449.166 261.874 448.755 261.466L448.546 261.263L448.202 260.939C448.075 260.824 447.878 260.834 447.763 260.961Z" fill="#DD936F"/>
<path d="M446.943 264.457C446.849 264.601 446.89 264.793 447.034 264.887L447.181 264.986C447.3 265.067 447.433 265.16 447.576 265.264C447.986 265.559 448.395 265.877 448.776 266.205C449.229 266.594 449.61 266.971 449.896 267.322C450.507 268.071 450.602 268.569 450.193 268.864C449.966 269.027 449.688 269.055 449.346 268.956C448.996 268.855 448.607 268.629 448.207 268.314C448.004 268.154 447.811 267.981 447.636 267.809L447.482 267.653C447.456 267.625 447.435 267.602 447.419 267.585C447.305 267.457 447.108 267.445 446.98 267.559C446.851 267.673 446.84 267.869 446.954 267.998L447.028 268.077C447.073 268.125 447.131 268.184 447.2 268.252C447.39 268.439 447.599 268.626 447.821 268.801C448.279 269.162 448.733 269.426 449.173 269.553C449.686 269.701 450.16 269.654 450.557 269.367C451.352 268.794 451.185 267.919 450.379 266.93C450.067 266.547 449.661 266.146 449.183 265.734C448.787 265.394 448.364 265.065 447.941 264.76L447.727 264.608L447.374 264.367C447.23 264.273 447.037 264.314 446.943 264.457Z" fill="#DD936F"/>
<path d="M446.493 267.226C446.322 267.212 446.172 267.34 446.158 267.511C446.144 267.682 446.272 267.832 446.443 267.845C446.809 267.875 447.302 268.17 447.915 268.789C449.201 270.087 449.509 270.949 449.195 271.166C448.862 271.396 447.978 271.072 447.368 270.327C447.123 270.028 446.66 270.354 446.861 270.684C447.522 271.774 448.253 272.584 449.089 273.207L449.259 273.332C449.78 273.706 450.173 273.917 451.063 274.311L451.696 274.588C453.595 275.409 454.336 276.093 454.872 277.999C454.918 278.164 455.09 278.26 455.256 278.214C455.421 278.168 455.518 277.996 455.471 277.831C454.893 275.774 454.045 274.951 452.108 274.09L451.2 273.692C450.348 273.311 450.003 273.113 449.461 272.709C449.131 272.463 448.818 272.185 448.519 271.866L448.447 271.787L448.516 271.805C448.877 271.891 449.215 271.869 449.479 271.721L449.549 271.677C450.33 271.138 449.885 269.893 448.358 268.352C447.649 267.637 447.036 267.27 446.493 267.226Z" fill="#DD936F"/>
<path d="M453.764 263.239C453.61 263.238 453.48 263.35 453.455 263.497L453.451 263.548L453.421 267.623L453.324 267.83L453.289 267.909C453.166 268.187 453.044 268.496 452.93 268.829C452.58 269.854 452.38 270.886 452.409 271.858C452.436 272.756 452.66 273.558 453.115 274.23C453.211 274.373 453.404 274.41 453.547 274.314C453.689 274.218 453.727 274.025 453.63 273.883C453.247 273.316 453.055 272.628 453.031 271.84C453.005 270.952 453.191 269.99 453.519 269.03C453.606 268.777 453.697 268.539 453.789 268.321L453.858 268.16C453.904 268.056 453.943 267.973 453.972 267.913L454.009 267.839C454.023 267.81 454.034 267.779 454.039 267.747L454.043 267.699L454.073 263.552C454.074 263.381 453.936 263.241 453.764 263.239Z" fill="#DD936F"/>
<path fill-rule="evenodd" clip-rule="evenodd" d="M514.618 222.182C514.618 222.182 494.1 226.333 494.391 238.141C494.541 244.215 500.71 250.597 497.905 252.553C486.943 260.199 498.284 264.062 490.067 268.202C478.484 274.036 484.233 292.688 495.393 291.311C506.953 289.886 506.881 306.219 526.683 300.812C537.843 297.767 534.841 291.14 542.686 286.881C550.531 282.622 560.877 265.645 550.678 255.759C544.334 249.498 538.516 250.342 534.731 239.681C530.946 229.019 527.439 222.528 522.12 223.605C520.07 220.888 514.618 222.182 514.618 222.182Z" fill="#253368"/>
<path fill-rule="evenodd" clip-rule="evenodd" d="M503.477 248.177C503.412 247.951 503.095 247.95 503.027 248.174C502.432 250.158 501.026 255.505 503.115 255.688C505.471 255.892 504.064 250.234 503.477 248.177Z" fill="white"/>
<path fill-rule="evenodd" clip-rule="evenodd" d="M522.827 265.18C521.711 255.794 521.784 252.101 521.784 252.101L510.071 255.78L509.804 265.788C509.706 269.472 512.683 272.507 516.375 272.487C520.28 272.464 523.287 269.05 522.827 265.18Z" fill="#F4B784"/>
<path fill-rule="evenodd" clip-rule="evenodd" d="M515.727 234.662C515.727 234.662 514.304 231.006 511.801 232.807C510.011 234.095 510.481 233.046 510.067 232.061C508.527 228.401 507.868 237.021 502.048 238.967C501.991 243.575 502.106 258.734 512.082 259.218C515.964 259.406 520.628 256.97 522.571 251.341C523.745 247.939 522.696 244.473 521.33 243.798C516.828 241.578 516.891 239.246 515.727 234.662Z" fill="#FFC999"/>
<path d="M507.916 239.025C507.866 238.861 507.692 238.769 507.527 238.818C507.379 238.863 507.289 239.008 507.309 239.157L507.32 239.206L508.023 241.512L508.009 241.929L507.983 242.459C507.969 242.711 507.952 242.984 507.93 243.277C507.824 244.743 507.645 246.413 507.377 248.255C507.355 248.4 507.44 248.541 507.578 248.591L508.285 248.85L509.482 249.297L510.604 249.723C510.764 249.785 510.944 249.705 511.006 249.545C511.062 249.401 511.002 249.241 510.873 249.165L510.792 249.13L510.109 248.87C509.703 248.716 509.293 248.562 508.895 248.414L508.029 248.093L508.053 247.919C508.271 246.37 508.425 244.947 508.525 243.667L508.551 243.321L508.581 242.892C508.598 242.616 508.612 242.36 508.623 242.126L508.645 241.514L508.646 241.473L508.632 241.379L507.916 239.025Z" fill="#DD936F"/>
<path d="M516.214 243.428C515.804 242.395 515.02 241.828 513.862 242.105C513.093 242.288 512.675 242.841 512.56 243.592C512.505 243.952 512.523 244.326 512.584 244.687L512.61 244.823C512.622 244.883 512.634 244.932 512.644 244.967C512.703 245.182 512.927 245.309 513.143 245.25C513.341 245.195 513.464 245.004 513.437 244.806L513.404 244.653C513.397 244.624 513.391 244.589 513.384 244.55C513.336 244.268 513.322 243.976 513.362 243.714C513.431 243.264 513.637 242.991 514.051 242.893C514.759 242.724 515.183 243.031 515.459 243.727C515.546 243.946 515.608 244.185 515.648 244.424L515.668 244.556C515.679 244.635 515.684 244.696 515.686 244.734C515.698 244.957 515.888 245.129 516.112 245.117C516.336 245.106 516.508 244.915 516.497 244.692L516.489 244.589C516.481 244.509 516.468 244.409 516.449 244.291C516.4 243.999 516.324 243.706 516.214 243.428Z" fill="#253368"/>
<path d="M506.684 244.057C506.411 243.079 505.738 242.493 504.644 242.631C503.85 242.731 503.406 243.277 503.26 244.054C503.194 244.407 503.194 244.773 503.233 245.117C503.242 245.204 503.252 245.27 503.26 245.31C503.301 245.531 503.513 245.676 503.735 245.635C503.956 245.594 504.102 245.382 504.061 245.161L504.048 245.073C504.046 245.059 504.044 245.044 504.042 245.027C504.012 244.756 504.012 244.466 504.061 244.204C504.148 243.741 504.354 243.487 504.746 243.438C505.388 243.357 505.725 243.651 505.9 244.276C505.978 244.556 506.008 244.855 506.007 245.118L506.002 245.283C505.984 245.507 506.152 245.703 506.377 245.72C506.601 245.738 506.797 245.57 506.814 245.346L506.818 245.281C506.834 244.912 506.803 244.48 506.684 244.057Z" fill="#253368"/>
<path d="M514.527 250.364C514.45 250.154 514.216 250.047 514.006 250.124C512.196 250.792 510.5 250.96 509.154 250.852L508.982 250.836C508.954 250.833 508.932 250.83 508.917 250.828C508.695 250.795 508.489 250.947 508.456 251.169C508.423 251.39 508.576 251.596 508.798 251.629L508.884 251.64C508.938 251.646 509.006 251.653 509.089 251.659C510.544 251.776 512.356 251.596 514.287 250.884C514.498 250.806 514.605 250.573 514.527 250.364Z" fill="#C44343"/>
<path d="M506.275 238.424C505.143 238.176 503.948 238.156 502.843 238.27L502.588 238.299L502.335 238.336C502.114 238.374 501.967 238.584 502.005 238.804C502.044 239.025 502.254 239.172 502.475 239.134L502.618 239.112C502.699 239.101 502.803 239.088 502.926 239.076C503.953 238.97 505.066 238.989 506.101 239.215C506.42 239.285 506.722 239.374 507.005 239.482C507.214 239.562 507.449 239.457 507.529 239.248C507.609 239.039 507.504 238.805 507.295 238.725C506.972 238.602 506.632 238.502 506.275 238.424Z" fill="#253368"/>
<path d="M517.15 237.875C516.949 237.875 516.743 237.88 516.534 237.889C515.417 237.936 514.226 238.102 513.026 238.349C512.624 238.431 512.243 238.519 511.888 238.607L511.519 238.702L511.084 238.823C510.87 238.887 510.748 239.113 510.813 239.327C510.877 239.542 511.103 239.663 511.318 239.599L511.639 239.508C511.697 239.493 511.762 239.475 511.832 239.457C512.245 239.35 512.702 239.242 513.19 239.142C514.351 238.903 515.5 238.743 516.568 238.698C516.767 238.689 516.961 238.685 517.151 238.685C517.375 238.685 517.556 238.503 517.556 238.28C517.556 238.056 517.374 237.875 517.15 237.875Z" fill="#253368"/>
<path d="M511.823 252.943L510.739 252.986C510.567 252.992 510.433 253.137 510.44 253.308C510.446 253.463 510.564 253.586 510.713 253.604L510.763 253.607L511.848 253.564C512.019 253.557 512.153 253.412 512.146 253.241C512.14 253.087 512.022 252.963 511.874 252.945L511.823 252.943Z" fill="#DD936F"/>
<path fill-rule="evenodd" clip-rule="evenodd" d="M528.234 245.961C528.962 242.05 525.226 242.385 525.226 242.385C525.226 242.385 525.254 246.262 524.328 249.753C528.076 249.542 528.234 245.961 528.234 245.961Z" fill="#FFC999"/>
<path fill-rule="evenodd" clip-rule="evenodd" d="M526.192 248.741C526.128 248.516 525.81 248.514 525.743 248.739C525.147 250.723 523.742 256.07 525.831 256.252C528.186 256.457 526.78 250.799 526.192 248.741Z" fill="white"/>
<path fill-rule="evenodd" clip-rule="evenodd" d="M467.682 311.892C467.682 311.892 483.133 286.885 486.626 282.402C495.061 271.572 503.709 274.151 505.589 281.749C507.854 290.909 478.527 320.883 478.527 320.883C478.527 320.883 474.928 325.314 469.438 322.14C462.948 318.389 467.682 311.892 467.682 311.892Z" fill="#FFC999"/>
<path fill-rule="evenodd" clip-rule="evenodd" d="M477.746 295.018C479.379 292.688 490.874 270.048 500.166 275.793C508.039 280.659 506.303 288.622 493.468 304.568L477.746 295.018Z" fill="#597EF7"/>
<path fill-rule="evenodd" clip-rule="evenodd" d="M449.81 277.526C459.316 304.377 459.492 308.318 463.634 316.767C469.659 329.058 482.995 322.016 480.018 313.853C478.149 308.731 473.315 301.689 467.527 292.566C460.403 281.339 457.525 275.5 457.525 275.5L449.81 277.526Z" fill="#FFC999"/>
<path d="M458.345 277.194C458.253 277.049 458.061 277.006 457.916 277.098C457.787 277.18 457.738 277.341 457.794 277.477L457.82 277.527L478.536 310.066C478.629 310.211 478.821 310.254 478.966 310.162C479.095 310.08 479.143 309.919 479.088 309.783L479.062 309.733L458.345 277.194Z" fill="#DD936F"/>
<path fill-rule="evenodd" clip-rule="evenodd" d="M463.179 398.257C463.187 398.049 461.111 455.468 461.421 459.167C462.265 469.264 463.544 470.552 458.372 473.684C457.046 474.487 454.894 473.887 452.911 476.531C447.483 483.766 439.043 488.314 437.61 484.54C436.59 480.978 449.751 468.245 450.53 460.641C451.339 452.74 440.658 389.312 442.565 382.633C445.366 372.825 457.738 355.966 463.179 398.257Z" fill="#FFC999"/>
<path fill-rule="evenodd" clip-rule="evenodd" d="M461.963 474.69C461.963 474.69 463.256 469.057 461.559 462.439C461.559 462.439 457.357 466.976 453.771 471.859C449.63 477.497 448.539 477.858 448.539 477.858C442.917 480.141 441.333 476.952 441.333 476.952C441.333 476.952 438.531 481.264 432.968 486.125C427.986 490.477 448.705 489.511 451.086 484.064C453.466 478.617 456.931 475.257 456.931 475.257L459.225 483.009L461.187 482.785L461.963 474.69Z" fill="#253368"/>
<path fill-rule="evenodd" clip-rule="evenodd" d="M526.679 321.234C520.448 323.338 504.334 323.689 502.373 323.045C500.41 322.4 501.837 318.665 501.837 318.665C501.837 318.665 493.532 304.599 492.909 300.578C492.285 296.556 495.098 287.096 495.098 287.096C495.098 287.096 495.114 280.383 495.531 278.004C496.182 274.3 505.005 273.043 507.004 271.783C509.004 270.522 508.896 265.255 508.896 265.255L522.971 263.148C522.971 263.148 524.108 267.086 525.064 268.4C526.92 270.956 532.89 269.761 535.702 270.132C547.849 271.733 532.053 302.715 527.615 315.379C527.615 315.379 529.805 318.173 526.679 321.234Z" fill="#597EF7"/>
<path d="M523.348 269.883L509.982 272.687C509.763 272.733 509.622 272.947 509.668 273.166C509.71 273.367 509.895 273.501 510.094 273.487L510.149 273.479L523.515 270.676C523.734 270.63 523.874 270.415 523.828 270.196C523.786 269.995 523.602 269.861 523.402 269.875L523.348 269.883Z" fill="#253368"/>
<path d="M523.605 272.175C523.536 271.981 523.335 271.873 523.14 271.914L523.086 271.929L516.107 274.41C515.895 274.485 515.785 274.717 515.86 274.928C515.929 275.121 516.13 275.229 516.326 275.188L516.379 275.173L523.359 272.692C523.57 272.617 523.68 272.385 523.605 272.175Z" fill="#253368"/>
<path d="M525.279 292.504C525.113 292.354 524.857 292.366 524.706 292.531L524.643 292.597C524.555 292.685 524.415 292.813 524.224 292.971C523.807 293.315 523.306 293.66 522.721 293.983C520.464 295.23 517.677 295.791 514.352 295.286L514.057 295.238C512.849 295.033 510.135 295.264 506.3 295.815L506.031 295.854C505.402 295.946 504.752 296.045 504.086 296.15L503.584 296.23C502.427 296.416 501.268 296.612 500.144 296.811L498.838 297.045L497.509 297.292C497.289 297.335 497.145 297.547 497.187 297.767C497.229 297.986 497.442 298.13 497.662 298.088L498.762 297.883C498.98 297.843 499.211 297.801 499.452 297.757C500.828 297.509 502.272 297.261 503.712 297.03C504.384 296.922 505.039 296.82 505.675 296.725L506.669 296.581C510.187 296.082 512.733 295.866 513.843 296.025L513.922 296.037C517.565 296.654 520.635 296.061 523.114 294.692C523.745 294.344 524.287 293.97 524.741 293.595C525.018 293.367 525.206 293.186 525.306 293.077C525.457 292.911 525.445 292.655 525.279 292.504Z" fill="#253368"/>
<path d="M495.199 281.098C494.994 281.093 494.821 281.242 494.79 281.439L494.785 281.494L494.681 286.104L494.597 286.386C494.534 286.601 494.465 286.84 494.392 287.101L494.336 287.301C494.065 288.271 493.794 289.308 493.541 290.37C493.287 291.44 493.065 292.478 492.884 293.463L492.783 294.032C492.434 296.085 492.299 297.773 492.431 298.997C492.54 300.006 492.851 301.184 493.333 302.502C493.662 303.403 494.065 304.352 494.526 305.33C494.912 306.15 495.321 306.953 495.733 307.718L495.981 308.173C496.12 308.424 496.251 308.657 496.372 308.867L496.645 309.334C496.761 309.525 497.01 309.587 497.202 309.471C497.394 309.356 497.456 309.107 497.34 308.915L497.163 308.615C497.021 308.37 496.863 308.091 496.692 307.782C496.204 306.897 495.716 305.952 495.26 304.985C494.81 304.028 494.416 303.101 494.095 302.224C493.634 300.963 493.339 299.845 493.238 298.91C493.104 297.671 493.272 295.849 493.682 293.609C493.86 292.639 494.08 291.614 494.331 290.557C494.539 289.681 494.76 288.822 494.983 288.004L495.117 287.519C495.174 287.317 495.227 287.127 495.278 286.95L495.474 286.286L495.491 286.177L495.596 281.512C495.601 281.288 495.423 281.103 495.199 281.098Z" fill="#253368"/>
<path fill-rule="evenodd" clip-rule="evenodd" d="M499.613 360.512L490.31 347.616C490.31 347.616 494.286 331.965 501.877 325.241L528.572 324.738C528.572 324.738 533.942 335.293 535.313 358.101L512.92 360.838L499.613 360.512Z" fill="#E4EBF7"/>
<path fill-rule="evenodd" clip-rule="evenodd" d="M529.19 325.059L501.877 325.241L502.623 321.081L528.358 320.721L529.19 325.059Z" fill="#597EF7"/>
<path d="M509.304 326.324C509.138 326.302 508.985 326.419 508.963 326.586C508.655 328.908 508.448 331.387 508.335 334C508.049 340.572 508.353 347.611 509.035 354.518L509.132 355.476C509.264 356.734 509.4 357.911 509.538 358.992L509.645 359.815L509.842 361.213C509.867 361.378 510.023 361.492 510.189 361.467C510.355 361.441 510.469 361.286 510.443 361.12L510.326 360.308C510.284 360.008 510.24 359.677 510.193 359.315L510.09 358.507C509.937 357.269 509.785 355.913 509.641 354.458C508.961 347.578 508.658 340.566 508.943 334.026C509.056 331.43 509.261 328.969 509.566 326.665C509.588 326.499 509.471 326.346 509.304 326.324Z" fill="#A3B5D6"/>
<path d="M529.113 324.963L502.348 324.998C502.176 324.999 502.038 325.138 502.038 325.309C502.038 325.464 502.151 325.592 502.299 325.616L502.349 325.62L529.114 325.584C529.286 325.584 529.425 325.445 529.425 325.273C529.425 325.119 529.312 324.991 529.164 324.967L529.113 324.963Z" fill="#DD936F"/>
<path fill-rule="evenodd" clip-rule="evenodd" d="M526.266 422.181C526.078 422.137 577.796 434.454 581.208 434.848C590.522 435.921 591.924 435 593.825 440.245C594.313 441.588 593.378 443.425 595.416 445.698C600.993 451.92 603.584 460.378 599.899 460.987C596.481 461.262 587.322 447.048 580.565 444.962C573.544 442.793 514.054 440.915 508.342 437.976C499.951 433.659 486.906 419.409 526.266 422.181Z" fill="#FFC999"/>
<path fill-rule="evenodd" clip-rule="evenodd" d="M595.391 437.181C595.391 437.181 590.516 434.988 584.202 435.318C584.202 435.318 587.554 439.942 591.333 444.071C595.695 448.84 595.824 449.892 595.824 449.892C596.873 455.39 593.692 456.242 593.692 456.242C593.692 456.242 597.095 459.559 600.493 465.472C603.536 470.767 606.427 451.861 601.918 448.718C597.409 445.576 594.99 441.833 594.99 441.833L602.441 441.169L602.595 439.354L595.391 437.181Z" fill="#253368"/>
<path fill-rule="evenodd" clip-rule="evenodd" d="M503.558 412.208L567.865 418.032L566.548 447.848C566.548 447.848 533.434 444.813 499.835 440.638C499.835 440.638 482.934 439.565 484.416 424.657C485.898 409.748 503.558 412.208 503.558 412.208Z" fill="#A3B5D6"/>
<path fill-rule="evenodd" clip-rule="evenodd" d="M484.576 420.702C486.17 388.06 488.01 353.3 491.152 346.233C491.152 346.233 496.943 342.71 507.751 349.801C520.353 358.071 518.928 369.677 518.928 369.677L516.368 422.55C516.008 426.862 515.247 440.266 498.539 439.883C482.092 439.507 484.541 421.413 484.576 420.702Z" fill="#A3B5D6"/>
<path fill-rule="evenodd" clip-rule="evenodd" d="M542.709 318.183C542.709 318.183 530.744 291.463 528.993 286.266C524.764 273.716 530.855 268.693 537.981 271.236C546.571 274.301 556.442 314.765 556.442 314.765C556.442 314.765 557.112 319.499 551.626 322.216C545.142 325.426 542.709 318.183 542.709 318.183Z" fill="#FFC999"/>
<path fill-rule="evenodd" clip-rule="evenodd" d="M533.923 298.811C532.916 296.258 521.08 275.316 531.859 270.75C540.086 267.265 543.901 274.327 549.906 293.139L533.923 298.811Z" fill="#597EF7"/>
<path d="M529.269 289.644C529.175 289.441 528.933 289.354 528.73 289.448C528.544 289.535 528.455 289.745 528.514 289.935L528.534 289.987L532.744 298.982C532.824 299.154 533.011 299.245 533.193 299.208L533.247 299.193L549.23 293.521C549.441 293.446 549.552 293.214 549.476 293.003C549.408 292.81 549.207 292.701 549.011 292.742L548.958 292.757L533.323 298.306L529.269 289.644Z" fill="#253368"/>
<path fill-rule="evenodd" clip-rule="evenodd" d="M493.795 332.219C493.795 332.219 502.644 332.719 506.657 330.148C509.937 328.045 506.438 325.277 506.438 325.277C506.438 325.277 500.256 321.057 496.087 319.631C493.355 318.697 488.428 316.149 487.573 317.416C486.458 319.068 491.922 320.853 492.029 322.299C492.244 325.227 483.351 323.322 481.743 323.786C478.6 324.692 482.889 330.878 493.795 332.219Z" fill="#FFC999"/>
<path d="M481.798 325.045C481.638 324.982 481.457 325.061 481.394 325.22C481.331 325.38 481.41 325.56 481.57 325.623C482.005 325.795 482.458 325.946 482.925 326.077C485.214 326.72 487.622 326.856 489.748 326.705L489.972 326.688L490.261 326.661C490.287 326.658 490.307 326.655 490.321 326.654C490.491 326.632 490.612 326.477 490.591 326.307C490.57 326.137 490.414 326.016 490.243 326.037L490.036 326.059C489.945 326.067 489.834 326.077 489.704 326.086C487.644 326.231 485.303 326.099 483.094 325.479C482.646 325.353 482.214 325.209 481.798 325.045Z" fill="#DD936F"/>
<path d="M482.629 327.17C482.472 327.1 482.288 327.17 482.218 327.327C482.148 327.484 482.218 327.667 482.375 327.737L482.524 327.799L482.717 327.873C482.786 327.899 482.861 327.926 482.941 327.954C483.395 328.112 483.927 328.271 484.533 328.418C486.449 328.884 488.657 329.141 491.115 329.081C491.287 329.076 491.423 328.934 491.418 328.762C491.414 328.591 491.271 328.455 491.1 328.459C488.698 328.519 486.545 328.268 484.68 327.814C484.178 327.692 483.73 327.563 483.338 327.433L483.146 327.367C482.888 327.277 482.714 327.208 482.629 327.17Z" fill="#DD936F"/>
<path d="M486.156 329.661C485.988 329.622 485.821 329.726 485.782 329.893C485.743 330.06 485.847 330.227 486.014 330.266C488.727 330.897 490.823 331.094 492.243 331.047L492.534 331.033C492.545 331.032 492.554 331.032 492.562 331.031C492.733 331.015 492.859 330.864 492.843 330.693C492.828 330.522 492.676 330.397 492.505 330.412L492.364 330.421C491.885 330.443 491.216 330.43 490.366 330.356C489.125 330.247 487.719 330.024 486.156 329.661Z" fill="#DD936F"/>
<path fill-rule="evenodd" clip-rule="evenodd" d="M499.331 324.199C499.331 324.199 538.345 309.545 543.767 308.672C557.213 306.506 559.404 319.255 550.596 322.927C538.877 327.812 501.128 331.873 501.128 331.873L499.331 324.199Z" fill="#FFC999"/>
<path fill-rule="evenodd" clip-rule="evenodd" d="M468.564 366.558L468.777 443.877L435.438 445.671C435.438 445.671 435.369 405.853 436.518 365.326C436.518 365.326 435.95 345.058 452.707 345.142C469.462 345.227 468.564 366.558 468.564 366.558Z" fill="#E4EBF7"/>
<path fill-rule="evenodd" clip-rule="evenodd" d="M532.508 340.434C532.508 340.434 539.425 355.363 531.657 367.224C521.908 382.107 458.539 376.803 458.539 376.803C454.489 376.719 439.803 373.61 438.432 361.294C437.794 355.56 438.515 351.421 443.459 348.521C452.287 343.344 466.766 343.009 483.217 341.679C503.807 340.014 526.63 335.293 532.508 340.434Z" fill="#E4EBF7"/>
<path d="M516.744 337.959L507.144 338.932L499.044 339.764C495.019 340.18 491.051 340.594 487.226 340.998L477.496 342.038C466.385 343.243 458.9 344.124 456.205 344.572C456.039 344.6 455.927 344.756 455.955 344.922C455.982 345.087 456.139 345.199 456.305 345.171L456.71 345.106C459.725 344.637 467.163 343.768 477.956 342.599L485.094 341.834L491.159 341.195C493.766 340.922 496.423 340.646 499.106 340.368L516.835 338.56C517.003 338.543 517.125 338.394 517.108 338.227C517.093 338.077 516.97 337.963 516.824 337.954L516.744 337.959Z" fill="#A3B5D6"/>
<path fill-rule="evenodd" clip-rule="evenodd" d="M56.9199 367.043C41.0219 359.523 31.5467 379.245 39.5421 390.225C49.2991 403.625 54.2972 419.044 57.0804 423.689C59.4283 427.608 65.8599 437.162 73.6045 432.758C80.732 428.706 76.8473 412.8 76.8473 412.8C76.8473 412.8 76.5325 376.32 56.9199 367.043Z" fill="#5B8C00"/>
<path fill-rule="evenodd" clip-rule="evenodd" d="M104.739 429.696C110.143 422.404 112.117 411.94 106.084 409.256C100.3 406.684 90.7193 413.018 86.2815 425.209C81.8438 437.4 79.2835 446.165 83.6244 447.689C90.7465 450.19 97.5999 439.327 104.739 429.696Z" fill="#5B8C00"/>
<path fill-rule="evenodd" clip-rule="evenodd" d="M47.9174 430.25C54.0305 437.414 62.852 451.825 68.3785 446.777C71.7279 443.719 67.2502 429.233 54.9934 421.351C44.5676 414.647 41.8042 423.086 47.9174 430.25Z" fill="#7CB305"/>
<path fill-rule="evenodd" clip-rule="evenodd" d="M106.414 380.536C104.09 378.972 101.165 378.615 98.4966 379.47C94.7726 380.663 89.1213 384.214 83.5281 394.408C76.2257 407.717 72.4243 422.308 73.1757 431.55C73.667 437.594 81.1132 440.2 85.2788 435.793C87.1919 433.769 89.2161 430.649 91.1965 425.916C99.1668 406.87 106.619 394.934 107.507 393.736C109.878 390.538 111.574 384.008 106.414 380.536Z" fill="#7CB305"/>
<path fill-rule="evenodd" clip-rule="evenodd" d="M101.069 388.133C100.99 389.074 101.688 389.9 102.629 389.979C103.569 390.058 104.395 389.359 104.474 388.419C104.553 387.479 103.855 386.652 102.914 386.573C101.974 386.495 101.148 387.193 101.069 388.133Z" fill="white"/>
<path fill-rule="evenodd" clip-rule="evenodd" d="M86.5552 395.429C86.4762 396.369 87.1746 397.195 88.1151 397.274C89.0555 397.353 89.8817 396.655 89.9607 395.714C90.0396 394.774 89.3411 393.948 88.4007 393.869C87.4604 393.79 86.634 394.488 86.5552 395.429Z" fill="white"/>
<path fill-rule="evenodd" clip-rule="evenodd" d="M88.9877 414.853C88.8973 415.93 89.6971 416.876 90.7741 416.967C91.8511 417.057 92.7973 416.257 92.8876 415.18C92.978 414.103 92.1782 413.157 91.1012 413.067C90.0243 412.976 89.0781 413.776 88.9877 414.853Z" fill="white"/>
<path fill-rule="evenodd" clip-rule="evenodd" d="M44.4089 385.824C44.4089 387.353 45.6478 388.592 47.1762 388.592C48.7047 388.592 49.9435 387.353 49.9435 385.824C49.9435 384.296 48.7047 383.057 47.1762 383.057C45.6478 383.057 44.4089 384.296 44.4089 385.824Z" fill="white"/>
<path fill-rule="evenodd" clip-rule="evenodd" d="M66.6868 394.275C66.6868 395.803 67.9258 397.042 69.4542 397.042C70.9826 397.042 72.2215 395.803 72.2215 394.275C72.2215 392.747 70.9826 391.508 69.4542 391.508C67.9258 391.508 66.6868 392.747 66.6868 394.275Z" fill="white"/>
<path fill-rule="evenodd" clip-rule="evenodd" d="M59.4716 413.06C59.4716 413.699 59.9895 414.217 60.6283 414.217C61.2671 414.217 61.7849 413.699 61.7849 413.06C61.7849 412.421 61.2671 411.903 60.6283 411.903C59.9895 411.903 59.4716 412.421 59.4716 413.06Z" fill="white"/>
<path fill-rule="evenodd" clip-rule="evenodd" d="M51.1386 427.852C51.1386 428.796 51.9037 429.561 52.8473 429.561C53.7911 429.561 54.556 428.796 54.556 427.852C54.556 426.909 53.7911 426.144 52.8473 426.144C51.9037 426.144 51.1386 426.909 51.1386 427.852Z" fill="white"/>
<path d="M91.0494 431.642C90.8902 431.49 90.638 431.496 90.4861 431.656L90.4132 431.734L90.358 431.795C90.2576 431.908 90.1415 432.041 90.0112 432.197C89.6408 432.638 89.229 433.166 88.7862 433.779C87.5242 435.527 86.2634 437.612 85.0873 440.03C81.7313 446.933 79.7185 455.132 79.7185 464.598C79.7185 464.818 79.8969 464.996 80.1169 464.996C80.337 464.996 80.5153 464.818 80.5153 464.598C80.5153 455.257 82.4991 447.177 85.804 440.379C86.9593 438.003 88.1964 435.957 89.4322 434.246C89.8382 433.684 90.2164 433.197 90.5582 432.785L90.6218 432.709C90.7188 432.593 90.807 432.491 90.886 432.401L90.9859 432.289C91.023 432.248 91.0488 432.22 91.0628 432.206C91.2146 432.046 91.2087 431.794 91.0494 431.642Z" fill="#253368"/>
<path d="M60.9475 434.431C60.8158 434.255 60.5662 434.219 60.3899 434.35C60.2135 434.482 60.1773 434.732 60.309 434.908C61.7601 436.851 63.0994 438.941 64.331 441.156C66.9345 445.839 68.9473 450.86 70.4414 455.881C70.9643 457.638 71.3849 459.269 71.7122 460.733L71.7785 461.033C71.8567 461.391 71.9242 461.717 71.9817 462.01L72.0188 462.201L72.0849 462.562C72.1215 462.779 72.327 462.926 72.544 462.889C72.761 462.853 72.9073 462.647 72.8707 462.43L72.8481 462.302C72.8294 462.198 72.8065 462.076 72.7794 461.937L72.7135 461.605C72.6494 461.289 72.575 460.939 72.4899 460.559L72.4175 460.239C72.0974 458.842 71.6957 457.302 71.2051 455.653C69.6956 450.581 67.6616 445.507 65.0274 440.769C63.7791 438.524 62.4207 436.404 60.9475 434.431Z" fill="#253368"/>
<path d="M53.9848 384.721C53.8323 384.867 53.8212 385.105 53.9553 385.265L53.9728 385.284C53.9806 385.293 53.9975 385.31 54.023 385.338L54.121 385.445L54.178 385.508C54.3494 385.699 54.5488 385.929 54.7739 386.199C55.419 386.97 56.1388 387.899 56.9147 388.985C59.1352 392.094 61.357 395.838 63.4315 400.222C66.8856 407.52 69.5757 415.843 71.2061 425.201C73.1859 436.564 73.5137 448.977 71.8932 462.449C71.8669 462.667 72.0227 462.866 72.2412 462.892C72.4596 462.918 72.6581 462.762 72.6843 462.544C74.3142 448.995 73.9843 436.504 71.9911 425.064C70.3482 415.635 67.6359 407.242 64.1518 399.881C62.0564 395.453 59.8105 391.669 57.5632 388.522L57.389 388.28C56.6962 387.32 56.0484 386.486 55.4587 385.776L55.3853 385.688C55.1735 385.434 54.9832 385.214 54.8161 385.026L54.7712 384.976C54.719 384.918 54.6723 384.867 54.6313 384.822L54.5482 384.733C54.3959 384.574 54.1437 384.569 53.9848 384.721Z" fill="#253368"/>
<path d="M88.4729 408.349C88.2847 408.235 88.0397 408.295 87.9257 408.483L87.8857 408.55C87.8538 408.604 87.8163 408.669 87.7735 408.743L87.7109 408.852C87.604 409.04 87.484 409.256 87.3517 409.5L87.2422 409.702C86.8369 410.457 86.3928 411.33 85.9186 412.319L85.8538 412.454C84.3071 415.695 82.7612 419.484 81.3188 423.79C77.2799 435.846 74.8228 449.53 74.7308 464.595C74.7295 464.815 74.9068 464.995 75.1269 464.996C75.3469 464.997 75.5264 464.82 75.5277 464.6C75.6191 449.623 78.0613 436.022 82.0744 424.043C83.4802 419.846 84.9842 416.146 86.4893 412.973L86.5729 412.797C87.0874 411.72 87.5663 410.779 87.9982 409.979L88.1283 409.74C88.2531 409.512 88.3654 409.312 88.4643 409.14L88.5113 409.059L88.6072 408.896C88.7212 408.708 88.6611 408.463 88.4729 408.349Z" fill="#253368"/>
<path fill-rule="evenodd" clip-rule="evenodd" d="M57.8078 484.361H92.2483C94.1101 484.361 95.6333 482.838 95.6333 480.976V455.851C95.6333 453.989 94.1101 452.466 92.2483 452.466H57.8078C55.9462 452.466 54.4229 453.989 54.4229 455.851V480.976C54.4229 482.838 55.9462 484.361 57.8078 484.361Z" fill="#253368"/>
</svg>
